<svg viewBox="0 0 721 452" version="1.1" xmlns="http://www.w3.org/2000/svg" xmlns:xlink="http://www.w3.org/1999/xlink">
  <defs></defs>
  <g id="Icons" stroke="none" stroke-width="1" fill="none" fill-rule="evenodd">
      <g id="WEB-DEV-svg" transform="translate(-60.000000, -1250.000000)">
          <g id="email" transform="translate(60.000000, 1250.000000)">
              <polygon id="Rectangle-140-Copy" fill-opacity="0.449999988" fill="#FFFFFF" points="1 0 258 228 1 452"></polygon>
              <polygon id="Rectangle-140-Copy-3" fill-opacity="0.449999988" fill="#FFFFFF" transform="translate(592.500000, 226.000000) scale(-1, 1) translate(-592.500000, -226.000000) " points="464 0 721 226.5 464 452"></polygon>
              <polygon id="Rectangle-140-Copy-2" fill-opacity="0.25" fill="#C6C6C6" points="0 0 720 0 360 319"></polygon>
              <path d="M257.685901,450.387147 C172.123934,375.758098 1,226.5 1,226.5 L721,226.5 C721,226.5 549.329887,377.137266 463.5,452 C364.5,363 455,444 361,359 C326.561967,389.037618 354,365 257.685901,450.387147 Z" id="Rectangle-140-Copy-4" fill-opacity="0.3" fill="#FFFFFF" transform="translate(361.000000, 339.250000) scale(1, -1) translate(-361.000000, -339.250000) "></path>
          </g>
      </g>
  </g>
</svg>
