<?xml version="1.0" encoding="UTF-8" standalone="no"?>
<svg viewBox="0 0 20 42" version="1.1" xmlns="http://www.w3.org/2000/svg" xmlns:xlink="http://www.w3.org/1999/xlink">
    <defs></defs>
    <g id="svgs" stroke="none" stroke-width="1" fill="none" fill-rule="evenodd">
        <g id="SVGs" transform="translate(-293.000000, -59.000000)" stroke="#FFFFFF" stroke-width="0.588235294">
            <path d="M294,62.3529412 L296.407127,62.3529412 C296.407127,62.3529412 297.630139,62.381026 297.98424,62.545833 C298.90652,62.9750841 298.8,63.5294118 298.8,63.5294118 L298.8,96.4705882 C298.8,96.4705882 298.714045,96.9333421 297.98424,97.2921551 C297.254435,97.6509681 296.407127,97.6470588 296.407127,97.6470588 L294,97.6470588 L294,100 L312,100 L312,97.6470588 L309.591048,97.6470588 C309.591048,97.6470588 308.644789,97.5469619 308.100439,97.2921551 C307.556089,97.0373483 307.2,96.4705882 307.2,96.4705882 L307.2,63.5294118 C307.2,63.5294118 307.189104,62.9510529 308.235859,62.545833 C308.734132,62.3529413 309.591048,62.3529412 309.591048,62.3529412 L312,62.3529412 L312,60 L294,60 L294,62.3529412 Z" id="instapaper-white"></path>
        </g>
    </g>
</svg>
