<?xml version="1.0" encoding="UTF-8" standalone="no"?>
<svg width="140px" height="180px" viewBox="0 0 140 180" version="1.1" xmlns="http://www.w3.org/2000/svg" xmlns:xlink="http://www.w3.org/1999/xlink">
    <!-- Generator: Sketch 3.7 (28169) - http://www.bohemiancoding.com/sketch -->
    <title>JM-bulb</title>
    <desc>Created with Sketch.</desc>
    <defs>
        <ellipse id="path-1" cx="7.2727399" cy="7.31132943" rx="7.2727399" ry="7.31132943"></ellipse>
        <mask id="mask-2" maskContentUnits="userSpaceOnUse" maskUnits="objectBoundingBox" x="-0.584415584" y="-0.584415584" width="15.714311" height="15.79149">
            <rect x="-0.584415584" y="-0.584415584" width="15.714311" height="15.79149" fill="white"></rect>
            <use xlink:href="#path-1" fill="black"></use>
        </mask>
        <ellipse id="path-3" cx="7.15729959" cy="7.19527658" rx="3.46320948" ry="3.48158544"></ellipse>
        <mask id="mask-4" maskContentUnits="userSpaceOnUse" maskUnits="objectBoundingBox" x="-0.584415584" y="-0.584415584" width="8.09525012" height="8.13200205">
            <rect x="3.10967453" y="3.12927555" width="8.09525012" height="8.13200205" fill="white"></rect>
            <use xlink:href="#path-3" fill="black"></use>
        </mask>
    </defs>
    <g id="Logos" stroke="none" stroke-width="1" fill="none" fill-rule="evenodd">
        <g id="JM-bulb" transform="translate(-57.000000, -15.000000)">
            <g transform="translate(57.000000, 15.000000)">
                <g>
                    <g id="Group" transform="translate(42.000000, 158.961039)" fill="#828282">
                        <path d="M28.0243842,3.06304116 C45.5363618,3.06304117 54.8333333,-0.606286764 54.8333333,1.22837718 C54.8333333,3.06304113 38.411794,9.02489016 28.0243842,9.02489123 C17.6369743,9.0248923 3.9173541e-09,3.12640353 0,1.22837718 C-3.91735437e-09,-0.66964918 10.5124066,3.06304116 28.0243842,3.06304116 Z" id="Path-55"></path>
                        <path d="M28.0243842,10.5201533 C45.5363618,10.5201533 54.8333333,4.5476112 54.8333333,6.38227515 C54.8333333,8.2169391 38.411794,14.1787881 28.0243842,14.1787892 C17.6369743,14.1787903 3.9173541e-09,8.2803015 0,6.38227514 C-3.91735437e-09,4.48424879 10.5124066,10.5201533 28.0243842,10.5201533 Z" id="Path-55-Copy-2"></path>
                        <path d="M28.0243842,15.0266563 C45.5363618,15.0266563 54.8333333,9.05411421 54.8333333,10.8887782 C54.8333333,12.7234421 38.411794,17.9408829 28.0243842,17.9408839 C17.6369743,17.940885 3.9173541e-09,12.7868045 0,10.8887781 C-3.91735437e-09,8.99075179 10.5124066,15.0266563 28.0243842,15.0266563 Z" id="Path-55-Copy-3"></path>
                        <path d="M28.0243842,18.5331498 C45.5363618,18.5331498 54.8333333,12.5606077 54.8333333,14.3952717 C54.8333333,16.2299356 38.411794,20.8048283 28.0243842,20.8048294 C17.6369743,20.8048305 3.9173541e-09,16.293298 0,14.3952717 C-3.91735437e-09,12.4972453 10.5124066,18.5331498 28.0243842,18.5331498 Z" id="Path-55-Copy-4"></path>
                    </g>
                    <path d="M97.9023203,153.996593 C98.7392275,121.851293 140,102.333639 140,55.7499326 C140,9.19621952 97.8894145,0.00242017823 70.0002589,-8.64078501e-08 C42.1111034,-0.00242035104 0,9.19621952 0,55.7499326 C0,104.741671 39.9877999,125.807207 40.9966951,153.908069 C40.8882199,154.047179 40.8333333,154.199245 40.8333333,154.365432 C40.8333333,154.534735 40.8949976,154.708837 41.0159373,154.886166 C41.0160539,154.920318 41.0161122,154.954481 41.0161122,154.988655 L41.0921385,154.988655 C42.9129786,157.251929 54.1886167,159.985376 70.0502437,159.985377 C85.8715828,159.985378 96.0768489,157.200629 97.7550066,154.988655 L97.8894145,154.988655 C97.8894145,154.918319 97.8896088,154.848046 97.8899967,154.777833 C97.9630688,154.63721 98,154.499439 98,154.365432 C98,154.233719 97.9673667,154.110971 97.9023203,153.996593 Z" id="BULB" fill="#FFFBE6"></path>
                </g>
                <g id="JM-med" transform="translate(19.833333, 19.870130)">
                    <g id="J">
                        <path d="M5.20470716,62.1266296 C0.534499464,78.7691303 10.4878117,82.8382173 27.266551,82.8382173 C44.0452903,82.8382173 47.3839674,69.281589 41.9119006,56.9834517 C36.4398338,44.6853145 32.5837682,36.8276253 32.5837682,31.1286852" stroke="#2B333D" stroke-width="2.55086879"></path>
                        <g id="sides" transform="translate(19.132948, 0.000000)">
                            <path d="M-9.76996262e-15,30.6413586 C0.850299778,30.6413582 3.32717764,29.5910347 3.32717764,23.8687961 C3.32717764,18.1465574 3.32717764,16.7305798 6.36834923,11.9554995 C9.40952082,7.18041921 20.4378423,1.7022977 7.14224117,1.7022977" id="right" stroke="#2B333D" stroke-width="2.12572399" transform="translate(6.775954, 16.171828) scale(-1, 1) translate(-6.775954, -16.171828) "></path>
                            <path d="M13.5519082,30.6413586 C14.402208,30.6413582 16.8790858,29.5910347 16.8790858,23.8687961 C16.8790858,18.1465574 16.8790858,16.7305798 19.9202574,11.9554995 C22.961429,7.18041921 33.9897505,1.7022977 20.6941494,1.7022977" id="right-copy-2" stroke="#2B333D" stroke-width="2.12572399"></path>
                            <g id="earpiece" transform="translate(3.811474, 0.000000)" stroke="#9B9B9B" stroke-width="0.584415584" fill="#75FDC1">
                                <path d="M0.494163461,3.60169256 C0.968638701,3.84122966 2.18495839,3.83008915 2.83171939,3.83008915 C3.68887364,3.83008915 4.36173797,3.46851908 4.87626696,3.07385633 C5.29168277,2.75521705 5.5054627,2.45369984 5.5054627,2.00291563 C5.5054627,1.41644746 4.87626696,0.922156898 4.40437016,0.768464081 C3.93247336,0.614771265 2.51678295,0.175742162 2.51678295,0.175742162 C2.51678295,0.175742162 1.00870146,-0.219677707 0.494163466,0.175742169 C0.0797696304,0.494201758 0.0266522761,1.55275008 0.0266522761,2.00291566 C0.0266522761,2.59074649 -0.167878578,3.26746305 0.494163461,3.60169256 Z" id="Oval-3-Copy-2"></path>
                                <path d="M14.4695688,3.60169256 C14.944044,3.84122966 16.1603637,3.83008915 16.8071247,3.83008915 C17.664279,3.83008915 18.3371433,3.46851908 18.8516723,3.07385633 C19.2670881,2.75521705 19.480868,2.45369984 19.480868,2.00291563 C19.480868,1.41644746 18.8516723,0.922156898 18.3797755,0.768464081 C17.9078787,0.614771265 16.4921883,0.175742162 16.4921883,0.175742162 C16.4921883,0.175742162 14.9841068,-0.219677707 14.4695688,0.175742169 C14.0551749,0.494201758 14.0020576,1.55275008 14.0020576,2.00291566 C14.0020576,2.59074649 13.8075267,3.26746305 14.4695688,3.60169256 Z" id="Oval-3-Copy-2" transform="translate(16.728137, 1.915085) scale(-1, 1) translate(-16.728137, -1.915085) "></path>
                            </g>
                        </g>
                        <g id="bell" transform="translate(0.105996, 47.659581)">
                            <g id="bell-outer">
                                <use fill-opacity="0.3028476" fill="#C3C3C3" fill-rule="evenodd" xlink:href="#path-1"></use>
                                <use stroke="#2B333D" mask="url(#mask-2)" stroke-width="1.16883117" xlink:href="#path-1"></use>
                            </g>
                            <g id="bell-inner">
                                <use fill="#75FDC1" fill-rule="evenodd" xlink:href="#path-3"></use>
                                <use stroke="#2B333D" mask="url(#mask-4)" stroke-width="1.16883117" xlink:href="#path-3"></use>
                            </g>
                        </g>
                    </g>
                    <g id="M" transform="translate(50.795764, 2.592852)" stroke="#2B333D" stroke-width="2.55086879" stroke-linecap="round" stroke-linejoin="round">
                        <path d="M0.0139546352,79.1892648 L0.0139546352,2.75580948e-15 C0.835263473,-7.13845062e-15 -0.160262391,-1.70327109e-14 0.56149386,-7.13845079e-15 C1.1458002,1.13565419 20.6476288,45.8804905 20.6476288,45.8804905 L21.6352129,45.8804905" id="M-left"></path>
                        <path d="M42.2779789,79.1892648 L42.2779789,1.3992597e-14 C41.4566701,4.09833685e-15 42.4521959,-5.79592341e-15 41.7304397,4.09833669e-15 C41.1461333,1.13565419 21.6443048,45.8804905 21.6443048,45.8804905 L20.6311854,45.8804905" id="M-right"></path>
                    </g>
                </g>
            </g>
        </g>
    </g>
</svg>