<?xml version="1.0" encoding="UTF-8" standalone="no"?>
<svg viewBox="0 0 142 187" version="1.1" xmlns="http://www.w3.org/2000/svg" xmlns:xlink="http://www.w3.org/1999/xlink">
    <defs>
        <linearGradient x1="50%" y1="0%" x2="50%" y2="100%" id="linearGradient-1">
            <stop stop-color="#A8A8A8" stop-opacity="0.645974864" offset="0%"></stop>
            <stop stop-color="#3E4756" stop-opacity="0.541836504" offset="100%"></stop>
        </linearGradient>
        <ellipse id="path-2" cx="5.81819192" cy="5.84906354" rx="5.81819192" ry="5.84906354"></ellipse>
        <mask id="mask-3" maskContentUnits="userSpaceOnUse" maskUnits="objectBoundingBox" x="-0.5" y="-0.5" width="12.6363838" height="12.6981271">
            <rect x="-0.5" y="-0.5" width="12.6363838" height="12.6981271" fill="white"></rect>
            <use xlink:href="#path-2" fill="black"></use>
        </mask>
        <path d="M5.72583967,8.54148962 C7.25598189,8.54148962 8.49640725,7.2944825 8.49640725,5.75622127 C8.49640725,4.21796003 7.25598189,2.97095291 5.72583967,2.97095291 C4.19569745,2.97095291 2.95527209,4.21796003 2.95527209,5.75622127 C2.95527209,7.2944825 4.19569745,8.54148962 5.72583967,8.54148962 Z" id="path-4"></path>
        <mask id="mask-5" maskContentUnits="userSpaceOnUse" maskUnits="objectBoundingBox" x="-0.4" y="-0.4" width="6.34113516" height="6.37053671">
            <rect x="2.55527209" y="2.57095291" width="6.34113516" height="6.37053671" fill="white"></rect>
            <use xlink:href="#path-4" fill="black"></use>
        </mask>
    </defs>
    <g id="Logos" stroke="none" stroke-width="1" fill="none" fill-rule="evenodd">
        <g id="JM-bulb" transform="translate(-466.000000, -11.000000)">
            <g id="JM-bulb-on" transform="translate(467.000000, 12.000000)">
                <g id="Group" transform="translate(42.000000, 164.961039)" fill="#5C5C5C">
                    <path d="M28.0243842,3.06304116 C45.5363618,3.06304117 54.8333333,-0.606286764 54.8333333,1.22837718 C54.8333333,3.06304113 38.411794,9.02489016 28.0243842,9.02489123 C17.6369743,9.0248923 3.9173541e-09,3.12640353 0,1.22837718 C-3.91735437e-09,-0.66964918 10.5124066,3.06304116 28.0243842,3.06304116 Z" id="Path-55"></path>
                    <path d="M28.0243842,10.5201533 C45.5363618,10.5201533 54.8333333,4.5476112 54.8333333,6.38227515 C54.8333333,8.2169391 38.411794,14.1787881 28.0243842,14.1787892 C17.6369743,14.1787903 3.9173541e-09,8.2803015 0,6.38227514 C-3.91735437e-09,4.48424879 10.5124066,10.5201533 28.0243842,10.5201533 Z" id="Path-55-Copy-2"></path>
                    <path d="M28.0243842,15.0266563 C45.5363618,15.0266563 54.8333333,9.05411421 54.8333333,10.8887782 C54.8333333,12.7234421 38.411794,17.9408829 28.0243842,17.9408839 C17.6369743,17.940885 3.9173541e-09,12.7868045 0,10.8887781 C-3.91735437e-09,8.99075179 10.5124066,15.0266563 28.0243842,15.0266563 Z" id="Path-55-Copy-3"></path>
                    <path d="M28.0243842,18.5331498 C45.5363618,18.5331498 54.8333333,12.5606077 54.8333333,14.3952717 C54.8333333,16.2299356 38.411794,20.8048283 28.0243842,20.8048294 C17.6369743,20.8048305 3.9173541e-09,16.293298 0,14.3952717 C-3.91735437e-09,12.4972453 10.5124066,18.5331498 28.0243842,18.5331498 Z" id="Path-55-Copy-4"></path>
                </g>
                <g id="Group-2" stroke="url(#linearGradient-1)" fill="#FFFFFF">
                    <path d="M98.0005013,154.792783 C98.1674878,122.170699 140,102.716988 140,55.7499326 C140,9.19621952 97.8894145,0.00242017823 70.0002589,-8.64078501e-08 C42.1111034,-0.00242035104 0,9.19621952 0,55.7499326 C0,105.3676 41.0161122,126.340924 41.0161122,154.988655 C41.0071142,155.321167 41.0000184,155.658273 41,156 C40.9998922,158 43,163.328525 69.5,163.328525 C96,163.328526 97.8750074,158.999822 98,156 C98.0169732,155.592643 98.0169496,155.190203 98.0005013,154.792781 Z" id="BULB"></path>
                </g>
                <g id="JM-box-gray-green" transform="translate(18.000000, 17.000000)">
                    <g id="JM-med-Copy">
                        <g id="J">
                            <path d="M3.9416196,63.5392725 C1.84145954,69.1604332 0.732693492,74.752373 6.22984457,80.9806368 C11.7269957,87.2089007 26.8442333,86.1748844 35.7815975,84.9309351 C48.9570451,83.0971071 47.2078175,70.3912317 41.7273602,61.3331511 C36.2469029,52.2750704 31.5837682,42.8276253 31.5837682,37.1286852" stroke="#46484A" stroke-width="3.5"></path>
                            <g id="sides" transform="translate(11.166667, 0.129870)">
                                <path d="M0.827710321,37 C1.76886905,36.9999995 4.51041418,35.802287 4.51041418,29.2770623 C4.51041418,22.7518376 2.50133992,18.1499221 7.87655076,15.6920055 C13.2517616,13.2340889 28.4767853,3.32859402 13.7604801,3.32859402" id="right" stroke="#46484A" stroke-width="2.8" transform="translate(10.413855, 20.164297) scale(-1, 1) translate(-10.413855, -20.164297) "></path>
                                <path d="M19.8277103,37 C20.768869,36.9999995 23.5104142,35.802287 23.5104142,29.2770623 C23.5104142,22.7518376 21.5013399,18.1499221 26.8765508,15.6920055 C32.2517616,13.2340889 47.4767853,3.32859402 32.7604801,3.32859402" id="right-copy-3" stroke="#46484A" stroke-width="2.8"></path>
                                <g id="earpiece" transform="translate(6.811474, 0.000000)" fill="#42CC6F">
                                    <path d="M18.8078288,6.58243604 C19.5834724,7.02021289 21.5718389,6.99985255 22.6291249,6.99985255 C24.0303492,6.99985255 25.1303075,6.33904883 25.9714286,5.61776507 C26.6505254,5.03542145 27,4.48437005 27,3.660519 C27,2.58869258 25.9714286,1.68532952 25.2,1.40444127 C24.4285714,1.12355301 22.1142857,0.321185532 22.1142857,0.321185532 C22.1142857,0.321185532 19.6489646,-0.401481923 18.8078288,0.321185544 C18.1304026,0.903200761 18.0435695,2.8377986 18.0435695,3.66051904 C18.0435695,4.73483585 17.7255622,5.97159978 18.8078288,6.58243604 Z" id="Oval-3-Copy-2" transform="translate(22.500000, 3.500000) scale(-1, 1) translate(-22.500000, -3.500000) "></path>
                                    <path d="M0.807828768,6.58243604 C1.58347241,7.02021289 3.57183885,6.99985255 4.6291249,6.99985255 C6.03034924,6.99985255 7.13030746,6.33904883 7.97142857,5.61776507 C8.65052541,5.03542145 9,4.48437005 9,3.660519 C9,2.58869258 7.97142857,1.68532952 7.2,1.40444127 C6.42857143,1.12355301 4.11428571,0.321185532 4.11428571,0.321185532 C4.11428571,0.321185532 1.64896461,-0.401481923 0.807828776,0.321185544 C0.130402604,0.903200761 0.0435695413,2.8377986 0.0435695413,3.66051904 C0.0435695413,4.73483585 -0.274437824,5.97159978 0.807828768,6.58243604 Z" id="Oval-3-Copy-3"></path>
                                </g>
                            </g>
                            <g id="bell" transform="translate(0.166667, 52.129870)">
                                <g id="bell-outer">
                                    <use fill-opacity="0.3028476" fill="#C3C3C3" fill-rule="evenodd" xlink:href="#path-2"></use>
                                    <use stroke="#757575" mask="url(#mask-3)" stroke-width="1" xlink:href="#path-2"></use>
                                </g>
                                <g id="bell-inner">
                                    <use fill="#42CC6F" fill-rule="evenodd" xlink:href="#path-4"></use>
                                    <use stroke="#8A95A1" mask="url(#mask-5)" stroke-width="0.8" xlink:href="#path-4"></use>
                                </g>
                            </g>
                        </g>
                        <g id="M" transform="translate(54.795764, 5.592852)" stroke="#45484A" stroke-width="3.5" stroke-linecap="round" stroke-linejoin="round">
                            <path d="M0.0139546352,79.1892648 L0.0139546352,2.75580948e-15 C0.835263473,-7.13845062e-15 -0.160262391,-1.70327109e-14 0.56149386,-7.13845079e-15 C1.1458002,1.13565419 20.6476288,45.8804905 20.6476288,45.8804905 L21.6352129,45.8804905" id="M-left"></path>
                            <path d="M42.2779789,79.1892648 L42.2779789,1.3992597e-14 C41.4566701,4.09833685e-15 42.4521959,-5.79592341e-15 41.7304397,4.09833669e-15 C41.1461333,1.13565419 21.6443048,45.8804905 21.6443048,45.8804905 L20.6311854,45.8804905" id="M-right"></path>
                        </g>
                    </g>
                </g>
            </g>
        </g>
    </g>
</svg>
