<?xml version="1.0" encoding="UTF-8" standalone="no"?>
<svg viewBox="0 0 253 210" version="1.1" xmlns="http://www.w3.org/2000/svg" xmlns:xlink="http://www.w3.org/1999/xlink">
    <defs>
        <linearGradient x1="50%" y1="0%" x2="50%" y2="100%" id="linearGradient-1">
            <stop stop-color="#FCFCFC" stop-opacity="0.92" offset="0%"></stop>
            <stop stop-color="#FBF4BA" stop-opacity="0.92" offset="100%"></stop>
        </linearGradient>
        <linearGradient x1="50%" y1="0%" x2="50%" y2="100%" id="linearGradient-2">
            <stop stop-color="#DBF2FF" stop-opacity="0.55" offset="0%"></stop>
            <stop stop-color="#FFFFFF" stop-opacity="0.5" offset="100%"></stop>
        </linearGradient>
        <linearGradient x1="50%" y1="0%" x2="50%" y2="100%" id="linearGradient-3">
            <stop stop-color="#FAFAFA" offset="0%"></stop>
            <stop stop-color="#E1E1E1" offset="100%"></stop>
        </linearGradient>
        <path d="M98.0005013,154.792783 C98.1674878,122.170699 140,102.716988 140,55.7499326 C140,9.19621952 97.8894145,0.00242017823 70.0002589,-8.64078501e-08 C42.1111034,-0.00242035104 0,9.19621952 0,55.7499326 C0,105.3676 41.0161122,126.340924 41.0161122,154.988655 C41.0071142,155.321167 41.0000184,155.658273 41,156 C40.9998922,158 43,163.328525 69.5,163.328525 C96,163.328526 97.8750074,158.999822 98,156 C98.0169732,155.592643 98.0169496,155.190203 98.0005013,154.792781 Z" id="path-4"></path>
        <ellipse id="path-5" cx="5.81819192" cy="5.84906354" rx="5.81819192" ry="5.84906354"></ellipse>
        <mask id="mask-6" maskContentUnits="userSpaceOnUse" maskUnits="objectBoundingBox" x="-0.5" y="-0.5" width="12.6363838" height="12.6981271">
            <rect x="-0.5" y="-0.5" width="12.6363838" height="12.6981271" fill="white"></rect>
            <use xlink:href="#path-5" fill="black"></use>
        </mask>
        <ellipse id="path-7" cx="5.72583967" cy="5.75622127" rx="2.77056758" ry="2.78526835"></ellipse>
        <mask id="mask-8" maskContentUnits="userSpaceOnUse" maskUnits="objectBoundingBox" x="-0.5" y="-0.5" width="6.54113516" height="6.57053671">
            <rect x="2.45527209" y="2.47095291" width="6.54113516" height="6.57053671" fill="white"></rect>
            <use xlink:href="#path-7" fill="black"></use>
        </mask>
    </defs>
    <g id="Logos" stroke="none" stroke-width="1" fill="none" fill-rule="evenodd">
        <g id="JM-bulb">
            <g id="JM-bulb-on" transform="translate(57.000000, 12.000000)">
                <g id="Group" transform="translate(42.000000, 164.961039)" fill="#828282">
                    <path d="M28.0243842,3.06304116 C45.5363618,3.06304117 54.8333333,-0.606286764 54.8333333,1.22837718 C54.8333333,3.06304113 38.411794,9.02489016 28.0243842,9.02489123 C17.6369743,9.0248923 3.9173541e-09,3.12640353 0,1.22837718 C-3.91735437e-09,-0.66964918 10.5124066,3.06304116 28.0243842,3.06304116 Z" id="Path-55"></path>
                    <path d="M28.0243842,10.5201533 C45.5363618,10.5201533 54.8333333,4.5476112 54.8333333,6.38227515 C54.8333333,8.2169391 38.411794,14.1787881 28.0243842,14.1787892 C17.6369743,14.1787903 3.9173541e-09,8.2803015 0,6.38227514 C-3.91735437e-09,4.48424879 10.5124066,10.5201533 28.0243842,10.5201533 Z" id="Path-55-Copy-2"></path>
                    <path d="M28.0243842,15.0266563 C45.5363618,15.0266563 54.8333333,9.05411421 54.8333333,10.8887782 C54.8333333,12.7234421 38.411794,17.9408829 28.0243842,17.9408839 C17.6369743,17.940885 3.9173541e-09,12.7868045 0,10.8887781 C-3.91735437e-09,8.99075179 10.5124066,15.0266563 28.0243842,15.0266563 Z" id="Path-55-Copy-3"></path>
                    <path d="M28.0243842,18.5331498 C45.5363618,18.5331498 54.8333333,12.5606077 54.8333333,14.3952717 C54.8333333,16.2299356 38.411794,20.8048283 28.0243842,20.8048294 C17.6369743,20.8048305 3.9173541e-09,16.293298 0,14.3952717 C-3.91735437e-09,12.4972453 10.5124066,18.5331498 28.0243842,18.5331498 Z" id="Path-55-Copy-4"></path>
                </g>
                <g id="Group-2">
                    <g id="BULB">
                        <use fill="#FFFFFF" xlink:href="#path-4"></use>
                        <use fill-opacity="0.4" fill="url(#linearGradient-1)" xlink:href="#path-4"></use>
                        <use stroke="url(#linearGradient-3)" stroke-width="1" fill-opacity="0.100000001" fill="url(#linearGradient-2)" xlink:href="#path-4"></use>
                    </g>
                    <g id="JM-med" transform="translate(18.833333, 16.870130)">
                        <g id="J">
                            <path d="M4.16666664,65.6298697 C-0.503541061,82.2723704 9.48781169,85.8382173 26.266551,85.8382173 C43.0452903,85.8382173 46.3839674,72.281589 40.9119006,59.9834517 C35.4398338,47.6853145 31.5837682,39.8276253 31.5837682,34.1286852" stroke="#595959" stroke-width="3.5"></path>
                            <g id="sides" transform="translate(16.166667, 0.129870)">
                                <path d="M-1.0658141e-14,36 C0.941158728,35.9999995 3.68270386,34.802287 3.68270386,28.2770623 C3.68270386,21.7518376 3.68270386,20.1371597 7.04884044,14.6920055 C10.414977,9.24685128 22.6217319,3 7.90542676,3" id="right" stroke="#595959" stroke-width="2.8" transform="translate(7.500000, 19.500000) scale(-1, 1) translate(-7.500000, -19.500000) "></path>
                                <path d="M16,36 C16.9411587,35.9999995 19.6827039,34.802287 19.6827039,28.2770623 C19.6827039,21.7518376 19.6827039,20.1371597 23.0488404,14.6920055 C26.414977,9.24685128 38.6217319,3 23.9054268,3" id="right-copy-2" stroke="#595959" stroke-width="2.8"></path>
                                <g id="earpiece" transform="translate(3.811474, 0.000000)" fill="#E8663E">
                                    <path d="M0.628311264,4.70174003 C1.23158966,5.01443778 2.77809688,4.99989468 3.60043048,4.99989468 C4.69027163,4.99989468 5.54579469,4.52789202 6.2,4.01268934 C6.72818643,3.59672961 7,3.20312146 7,2.61465643 C7,1.84906613 6.2,1.2038068 5.6,1.00317233 C5,0.802537867 3.2,0.229418237 3.2,0.229418237 C3.2,0.229418237 1.28252803,-0.286772802 0.62831127,0.229418246 C0.101424248,0.645143401 0.033887421,2.026999 0.033887421,2.61465646 C0.033887421,3.38202561 -0.213451641,4.26542842 0.628311264,4.70174003 Z" id="Oval-3-Copy-2"></path>
                                    <path d="M17.6283113,4.70174003 C18.2315897,5.01443778 19.7780969,4.99989468 20.6004305,4.99989468 C21.6902716,4.99989468 22.5457947,4.52789202 23.2,4.01268934 C23.7281864,3.59672961 24,3.20312146 24,2.61465643 C24,1.84906613 23.2,1.2038068 22.6,1.00317233 C22,0.802537867 20.2,0.229418237 20.2,0.229418237 C20.2,0.229418237 18.282528,-0.286772802 17.6283113,0.229418246 C17.1014242,0.645143401 17.0338874,2.026999 17.0338874,2.61465646 C17.0338874,3.38202561 16.7865484,4.26542842 17.6283113,4.70174003 Z" id="Oval-3-Copy-2" transform="translate(20.500000, 2.500000) scale(-1, 1) translate(-20.500000, -2.500000) "></path>
                                </g>
                            </g>
                            <g id="bell" transform="translate(0.166667, 54.129870)">
                                <g id="bell-outer">
                                    <use fill-opacity="0.3028476" fill="#C3C3C3" fill-rule="evenodd" xlink:href="#path-5"></use>
                                    <use stroke="#A6A6A6" mask="url(#mask-6)" stroke-width="1" xlink:href="#path-5"></use>
                                </g>
                                <g id="bell-inner">
                                    <use fill="#E8663E" fill-rule="evenodd" xlink:href="#path-7"></use>
                                    <use stroke="#A6A6A6" mask="url(#mask-8)" stroke-width="1" xlink:href="#path-7"></use>
                                </g>
                            </g>
                        </g>
                        <g id="M" transform="translate(51.795764, 6.592852)" stroke="#595959" stroke-width="3.5" stroke-linecap="round" stroke-linejoin="round">
                            <path d="M0.0139546352,79.1892648 L0.0139546352,2.75580948e-15 C0.835263473,-7.13845062e-15 -0.160262391,-1.70327109e-14 0.56149386,-7.13845079e-15 C1.1458002,1.13565419 20.6476288,45.8804905 20.6476288,45.8804905 L21.6352129,45.8804905" id="M-left"></path>
                            <path d="M42.2779789,79.1892648 L42.2779789,1.3992597e-14 C41.4566701,4.09833685e-15 42.4521959,-5.79592341e-15 41.7304397,4.09833669e-15 C41.1461333,1.13565419 21.6443048,45.8804905 21.6443048,45.8804905 L20.6311854,45.8804905" id="M-right"></path>
                        </g>
                    </g>
                </g>
            </g>
        </g>
    </g>
</svg>
