<svg viewBox="0 0 42 39" version="1.1" xmlns="http://www.w3.org/2000/svg" xmlns:xlink="http://www.w3.org/1999/xlink">
  <defs></defs>
  <g id="Page-1" stroke="none" stroke-width="1" fill="none" fill-rule="evenodd">
      <g id="SVGs" transform="translate(-177.000000, -70.000000)" stroke="#0189C3" stroke-width="0.5">
          <path d="M179.04712,82.9116808 L186.900523,82.9116808 L186.900523,108 L179.04712,108 L179.04712,82.9116808 L179.04712,82.9116808 Z M182.739579,79.7492877 L182.682523,79.7492877 C179.842314,79.7492877 178,77.82142 178,75.3792255 C178,72.8883477 179.897657,71 182.794923,71 C185.690476,71 187.471741,72.883766 187.528796,75.372353 C187.528796,77.8156929 185.690476,79.7492877 182.739579,79.7492877 L182.739579,79.7492877 L182.739579,79.7492877 Z M218,108 L209.174775,108 L209.174775,94.9791277 C209.174775,91.5708994 207.796293,89.2450299 204.759334,89.2450299 C202.437353,89.2450299 201.147677,90.8142778 200.545829,92.3280934 C200.320702,92.8698443 200.355206,93.6264659 200.355206,94.3848022 L200.355206,108 L191.612566,108 C191.612566,108 191.72626,84.9350266 191.612566,82.8377438 L200.355206,82.8377438 L200.355206,86.786579 C200.872208,85.0601779 203.664807,82.5954418 208.124934,82.5954418 C213.654699,82.5954418 218,86.215684 218,94.008206 L218,108 L218,108 L218,108 Z" id="Linkedin-border"></path>
      </g>
  </g>
</svg>
