<svg viewBox="0 0 44 44" version="1.1" xmlns="http://www.w3.org/2000/svg" xmlns:xlink="http://www.w3.org/1999/xlink">
    <defs></defs>
    <g class="svg" id="Page-1" stroke="none" stroke-width="1" fill="none" fill-rule="evenodd">
        <g id="location" fill="#61594F">
            <path d="M22,14 C17.58,14 14,17.58 14,22 C14,26.42 17.58,30 22,30 C26.42,30 30,26.42 30,22 C30,17.58 26.42,14 22,14 L22,14 Z M39.88,20 C38.96,11.66 32.34,5.04 24,4.12 L24,0 L20,0 L20,4.12 C11.66,5.04 5.04,11.66 4.12,20 L0,20 L0,24 L4.12,24 C5.04,32.34 11.66,38.96 20,39.88 L20,44 L24,44 L24,39.88 C32.34,38.96 38.96,32.34 39.88,24 L44,24 L44,20 L39.88,20 L39.88,20 Z M22,36 C14.27,36 8,29.73 8,22 C8,14.27 14.27,8 22,8 C29.73,8 36,14.27 36,22 C36,29.73 29.73,36 22,36 L22,36 Z" id="location-c6c6c6"></path>
        </g>
    </g>
</svg>
