<?xml version="1.0" encoding="UTF-8" standalone="no"?>
<svg viewBox="0 0 40 35" version="1.1" xmlns="http://www.w3.org/2000/svg" xmlns:xlink="http://www.w3.org/1999/xlink">
    <defs></defs>
    <g id="Page-1" stroke="none" stroke-width="1" fill="none" fill-rule="evenodd">
        <g id="SVGs" transform="translate(-234.000000, -110.000000)">
            <g id="medium" transform="translate(234.000000, 110.000000)">
                <polygon id="Shape" fill="#64FAAA" points="26.6296997 28.4699707 39.7058824 34.8016997 39.9019604 34.8017006 39.9019608 34.6033994 39.9786987 6.56866455"></polygon>
                <path d="M17.9411765,14.4759207 C17.7686003,14.2444566 27.0588235,0.0991501416 27.0588235,0.0991501416 L39.9863899,6.58142086 C39.9863899,6.58142086 27.1280125,28.2067405 26.5776365,28.4850468 C26.5191772,28.5146077 19.2334732,16.2091851 17.9411765,14.4759207 Z" id="Shape" fill="#38E388"></path>
                <polygon id="Shape" fill="#3DC77E" points="13.2047729 6.61547852 13.4313725 6.84135977 26.5686275 28.4560907 13.0784302 21.8130309"></polygon>
                <path d="M13.2352941,6.64305949 L13.3333333,6.74220963 C13.3333333,6.74220963 13.2352941,32.6213316 13.2352941,34.5042493 L13.2352941,34.9117489 C12.3294067,34.7598032 0.0980392157,28.3569405 0.0980392157,28.3569405 L0.0980392157,28.1586402 L0,28.1586402 L0,0.396600567 L0.0980392157,0.396600567 L0.196078431,0.297450425 L13.2352941,6.64305949 Z" id="Shape" fill="#24AB79"></path>
            </g>
        </g>
    </g>
</svg>
