<svg viewBox="0 0 313 313" version="1.1" xmlns="http://www.w3.org/2000/svg" xmlns:xlink="http://www.w3.org/1999/xlink">
    <defs></defs>
    <g id="TN-graphics" stroke="none" stroke-width="1" fill="none" fill-rule="evenodd">
        <g id="JM-TN-logo" transform="translate(-687.000000, -133.000000)">
            <g id="TN-flag-circle" transform="translate(687.000000, 133.000000)">
                <g id="TN-circle">
                    <circle id="TN-flag-circle-Copy" fill="#FFFFFF" cx="156.5" cy="156.5" r="156.5"></circle>
                    <circle id="TN-flag-circle" fill="#2B3971" cx="156" cy="156" r="142"></circle>
                </g>
                <g id="TN-stars" transform="translate(38.000000, 39.000000)" fill="#F8F8F8">
                    <polygon id="TN-star" points="54.5 0.5 46.5 49 0 56.5 42 77.5 35.5 125.5 70.5 92 113.5 112.5 92.5 70.5 126 37.5 78.5 43.5"></polygon>
                    <polygon id="TN-star" transform="translate(185.617780, 100.232662) rotate(-96.000000) translate(-185.617780, -100.232662) " points="177.11778 37.7326616 169.11778 86.2326616 122.61778 93.7326616 164.61778 114.732662 158.11778 162.732662 193.11778 129.232662 236.11778 149.732662 215.11778 107.732662 248.61778 74.7326616 201.11778 80.7326616"></polygon>
                    <polygon id="TN-star" transform="translate(100.742912, 187.187908) rotate(-193.000000) translate(-100.742912, -187.187908) " points="92.2429116 124.687908 84.2429116 173.187908 37.7429116 180.687908 79.7429116 201.687908 73.2429116 249.687908 108.242912 216.187908 151.242912 236.687908 130.242912 194.687908 163.742912 161.687908 116.242912 167.687908"></polygon>
                </g>
            </g>
        </g>
    </g>
</svg>
