<svg viewBox="0 0 41 34" version="1.1" xmlns="http://www.w3.org/2000/svg" xmlns:xlink="http://www.w3.org/1999/xlink">
  <defs></defs>
  <g id="svgs" stroke="none" stroke-width="1" fill="#44BBFF" fill-rule="evenodd">
      <g id="SVGs" transform="translate(-430.000000, -59.000000)" stroke="#44BBFF" stroke-width="0.5">
          <path d="M470,63.7884552 C468.529728,64.4305379 466.946314,64.8649044 465.287662,65.0598124 C466.983085,64.0602127 468.284211,62.4781163 468.895174,60.5925204 C467.308933,61.5174982 465.554676,62.1890956 463.682186,62.5505107 C462.18872,60.9806658 460.054308,60 457.692482,60 C453.163433,60 449.488601,63.6180499 449.488601,68.0775456 C449.488601,68.711832 449.558748,69.3266275 449.700175,69.9169204 C442.880013,69.580008 436.83487,66.36681 432.784975,61.4757322 C432.078407,62.6730244 431.673927,64.0602127 431.673927,65.5409568 C431.673927,68.3409498 433.122702,70.8146111 435.324998,72.2647269 C433.980313,72.2240746 432.713696,71.8570906 431.606041,71.2556602 L431.606041,71.3553417 C431.606041,75.2707656 434.43401,78.5357534 438.19087,79.2758471 C437.501838,79.4657432 436.777734,79.5604128 436.027606,79.5604128 C435.499236,79.5604128 434.983312,79.5119642 434.484924,79.4172946 C435.528088,82.6254807 438.558013,84.9627064 442.149686,85.0245201 C439.340952,87.1924542 435.80189,88.4833023 431.957912,88.4833023 C431.295469,88.4833023 430.640946,88.447662 430,88.3719263 C433.631838,90.6618171 437.945919,92 442.579623,92 C457.676642,92 465.928608,79.6923933 465.928608,69.0158885 C465.928608,68.6644971 465.921254,68.3147764 465.906545,67.9706245 C467.510324,66.8306911 468.903095,65.4078624 470,63.7884552" id="Twitter-border"></path>
      </g>
  </g>
</svg>
