<svg viewBox="0 0 42 30" version="1.1" xmlns="http://www.w3.org/2000/svg" xmlns:xlink="http://www.w3.org/1999/xlink">
  <defs>
    <path d="M3.10906744,26.7786732 C0.333501982,25.1649347 0.0152855023,18.9662227 -4.75952611e-13,14.4631131 C-4.75952611e-13,7.51983897 0.266770284,5.15546266 1.41721713,2.80773688 C2.31756684,1.12603261 3.33462855,0.559914333 6.50252567,0.243554122 C9.67042279,-0.072806089 25.6099472,-0.0894566264 31.9957609,0.243554122 C40.9158923,0.809672394 39.8988306,4.97230675 39.9988694,13.2309733 C40.0155426,21.772699 39.8654843,23.6375592 38.3482283,25.8187796 C36.8309723,28 37.4645265,28 20.8914478,28 C4.73966109,28 5.20970058,28 3.10906744,26.7786732 Z" id="path-1"></path>
    <mask id="mask-2" maskContentUnits="userSpaceOnUse" maskUnits="objectBoundingBox" x="-1" y="-1" width="42" height="30">
        <rect x="-1" y="-1" width="42" height="30" fill="white"></rect>
        <use xlink:href="#path-1" fill="black"></use>
    </mask>
  </defs>
  <g id="Page-1" stroke="none" stroke-width="1" fill="none" fill-rule="evenodd">
    <g id="SVGs" transform="translate(-120.000000, -79.000000)">
        <g id="youtube-border" transform="translate(121.000000, 80.000000)">
            <use id="outer" stroke="#CC5256" mask="url(#mask-2)" stroke-width="2" xlink:href="#path-1"></use>
            <path d="M26.510297,13.9302959 C22.775513,11.4493658 18.7739587,8.81858089 16.7565084,7.58644112 C16.8398742,11.0497529 16.7565084,17.3769571 16.7565084,20.4906076 C19.7243279,18.6590485 24.2260764,15.5953496 26.4436044,13.9469464 L26.4436044,13.9469464 L26.510297,13.9302959 Z" id="triangle" stroke="#FFFFFF"></path>
        </g>
    </g>
  </g>
</svg>
