<?xml version="1.0" encoding="UTF-8" standalone="no"?>
<svg viewBox="0 0 290 73" version="1.1" xmlns="http://www.w3.org/2000/svg" xmlns:xlink="http://www.w3.org/1999/xlink">
    <defs></defs>
    <g id="Logos" stroke="none" stroke-width="1" fill="none" fill-rule="evenodd">
        <g id="about-map" transform="translate(-2.000000, -22.000000)">
            <g transform="translate(148.500000, 49.000000) rotate(-355.000000) translate(-148.500000, -49.000000) translate(5.000000, 11.000000)">
                <g id="TN+NC" transform="translate(-0.000000, 0.000000)" stroke="#2B333D" stroke-width="0.5" fill-opacity="0.665364583" fill="#F0F0F0">
                    <path d="M272.337975,0.422 L274.216148,5.56418182 L278.123901,12.6490455 L280.784346,15.2991364 L281.494519,17.7732727 L278.834074,17.9492273 L279.720889,18.6566364 L279.360395,23.2565909 L276.523309,24.6678182 L275.813136,26.9767727 L274.389185,30.1619091 L270.30479,31.9286364 L267.644346,31.5767273 L266.040148,31.4007727 L264.259309,29.9787727 L264.627012,31.4007727 L264.627012,32.4600909 L266.753926,32.4600909 L267.647951,33.8713182 L265.513827,40.7802273 L270.131753,40.7802273 L270.834716,42.5469545 L273.318519,40.0656364 L274.742469,39.5413636 L272.615556,43.4339091 L269.241333,48.7376818 L267.813778,48.7376818 L266.573679,48.2062273 L263.559951,48.9208182 L257.871358,51.5709091 L250.766025,57.4061364 L247.042123,62.5411364 L244.90079,69.6188182 L244.374469,72.2760909 L239.219407,72.8003636 L232.748543,75.235 L221.814765,66.2577273 L207.964593,57.9411818 L204.759802,57.065 L190.90963,58.6485909 L186.115062,59.1800455 L184.341432,55.6394091 L181.85763,53.5135909 L163.742815,54.0450455 L155.743457,54.9284091 L145.801037,59.8874545 L139.048988,62.7206818 L137.275358,63.0654091 L130.883802,64.1390909 L123.244938,65.0152727 L115.789926,65.5467273 L116.14321,60.2357727 L118.100691,58.645 L121.11442,57.9375909 L121.824593,53.8690909 L126.442519,50.8599091 L130.710765,49.2691364 L135.328691,45.3765909 L140.123259,43.0748182 L140.833432,39.7137273 L145.094469,35.4620909 L145.804642,35.2933182 C145.804642,35.2933182 145.804642,36.5285909 146.691457,36.5285909 C147.578272,36.5285909 148.82558,36.8876818 148.82558,36.8876818 L151.309383,32.9879545 L153.612938,32.2877273 L156.103951,32.6396364 L157.88479,28.7470909 L161.07516,25.9210455 L161.608691,23.6192727 L161.608691,19.2850455 L166.579901,20.0786364 L174.424247,18.6602273 L191.807259,16.5344091 L210.635852,13.7011818 L233.264049,9.57163636 L254.324099,5.399 L266.934173,2.20668182 L272.337975,0.422 L272.337975,0.422 Z M276.613432,36.525 L279.457728,33.7815455 L282.922074,30.9483182 L284.62,30.2409091 L284.789432,28.0325 L284.079259,21.3067273 L282.482272,18.7464091 L281.779309,16.7139545 L282.576,16.4482273 L285.596938,22.4594091 L286.040346,27.3250909 L285.856494,31.0416818 L282.125383,32.7186364 L279.021531,35.3759091 L277.781432,36.7009545 L276.613432,36.525 L276.613432,36.525 Z" id="NC_1_"></path>
                    <path d="M123.958716,24.6642273 L66.9502222,30.1547273 L49.6357037,32.0974091 L44.5527407,32.6575909 L40.3061235,32.6288636 L40.3061235,36.8805 L31.0702716,37.4047727 L23.4314074,38.1121818 L11.250321,38.1696364 L10.9475062,44.5578636 L8.6042963,51.4236818 L7.512,54.7273182 L6.02676543,59.5175909 L5.67348148,62.3508182 L1.23219753,64.8249545 L2.82918519,68.7175 L1.7657284,73.4934091 L0.0750123457,75.3535 L9.04409877,75.2637273 L35.5115556,73.1450909 L41.3695802,72.9619545 L50.2485432,72.4376818 L80.8003951,69.6044545 L91.9829136,68.7210909 L101.225975,67.6617727 L110.461827,66.4193182 L115.793531,65.5359545 L116.146815,60.225 L118.104296,58.6342273 L121.118025,57.9268182 L121.828198,53.8583182 L126.446123,50.8491364 L130.71437,49.2583636 L135.332296,45.3658182 L140.126864,43.0640455 L140.837037,39.7029545 L145.098074,35.4513182 L145.808247,35.2825455 C145.808247,35.2825455 145.808247,36.5178182 146.695062,36.5178182 C147.581877,36.5178182 148.829185,36.8769091 148.829185,36.8769091 L151.312988,32.9771818 L153.616543,32.2769545 L156.107556,32.6288636 L157.888395,28.7363182 L161.078765,25.9102727 L161.612296,23.6085 L161.810568,19.303 L159.305136,19.3604545 L156.637481,21.4862727 L147.94237,21.6622273 L134.762716,23.7449545 L123.958716,24.6642273 L123.958716,24.6642273 Z" id="TN_1_"></path>
                </g>
                <polygon id="home" fill="#3A3A3B" transform="translate(103.500000, 58.500000) rotate(-7.000000) translate(-103.500000, -58.500000) " points="101.8 66 101.8 60.7058824 105.2 60.7058824 105.2 66 109.45 66 109.45 58.9411765 112 58.9411765 103.5 51 95 58.9411765 97.55 58.9411765 97.55 66"></polygon>
                <path d="M185,46.25 C185,50.1875 190.5,56 190.5,56 C190.5,56 196,50.1875 196,46.25 C196,43.35125 193.536786,41 190.5,41 C187.463214,41 185,43.35125 185,46.25 Z M190.5,48.125 C189.415714,48.125 188.535714,47.285 188.535714,46.25 C188.535714,45.215 189.415714,44.375 190.5,44.375 C191.584286,44.375 192.464286,45.215 192.464286,46.25 C192.464286,47.285 191.584286,48.125 190.5,48.125 L190.5,48.125 Z" id="Shape" fill="#3A3A3B"></path>
                <text id="Home" transform="translate(80.427936, 64.705101) rotate(-4.000000) translate(-80.427936, -64.705101) " font-family="AvenirNext-Regular, Avenir Next" font-size="10" font-weight="normal" letter-spacing="-0.699999988" fill="#212225">
                    <tspan x="67.4279356" y="67.7051011">Hom</tspan>
                    <tspan x="87.4479356" y="67.7051011">e</tspan>
                </text>
                <text id="Currently" transform="translate(214.671779, 50.386270) rotate(-6.000000) translate(-214.671779, -50.386270) " font-family="AvenirNext-Regular, Avenir Next" font-size="10" font-weight="normal" letter-spacing="-0.699999988" fill="#212225">
                    <tspan x="196.671779" y="53.3862705">Currently</tspan>
                </text>
            </g>
        </g>
    </g>
</svg>
