<svg width="68px" height="88px" viewBox="0 0 68 88" version="1.1" xmlns="http://www.w3.org/2000/svg" xmlns:xlink="http://www.w3.org/1999/xlink">
    <defs></defs>
    <g id="Icons" stroke="none" stroke-width="1" fill="none" fill-rule="evenodd">
        <g id="WEB-DEV-svg" transform="translate(-451.000000, -150.000000)" fill="#FFFFFF">
            <g id="blog" transform="translate(451.000000, 150.000000)">
                <g id="Layer_1">
                    <path d="M64,0 L4,0 C1.8,0 0,1.8 0,4 L0,84 C0,86.2 1.8,88 4,88 L64,88 C66.2,88 68,86.2 68,84 L68,4 C68,1.8 66.2,0 64,0 L64,0 Z M60,80 L8,80 L8,8 L60,8 L60,80 L60,80 Z M16.5,63 C16.5,60.8 18.3,59 20.5,59 L47.5,59 C49.7,59 51.5,60.8 51.5,63 C51.5,65.2 49.7,67 47.5,67 L20.5,67 C18.3,67 16.5,65.2 16.5,63 L16.5,63 Z M17.1,44 C17.1,41.8 18.9,40 21.1,40 L47.4,40 C49.6,40 51.4,41.8 51.4,44 C51.4,46.2 49.6,48 47.4,48 L21.1,48 C18.9,48 17.1,46.2 17.1,44 L17.1,44 Z M17.1,25 C17.1,22.8 18.9,21 21.1,21 L47.4,21 C49.6,21 51.4,22.8 51.4,25 C51.4,27.2 49.6,29 47.4,29 L21.1,29 C18.9,29 17.1,27.2 17.1,25 L17.1,25 Z" id="blog"></path>
                </g>
            </g>
        </g>
    </g>
</svg>
