<?xml version="1.0" encoding="UTF-8" standalone="no"?>
<svg width="251px" height="514px" viewBox="0 0 251 514" version="1.1" xmlns="http://www.w3.org/2000/svg" xmlns:xlink="http://www.w3.org/1999/xlink">
    <!-- Generator: Sketch 3.7 (28169) - http://www.bohemiancoding.com/sketch -->
    <title>Facebook-border</title>
    <desc>Created with Sketch.</desc>
    <defs></defs>
    <g id="Icons" stroke="none" stroke-width="1" fill="none" fill-rule="evenodd">
        <g id="SOCIAL-ICONS-svg" transform="translate(-3050.000000, -647.000000)" stroke="#3B5997" stroke-width="2" fill="#FFFFFF">
            <path d="M3051,817.312726 L3104.14026,817.312726 L3104.14026,765.872643 C3104.14026,743.184462 3104.71549,708.202014 3121.25174,686.536543 C3138.68361,663.594498 3162.596,648 3203.74365,648 C3270.77698,648 3299,657.523523 3299,657.523523 L3285.71858,735.938461 C3285.71858,735.938461 3263.57559,729.56285 3242.91802,729.56285 C3222.2459,729.56285 3203.74365,736.93941 3203.74365,757.516894 L3203.74365,817.312726 L3288.48554,817.312726 L3282.56569,893.907096 L3203.74365,893.907096 L3203.74365,1160 L3104.14026,1160 L3104.14026,893.907096 L3051,893.907096 L3051,817.312726" id="Facebook-border"></path>
        </g>
    </g>
</svg>