<svg width="92px" height="92px" viewBox="0 0 92 92" version="1.1" xmlns="http://www.w3.org/2000/svg" xmlns:xlink="http://www.w3.org/1999/xlink">
    <defs></defs>
    <g id="Icons" stroke="none" stroke-width="1" fill="none" fill-rule="evenodd">
        <g id="WEB-DEV-svg" transform="translate(-145.000000, -880.000000)" fill="#FFFFFF">
            <g id="home" transform="translate(144.000000, 879.000000)">
                <g id="Layer_1">
                    <path d="M89,50 C88,50 87,49.6 86.2,48.9 L47,10.6 L7.8,48.9 C6.2,50.4 3.7,50.4 2.1,48.8 C0.6,47.2 0.6,44.7 2.2,43.1 L44.2,2.1 C45.8,0.6 48.2,0.6 49.8,2.1 L91.8,43.1 C93.4,44.6 93.4,47.2 91.9,48.8 C91.1,49.6 90,50 89,50 L89,50 Z M80.2,89 L80.2,49.9 C80.2,47.7 78.4,45.9 76.2,45.9 C74,45.9 72.2,47.7 72.2,49.9 L72.2,85 L59.7,85 L59.7,63.6 C59.7,60.7 57.3,58.3 54.4,58.3 L39.6,58.3 C36.7,58.3 34.3,60.7 34.3,63.6 L34.3,85 L21.8,85 L21.8,49.9 C21.8,47.7 20,45.9 17.8,45.9 C15.6,45.9 13.8,47.7 13.8,49.9 L13.8,89 C13.8,91.2 15.6,93 17.8,93 L38.3,93 C40.5,93 42.3,91.2 42.3,89 L42.3,66.3 L51.8,66.3 L51.8,89 C51.8,91.2 53.6,93 55.8,93 L76.3,93 C78.5,93 80.2,91.2 80.2,89 L80.2,89 Z" id="family"></path>
                </g>
            </g>
        </g>
    </g>
</svg>
