<?xml version="1.0" encoding="UTF-8" standalone="no"?>
<svg width="514px" height="514px" viewBox="0 0 514 514" version="1.1" xmlns="http://www.w3.org/2000/svg" xmlns:xlink="http://www.w3.org/1999/xlink">
    <!-- Generator: Sketch 3.7 (28169) - http://www.bohemiancoding.com/sketch -->
    <title>Instagram-border</title>
    <desc>Created with Sketch.</desc>
    <defs></defs>
    <g id="Icons" stroke="none" stroke-width="1" fill="none" fill-rule="evenodd">
        <g id="SOCIAL-ICONS-svg" transform="translate(-2918.000000, -2007.000000)" stroke="#3A241D" stroke-width="2" fill="#FFFFFF">
            <path d="M3332.0483,2008 L3017.95896,2008 C2963.39118,2008 2919,2052.37667 2919,2106.9372 L2919,2421.05555 C2919,2475.61608 2963.39118,2520 3017.95896,2520 L3332.0483,2520 C3386.60882,2520 3431,2475.61608 3431,2421.05555 L3431,2106.9372 C3431,2052.37667 3386.60882,2008 3332.0483,2008 L3332.0483,2008 Z M3360.67024,2067.01737 L3372.02618,2066.97382 L3372.02618,2153.81843 L3285.19694,2154.09424 L3284.90576,2067.25689 L3360.67024,2067.01737 L3360.67024,2067.01737 Z M3102.31818,2211.91531 C3118.76021,2189.12819 3145.4694,2174.19895 3175.65923,2174.19895 C3205.84907,2174.19895 3232.55826,2189.12819 3248.99301,2211.91531 C3259.74077,2226.79358 3266.14136,2244.97084 3266.14136,2264.67744 C3266.14136,2314.56295 3225.53873,2355.14136 3175.65923,2355.14136 C3125.77974,2355.14136 3085.19895,2314.56295 3085.19895,2264.67744 C3085.19895,2244.97084 3091.60683,2226.79358 3102.31818,2211.91531 L3102.31818,2211.91531 Z M3380.06806,2421.35626 C3380.06806,2448.42125 3358.12256,2470.40838 3331.09432,2470.40838 L3017.5726,2470.40838 C2990.54437,2470.40838 2968.59162,2448.42125 2968.59162,2421.35626 L2968.59162,2211.72775 L3044.89045,2211.72775 C3038.28725,2227.96964 3034.58743,2245.69862 3034.58743,2264.28359 C3034.58743,2341.47429 3097.2744,2404.30191 3174.33346,2404.30191 C3251.39253,2404.30191 3314.07226,2341.47429 3314.07226,2264.28359 C3314.07226,2245.69862 3310.35071,2227.96964 3303.77647,2211.72775 L3380.06806,2211.72775 L3380.06806,2421.35626 L3380.06806,2421.35626 Z" id="Instagram-border"></path>
        </g>
    </g>
</svg>