<?xml version="1.0" encoding="UTF-8" standalone="no"?>
<svg viewBox="0 0 20 42" version="1.1" xmlns="http://www.w3.org/2000/svg" xmlns:xlink="http://www.w3.org/1999/xlink">
    <defs></defs>
    <g id="svgs" stroke="none" stroke-width="1" fill="none" fill-rule="evenodd">
        <g id="SVGs" transform="translate(-271.000000, -59.000000)" stroke="#000000" stroke-width="0.588235294">
            <path d="M272,62.3529412 L274.407127,62.3529412 C274.407127,62.3529412 275.630139,62.381026 275.98424,62.545833 C276.90652,62.9750841 276.8,63.5294118 276.8,63.5294118 L276.8,96.4705882 C276.8,96.4705882 276.714045,96.9333421 275.98424,97.2921551 C275.254435,97.6509681 274.407127,97.6470588 274.407127,97.6470588 L272,97.6470588 L272,100 L290,100 L290,97.6470588 L287.591048,97.6470588 C287.591048,97.6470588 286.644789,97.5469619 286.100439,97.2921551 C285.556089,97.0373483 285.2,96.4705882 285.2,96.4705882 L285.2,63.5294118 C285.2,63.5294118 285.189104,62.9510529 286.235859,62.545833 C286.734132,62.3529413 287.591048,62.3529412 287.591048,62.3529412 L290,62.3529412 L290,60 L272,60 L272,62.3529412 Z" id="Instapaper"></path>
        </g>
    </g>
</svg>
