<?xml version="1.0" encoding="UTF-8" standalone="no"?>
<svg width="142px" height="187px" viewBox="0 0 142 187" version="1.1" xmlns="http://www.w3.org/2000/svg" xmlns:xlink="http://www.w3.org/1999/xlink">
    <defs>
        <linearGradient x1="50%" y1="0%" x2="50%" y2="100%" id="linearGradient-1">
            <stop stop-color="#FCFCFC" stop-opacity="0.92" offset="0%"></stop>
            <stop stop-color="#FBF4BA" stop-opacity="0.92" offset="100%"></stop>
        </linearGradient>
        <linearGradient x1="50%" y1="0%" x2="50%" y2="100%" id="linearGradient-2">
            <stop stop-color="#DBF2FF" stop-opacity="0.55" offset="0%"></stop>
            <stop stop-color="#FFFFFF" stop-opacity="0.5" offset="100%"></stop>
        </linearGradient>
        <linearGradient x1="50%" y1="0%" x2="50%" y2="100%" id="linearGradient-3">
            <stop stop-color="#FAFAFA" offset="0%"></stop>
            <stop stop-color="#E1E1E1" offset="100%"></stop>
        </linearGradient>
        <path d="M98.0005013,154.792783 C98.1674878,122.170699 140,102.716988 140,55.7499326 C140,9.19621952 97.8894145,0.00242017823 70.0002589,-8.64078501e-08 C42.1111034,-0.00242035104 0,9.19621952 0,55.7499326 C0,105.3676 41.0161122,126.340924 41.0161122,154.988655 C41.0071142,155.321167 41.0000184,155.658273 41,156 C40.9998922,158 43,163.328525 69.5,163.328525 C96,163.328526 97.8750074,158.999822 98,156 C98.0169732,155.592643 98.0169496,155.190203 98.0005013,154.792781 Z" id="path-4"></path>
    </defs>
    <g id="Logos" stroke="none" stroke-width="1" fill="none" fill-rule="evenodd">
        <g id="JM-bulb" transform="translate(-466.000000, -11.000000)">
            <g id="JM-bulb-on" transform="translate(467.000000, 12.000000)">
                <g id="Group" transform="translate(42.000000, 164.961039)" fill="#828282">
                    <path d="M28.0243842,3.06304116 C45.5363618,3.06304117 54.8333333,-0.606286764 54.8333333,1.22837718 C54.8333333,3.06304113 38.411794,9.02489016 28.0243842,9.02489123 C17.6369743,9.0248923 3.9173541e-09,3.12640353 0,1.22837718 C-3.91735437e-09,-0.66964918 10.5124066,3.06304116 28.0243842,3.06304116 Z" id="Path-55"></path>
                    <path d="M28.0243842,10.5201533 C45.5363618,10.5201533 54.8333333,4.5476112 54.8333333,6.38227515 C54.8333333,8.2169391 38.411794,14.1787881 28.0243842,14.1787892 C17.6369743,14.1787903 3.9173541e-09,8.2803015 0,6.38227514 C-3.91735437e-09,4.48424879 10.5124066,10.5201533 28.0243842,10.5201533 Z" id="Path-55-Copy-2"></path>
                    <path d="M28.0243842,15.0266563 C45.5363618,15.0266563 54.8333333,9.05411421 54.8333333,10.8887782 C54.8333333,12.7234421 38.411794,17.9408829 28.0243842,17.9408839 C17.6369743,17.940885 3.9173541e-09,12.7868045 0,10.8887781 C-3.91735437e-09,8.99075179 10.5124066,15.0266563 28.0243842,15.0266563 Z" id="Path-55-Copy-3"></path>
                    <path d="M28.0243842,18.5331498 C45.5363618,18.5331498 54.8333333,12.5606077 54.8333333,14.3952717 C54.8333333,16.2299356 38.411794,20.8048283 28.0243842,20.8048294 C17.6369743,20.8048305 3.9173541e-09,16.293298 0,14.3952717 C-3.91735437e-09,12.4972453 10.5124066,18.5331498 28.0243842,18.5331498 Z" id="Path-55-Copy-4"></path>
                </g>
                <g id="Group-2">
                    <g id="BULB">
                        <use fill="#FFFFFF" xlink:href="#path-4"></use>
                        <use fill-opacity="0.4" fill="url(#linearGradient-1)" xlink:href="#path-4"></use>
                        <use stroke="url(#linearGradient-3)" stroke-width="1" fill-opacity="0.100000001" fill="url(#linearGradient-2)" xlink:href="#path-4"></use>
                    </g>
                </g>
            </g>
        </g>
    </g>
</svg>
