<svg width="44px" height="41px" viewBox="0 0 44 41" version="1.1" xmlns="http://www.w3.org/2000/svg" xmlns:xlink="http://www.w3.org/1999/xlink">
    <defs></defs>
    <g id="Page-1" stroke="none" stroke-width="1" fill="none" fill-rule="evenodd">
        <g id="linkedin" stroke="#0189C3" stroke-width="0.5" fill="#0189C3">
            <path d="M3.04712031,13.9116808 L10.9005234,13.9116808 L10.9005234,39 L3.04712031,39 L3.04712031,13.9116808 L3.04712031,13.9116808 Z M6.73957891,10.7492877 L6.68252344,10.7492877 C3.84231406,10.7492877 2,8.82141998 2,6.37922553 C2,3.88834774 3.89765703,2 6.79492266,2 C9.69047578,2 11.4717406,3.88376604 11.5287961,6.37235298 C11.5287961,8.81569285 9.69047578,10.7492877 6.73957891,10.7492877 L6.73957891,10.7492877 L6.73957891,10.7492877 Z M42,39 L33.174775,39 L33.174775,25.9791277 C33.174775,22.5708994 31.796293,20.2450299 28.7593344,20.2450299 C26.4373531,20.2450299 25.1476773,21.8142778 24.5458289,23.3280934 C24.3207016,23.8698443 24.3552062,24.6264659 24.3552062,25.3848022 L24.3552062,39 L15.6125656,39 C15.6125656,39 15.7262602,15.9350266 15.6125656,13.8377438 L24.3552062,13.8377438 L24.3552062,17.786579 C24.8722078,16.0601779 27.664807,13.5954418 32.1249336,13.5954418 C37.6546992,13.5954418 42,17.215684 42,25.008206 L42,39 L42,39 L42,39 Z" id="Linkedin-border"></path>
        </g>
    </g>
</svg>
