<?xml version="1.0" encoding="UTF-8" standalone="no"?>
<svg width="45px" height="42px" viewBox="0 0 45 42" version="1.1" xmlns="http://www.w3.org/2000/svg" xmlns:xlink="http://www.w3.org/1999/xlink">
    <!-- Generator: Sketch 3.7 (28169) - http://www.bohemiancoding.com/sketch -->
    <title>linkedin-fill</title>
    <desc>Created with Sketch.</desc>
    <defs></defs>
    <g id="svgs" stroke="none" stroke-width="1" fill="none" fill-rule="evenodd">
        <g id="SVGs" transform="translate(-187.000000, -199.000000)" stroke-width="0.540540541" stroke="#0189C3" fill="#0189C3">
            <g id="linkedin-fill" transform="translate(174.000000, 185.000000)">
                <path d="M15.1256543,27.8774928 L23.5680627,27.8774928 L23.5680627,55 L15.1256543,55 L15.1256543,27.8774928 L15.1256543,27.8774928 Z M19.0950473,24.4586894 L19.0337127,24.4586894 C15.9804876,24.4586894 14,22.3745081 14,19.7342979 C14,17.041457 16.0399813,15 19.1545419,15 C22.2672615,15 24.1821212,17.0365038 24.2434558,19.7268681 C24.2434558,22.3683166 22.2672615,24.4586894 19.0950473,24.4586894 L19.0950473,24.4586894 L19.0950473,24.4586894 Z M57,55 L47.5128831,55 L47.5128831,40.9233813 C47.5128831,37.2388102 46.0310149,34.7243566 42.7662845,34.7243566 C40.2701546,34.7243566 38.8837531,36.4208409 38.2367661,38.0573983 C37.9947542,38.6430749 38.0318467,39.4610443 38.0318467,40.2808672 L38.0318467,55 L28.633508,55 C28.633508,55 28.7557297,30.0648936 28.633508,27.7975609 L38.0318467,27.7975609 L38.0318467,32.0665719 C38.5876234,30.2001923 41.5896676,27.5356128 46.3843036,27.5356128 C52.3288017,27.5356128 57,31.4493881 57,39.8737362 L57,55 L57,55 L57,55 Z"></path>
            </g>
        </g>
    </g>
</svg>