<?xml version="1.0" encoding="UTF-8" standalone="no"?>
<svg width="46px" height="40px" viewBox="0 0 46 40" version="1.1" xmlns="http://www.w3.org/2000/svg" xmlns:xlink="http://www.w3.org/1999/xlink">
    <!-- Generator: Sketch 3.7 (28169) - http://www.bohemiancoding.com/sketch -->
    <title>medium-fill</title>
    <desc>Created with Sketch.</desc>
    <defs></defs>
    <g id="svgs" stroke="none" stroke-width="1" fill="none" fill-rule="evenodd">
        <g id="SVGs" transform="translate(-97.000000, -200.000000)">
            <g id="medium-fill" transform="translate(85.000000, 185.000000)">
                <g transform="translate(12.000000, 15.000000)" id="Shape">
                    <polygon fill="#64FAAA" points="30.6241547 32.5371094 45.6617647 39.7733711 45.8872544 39.7733721 45.8872549 39.5467422 45.9755035 7.5070452"></polygon>
                    <path d="M20.6323529,16.5439093 C20.4338903,16.279379 31.1176471,0.113314448 31.1176471,0.113314448 L45.9843483,7.52162384 C45.9843483,7.52162384 31.1972144,32.2362749 30.5642819,32.5543392 C30.4970538,32.5881231 22.1184942,18.524783 20.6323529,16.5439093 Z" fill="#38E388"></path>
                    <polygon fill="#3DC77E" points="15.1854889 7.56054688 15.4460784 7.81869688 30.5539216 32.5212465 15.0401947 24.9291781"></polygon>
                    <path d="M15.2205882,7.59206799 L15.3333333,7.70538244 C15.3333333,7.70538244 15.2205882,37.2815218 15.2205882,39.4334278 L15.2205882,39.8991416 C14.1788177,39.7254893 0.112745098,32.407932 0.112745098,32.407932 L0.112745098,32.1813031 L0,32.1813031 L0,0.45325779 L0.112745098,0.45325779 L0.225490196,0.339943343 L15.2205882,7.59206799 Z" fill="#24AB79"></path>
                </g>
            </g>
        </g>
    </g>
</svg>