<?xml version="1.0" encoding="UTF-8" standalone="no"?>
<svg width="78px" height="72px" viewBox="0 0 78 72" version="1.1" xmlns="http://www.w3.org/2000/svg" xmlns:xlink="http://www.w3.org/1999/xlink">
    <!-- Generator: Sketch 3.7 (28169) - http://www.bohemiancoding.com/sketch -->
    <title>menu-svg</title>
    <desc>Created with Sketch.</desc>
    <defs></defs>
    <g id="Icons" stroke="none" stroke-width="1" fill="none" fill-rule="evenodd">
        <g id="WEB-DEV-svg" transform="translate(-5.000000, -90.000000)" fill="#898E69">
            <g id="menu" transform="translate(5.000000, 67.000000)">
                <path d="M71,36.5 L7,36.5 C3.4,36.5 0.5,33.6 0.5,30 C0.5,26.4 3.4,23.5 7,23.5 L71,23.5 C74.6,23.5 77.5,26.4 77.5,30 C77.5,33.6 74.6,36.5 71,36.5 L71,36.5 Z M77.5,59 C77.5,55.4 74.6,52.5 71,52.5 L7,52.5 C3.4,52.5 0.5,55.4 0.5,59 C0.5,62.6 3.4,65.5 7,65.5 L71,65.5 C74.6,65.5 77.5,62.6 77.5,59 L77.5,59 Z M77.5,88 C77.5,84.4 74.6,81.5 71,81.5 L7,81.5 C3.4,81.5 0.5,84.4 0.5,88 C0.5,91.6 3.4,94.5 7,94.5 L71,94.5 C74.6,94.5 77.5,91.6 77.5,88 L77.5,88 Z" id="menu-svg"></path>
            </g>
        </g>
    </g>
</svg>