<?xml version="1.0" encoding="UTF-8" standalone="no"?>
<svg width="22px" height="23px" viewBox="0 0 22 23" version="1.1" xmlns="http://www.w3.org/2000/svg" xmlns:xlink="http://www.w3.org/1999/xlink">
    <!-- Generator: Sketch 3.7 (28169) - http://www.bohemiancoding.com/sketch -->
    <title>Shape</title>
    <desc>Created with Sketch.</desc>
    <defs></defs>
    <g id="Logos" stroke="none" stroke-width="1" fill="none" fill-rule="evenodd">
        <g id="flat-stethoscopes" transform="translate(-397.000000, -135.000000)" fill="#E6E6E6">
            <g id="user-tie" transform="translate(397.000000, 135.000000)">
                <path d="M11.6412007,9.4854495 L13,11.1034368 L11.6196667,20.328825 L15,10.12 L18.3351667,10.3103327 C22,10.3103327 22,12.4421968 22,15.0689579 L22,23 L0,23 L0,15.0689579 C0,12.4421968 0,10.3103327 3.66483333,10.3103327 L7,10.12 L10.384,20.328825 L9,11.1034368 L10.361384,9.48534105 C7.62534977,9.21088197 5.50183333,7.19953571 5.50183333,4.75862525 C5.50183333,2.1302779 7.964,0 11.0018333,0 C14.0396667,0 16.5018333,2.1302779 16.5018333,4.75862525 C16.5018333,7.19985746 14.377757,9.21141222 11.6412007,9.4854495 Z" id="Shape"></path>
            </g>
        </g>
    </g>
</svg>