<?xml version="1.0" encoding="UTF-8" standalone="no"?>
<svg width="51px" height="42px" viewBox="0 0 51 42" version="1.1" xmlns="http://www.w3.org/2000/svg" xmlns:xlink="http://www.w3.org/1999/xlink">
    <!-- Generator: Sketch 3.7 (28169) - http://www.bohemiancoding.com/sketch -->
    <title>twitter-fill</title>
    <desc>Created with Sketch.</desc>
    <defs></defs>
    <g id="svgs" stroke="none" stroke-width="1" fill="none" fill-rule="evenodd">
        <g id="SVGs" transform="translate(-274.000000, -199.000000)" stroke-width="0.625" stroke="#44BBFF" fill="#44BBFF">
            <g id="twitter-fill" transform="translate(264.000000, 185.000000)">
                <path d="M60,19.735569 C58.1621602,20.5381724 56.1828926,21.0811305 54.1095771,21.3247655 C56.2288564,20.0752658 57.8552637,18.0976454 58.6189678,15.7406505 C56.636166,16.8968728 54.4433447,17.7363694 52.1027324,18.1881384 C50.2358994,16.2258323 47.5678848,15 44.6156025,15 C38.954291,15 34.360751,19.5225623 34.360751,25.096932 C34.360751,25.88979 34.4484355,26.6582844 34.6252188,27.3961506 C26.1000166,26.97501 18.5435879,22.9585125 13.4812188,16.8446653 C12.5980088,18.3412805 12.0924082,20.0752658 12.0924082,21.926196 C12.0924082,25.4261873 13.903377,28.5182639 16.656248,30.3309086 C14.9753916,30.2800933 13.3921201,29.8213633 12.0075518,29.0695752 L12.0075518,29.1941772 C12.0075518,34.088457 15.5425127,38.1696918 20.2385869,39.0948089 C19.3772979,39.332179 18.472167,39.450516 17.5345078,39.450516 C16.8740449,39.450516 16.2291396,39.3899553 15.6061553,39.2716182 C16.9101094,43.2818509 20.6975166,46.203383 25.1871074,46.2806501 C21.6761895,48.9905678 17.2523623,50.6041279 12.4473896,50.6041279 C11.6193359,50.6041279 10.8011826,50.5595774 10,50.4649079 C14.5397979,53.3272714 19.9323984,55 25.7245293,55 C44.5958027,55 54.9107598,39.6154917 54.9107598,26.2698606 C54.9107598,25.8306214 54.9015674,25.3934706 54.8831816,24.9632807 C56.8879053,23.5383639 58.6288682,21.759828 60,19.735569"></path>
            </g>
        </g>
    </g>
</svg>