<?xml version="1.0" encoding="UTF-8" standalone="no"?>
<svg width="68px" height="88px" viewBox="0 0 68 88" version="1.1" xmlns="http://www.w3.org/2000/svg" xmlns:xlink="http://www.w3.org/1999/xlink">
    <!-- Generator: Sketch 3.7 (28169) - http://www.bohemiancoding.com/sketch -->
    <title>works</title>
    <desc>Created with Sketch.</desc>
    <defs></defs>
    <g id="Icons" stroke="none" stroke-width="1" fill="none" fill-rule="evenodd">
        <g id="WEB-DEV-svg" transform="translate(-290.000000, -168.000000)" fill="#FFFFFF">
            <g id="article" transform="translate(290.000000, 168.000000)">
                <g id="Layer_1">
                    <path d="M64,0 L4,0 C1.8,0 0,1.8 0,4 L0,84 C0,86.2 1.8,88 4,88 L64,88 C66.2,88 68,86.2 68,84 L68,4 C68,1.8 66.2,0 64,0 L64,0 Z M60,80 L8,80 L8,8 L60,8 L60,80 L60,80 Z M18,65.5 C18,63.6 19.6,62 21.5,62 L45.3,62 C47.2,62 48.8,63.6 48.8,65.5 C48.8,67.4 47.3,69 45.3,69 L21.5,69 C19.6,69 18,67.4 18,65.5 L18,65.5 Z M18,51.5 C18,49.6 19.6,48 21.5,48 L45.3,48 C47.2,48 48.8,49.6 48.8,51.5 C48.8,53.4 47.3,55 45.3,55 L21.5,55 C19.6,55 18,53.4 18,51.5 L18,51.5 Z M49,22.5 C49,20.6 47.4,19 45.5,19 L21.5,19 C19.6,19 18,20.6 18,22.5 L18,36.5 C18,38.4 19.6,40 21.5,40 L45.5,40 C47.4,40 49,38.4 49,36.5 L49,22.5 L49,22.5 Z M25,26 L42,26 L42,33 L25,33 L25,26 L25,26 Z" id="works"></path>
                </g>
            </g>
        </g>
    </g>
</svg>