<?xml version="1.0" encoding="utf-8"?>
<!-- Generator: Adobe Illustrator 13.0.0, SVG Export Plug-In . SVG Version: 6.00 Build 14948)  -->
<!DOCTYPE svg PUBLIC "-//W3C//DTD SVG 1.1//EN" "http://www.w3.org/Graphics/SVG/1.1/DTD/svg11.dtd">
<svg version="1.1" id="Layer_1" xmlns="http://www.w3.org/2000/svg" xmlns:xlink="http://www.w3.org/1999/xlink" x="0px" y="0px"
	 width="119.5px" height="491.999px" viewBox="0 0 119.5 491.999" enable-background="new 0 0 119.5 491.999" xml:space="preserve">
<polygon fill-rule="evenodd" clip-rule="evenodd" fill="#8ED8F8" points="30.564,153.38 30.564,51.255 49.939,46.005 51.814,1.005 
	67.689,0.88 69.564,45.755 88.939,51.13 88.939,153.255 "/>
<g>
	<g>
		<polygon fill-rule="evenodd" clip-rule="evenodd" fill="#E7E8E9" stroke="#000000" stroke-width="0.5" points="24.801,491.749 
			24.801,485.995 51.168,483.655 36.94,444.644 36.94,176.228 82.467,176.228 82.467,444.644 68.24,483.655 94.481,485.995 
			94.481,491.749 		"/>
		<polygon fill-rule="evenodd" clip-rule="evenodd" fill="#808285" stroke="#000000" stroke-width="0.216" points="30.773,153.352 
			88.825,153.352 88.825,158.461 85.568,158.461 85.568,170.467 88.889,170.467 88.889,176.215 30.646,176.215 30.646,170.467 
			33.839,170.467 33.646,158.461 30.773,158.461 		"/>
	</g>
	
		<line fill-rule="evenodd" clip-rule="evenodd" fill="none" stroke="#000000" stroke-width="0.216" x1="59.704" y1="178.228" x2="59.642" y2="486.921"/>
</g>
<text transform="matrix(1 0 0 1 62.7656 75.1445)" font-family="'Arial-BoldMT'" font-size="14">1</text>
<g>
	<text transform="matrix(1 0 0 1 45.5664 292.3828)" font-family="'Arial-BoldMT'" font-size="21.0557">mL</text>
</g>
<g>
	<line fill-rule="evenodd" clip-rule="evenodd" fill="none" stroke="#000000" x1="55.092" y1="255.074" x2="30.305" y2="255.074"/>
	<line fill-rule="evenodd" clip-rule="evenodd" fill="none" stroke="#000000" x1="55.154" y1="193.926" x2="30.305" y2="193.926"/>
	<line fill-rule="evenodd" clip-rule="evenodd" fill="none" stroke="#000000" x1="55.092" y1="234.691" x2="30.305" y2="234.691"/>
	<line fill-rule="evenodd" clip-rule="evenodd" fill="none" stroke="#000000" x1="55.154" y1="214.309" x2="30.305" y2="214.309"/>
	<line fill-rule="evenodd" clip-rule="evenodd" fill="none" stroke="#000000" x1="42.128" y1="204.117" x2="30.305" y2="204.117"/>
	<line fill-rule="evenodd" clip-rule="evenodd" fill="none" stroke="#000000" x1="42.098" y1="244.883" x2="30.305" y2="244.883"/>
	<line fill-rule="evenodd" clip-rule="evenodd" fill="none" stroke="#000000" x1="42.128" y1="224.5" x2="30.305" y2="224.5"/>
	<line fill-rule="evenodd" clip-rule="evenodd" fill="none" stroke="#000000" x1="42.128" y1="183.734" x2="30.305" y2="183.734"/>
	<g>
		<line fill-rule="evenodd" clip-rule="evenodd" fill="none" stroke="#000000" x1="55.154" y1="71.629" x2="30.305" y2="71.629"/>
		<line fill-rule="evenodd" clip-rule="evenodd" fill="none" stroke="#000000" x1="55.092" y1="112.395" x2="30.305" y2="112.395"/>
		<line fill-rule="evenodd" clip-rule="evenodd" fill="none" stroke="#000000" x1="55.154" y1="51.247" x2="30.305" y2="51.247"/>
		<line fill-rule="evenodd" clip-rule="evenodd" fill="none" stroke="#000000" x1="55.092" y1="132.778" x2="30.305" y2="132.778"/>
		<line fill-rule="evenodd" clip-rule="evenodd" fill="none" stroke="#000000" x1="55.092" y1="153.16" x2="30.305" y2="153.16"/>
		<line fill-rule="evenodd" clip-rule="evenodd" fill="none" stroke="#000000" x1="55.154" y1="173.543" x2="30.305" y2="173.543"/>
		<line fill-rule="evenodd" clip-rule="evenodd" fill="none" stroke="#000000" x1="55.154" y1="92.012" x2="30.305" y2="92.012"/>
		<line fill-rule="evenodd" clip-rule="evenodd" fill="none" stroke="#000000" x1="42.128" y1="81.821" x2="30.305" y2="81.821"/>
		<line fill-rule="evenodd" clip-rule="evenodd" fill="none" stroke="#000000" x1="42.098" y1="122.586" x2="30.305" y2="122.586"/>
		<line fill-rule="evenodd" clip-rule="evenodd" fill="none" stroke="#000000" x1="42.128" y1="61.438" x2="30.305" y2="61.438"/>
		<line fill-rule="evenodd" clip-rule="evenodd" fill="none" stroke="#000000" x1="42.098" y1="142.969" x2="30.305" y2="142.969"/>
		<line fill-rule="evenodd" clip-rule="evenodd" fill="none" stroke="#000000" x1="42.098" y1="163.352" x2="30.305" y2="163.352"/>
		<line fill-rule="evenodd" clip-rule="evenodd" fill="none" stroke="#000000" x1="42.128" y1="102.204" x2="30.305" y2="102.204"/>
	</g>
</g>
<text transform="matrix(1 0 0 1 62.7656 97.1445)" font-family="'Arial-BoldMT'" font-size="14">2</text>
<text transform="matrix(1 0 0 1 62.7656 118.1445)" font-family="'Arial-BoldMT'" font-size="14">3</text>
<text transform="matrix(1 0 0 1 62.7656 139.1445)" font-family="'Arial-BoldMT'" font-size="14">4</text>
<text transform="matrix(1 0 0 1 62.7656 158.1445)" font-family="'Arial-BoldMT'" font-size="14">5</text>
<text transform="matrix(1 0 0 1 62.7656 177.1445)" font-family="'Arial-BoldMT'" font-size="14">6</text>
<text transform="matrix(1 0 0 1 62.7656 198.1445)" font-family="'Arial-BoldMT'" font-size="14">7</text>
<text transform="matrix(1 0 0 1 62.7656 219.1445)" font-family="'Arial-BoldMT'" font-size="14">8</text>
<text transform="matrix(1 0 0 1 62.7656 239.1445)" font-family="'Arial-BoldMT'" font-size="14">9</text>
<text transform="matrix(1 0 0 1 62.7656 259.1445)" font-family="'Arial-BoldMT'" font-size="14">10</text>
<polygon fill-rule="evenodd" clip-rule="evenodd" fill="none" stroke="#000000" points="0.5,323.166 0.5,317.729 30.029,314.251 
	30.029,51.021 49.567,45.646 51.338,0.5 68.157,0.5 69.928,45.583 89.402,51.021 89.402,314.251 118.932,317.729 118.994,323.166 
	"/>
</svg>
