<?xml version="1.0"?><svg width="640" height="480" xmlns="http://www.w3.org/2000/svg" xmlns:xlink="http://www.w3.org/1999/xlink">
 <title>capsule</title>
 <defs>
  <linearGradient id="linearGradient3709">
   <stop stop-color=" rgb(255, 255, 255)" id="stop3711" offset="0"/>
   <stop stop-color=" rgb(255, 255, 255)" id="stop3713" offset="1"/>
  </linearGradient>
  <filter height="1.554281" y="-0.277141" width="1.099004" x="-0.049502" id="filter3665">
   <feGaussianBlur id="feGaussianBlur3667" stdDeviation="3.774949"/>
  </filter>
  <filter id="filter3701">
   <feGaussianBlur id="feGaussianBlur3703" stdDeviation="4.247229"/>
  </filter>
  <filter height="2.478958" y="-0.739479" width="2.186887" x="-0.593444" id="filter3769">
   <feGaussianBlur id="feGaussianBlur3771" stdDeviation="5.99497"/>
  </filter>
  <filter id="filter3785">
   <feGaussianBlur id="feGaussianBlur3787" stdDeviation="2.152817"/>
  </filter>
  <mask id="mask4013" maskUnits="userSpaceOnUse">
   <g id="g4015">
    <path fill="#ffffff" id="path4017" d="m1017.682983,726.118591l101.814697,0c41.61438,0 75.116211,31.583069 75.116211,70.813965c0,39.230896 -33.501831,70.813965 -75.116211,70.813965l-101.814697,0"/>
    <path fill="#bc1f2a" id="path4019" d="m1017.682983,726.118591l0,141.62793l-198.649841,0c-41.61438,0 -75.11615,-31.583069 -75.11615,-70.813965c0,-39.230896 33.50177,-70.813965 75.11615,-70.813965l198.649841,0z"/>
   </g>
  </mask>
  <filter height="1.30886" y="-0.15443" width="1.09705" x="-0.048525" id="filter4025">
   <feGaussianBlur id="feGaussianBlur4027" stdDeviation="9.11298"/>
  </filter>
  <linearGradient y2="2.131319" x2="1.043591" y1="2.131319" x1="0.045085" gradientTransform="translate(-3.94129,-133.679)" id="linearGradient2446" xlink:href="#linearGradient3709"/>
 </defs>
 <metadata id="metadata7">image/svg+xml</metadata>
 <g>
  <title>Layer 1</title>
  <g id="layer1">
   <g id="g2813">
    <g id="g4074">
     <g id="g4065">
      <path fill="#ffffff" d="m298.053802,31.140987l101.814667,0c41.61441,0 75.116241,31.583035 75.116241,70.813984c0,39.230881 -33.501831,70.813919 -75.116241,70.813919l-101.814667,0" id="path2823"/>
      <path fill="#bc1f2a" d="m298.053802,31.140987l0,141.627903l-198.649925,0c-41.614365,0 -75.116177,-31.583038 -75.116177,-70.813919c0,-39.230949 33.501812,-70.813984 75.116177,-70.813984l198.649925,0l0,0z" id="rect2792"/>
      <path opacity="0.141361" fill="url(#linearGradient2446)" filter="url(#filter3785)" d="m104.264473,37.520607c-16.980499,1.84676 -30.670418,7.881504 -40.129829,19.300507c-5.994682,7.236511 -10.290352,16.635483 -12.647804,28.501183c-2.10545,10.59742 -2.664867,23.162514 -1.507854,37.912224c4.20546,-9.655998 8.186497,-19.760872 12.680954,-28.838844c4.232365,-8.548592 8.92001,-16.186668 14.679111,-21.681755c7.307007,-6.972145 16.33886,-10.494633 28.353966,-8.05056l37.702171,0.49752l-1.22641,-25.47443l-37.904305,-2.165844l0,0z" id="path3705"/>
      <rect transform="matrix(1.04599,0,0,1.04599,12.977231481114629,11.18188341156008) " opacity="0.9" fill="#ffffff" filter="url(#filter3665)" id="rect2827" width="183.02081" height="32.690536" x="99.081724" y="25.339299" rx="5" ry="5"/>
      <path opacity="0.25" fill="#4d4d4d" filter="url(#filter3701)" d="m100.384972,35.181557c-3.55706,0 -7.045921,0.241005 -10.468689,0.687515c0.836395,-0.092571 1.68972,-0.159286 2.531227,-0.218723c98.805389,-0.907707 197.647888,0.066589 296.467468,-0.468727l-89.874573,0l-198.655434,0l0,-0.000065zm297.061195,0c1.698578,0.032433 3.396667,0.097744 5.093658,0.187504c1.866669,-0.021832 3.712036,0.022091 5.562622,0.156288c-2.39032,-0.214382 -4.79837,-0.343792 -7.249969,-0.343792l-3.406311,0zm27.187378,3.625023c20.899109,6.848602 37.964966,23.246143 42.156006,43.249809c7.356903,30.648582 -20.727783,61.396492 -53.843475,65.562202c-76.092224,1.66066 -152.250427,0.571899 -228.374039,0.750015c-28.906326,-0.510422 -57.825386,0.738403 -86.718292,-0.1875c-31.322914,0.534927 -60.949699,-22.529839 -64.093479,-50.843521c-3.497704,-25.61322 16.362812,-49.602169 42.249821,-58.343502c-29.572235,9.505203 -50.749783,35.825092 -50.749783,66.999668c0,39.230949 33.510303,70.812202 75.124668,70.812202l198.655434,0l101.812073,0c41.614288,0 75.124542,-31.581253 75.124542,-70.812202c0,-31.382767 -21.461334,-57.845406 -51.343475,-67.187172l0,0z" id="path3669"/>
      <path opacity="0.539267" fill="#ffffff" stroke-width="1px" filter="url(#filter3769)" d="m64.896919,139.935593c0,0 1.783119,7.70253 7.520172,10.456131l25.449722,12.214905c-0.232346,-5.24118 25.512978,-6.236847 29.846069,-9.521439c-3.799194,2.236374 -45.626663,-2.839096 -48.583221,-3.636215c-5.233192,-1.410889 -9.527611,-6.201447 -14.232742,-9.513382l0,0z" id="path3733"/>
      <path opacity="0.267016" fill="none" stroke="#000000" stroke-width="6" filter="url(#filter4025)" d="m98.55204,31.144091c-41.614388,0 -75.124683,31.581285 -75.124683,70.812201c0,39.230904 33.510296,70.812187 75.124683,70.812187l198.655449,0l101.812012,0c41.614319,0 75.124634,-31.581284 75.124634,-70.812187c0,-39.230915 -33.510315,-70.812201 -75.124634,-70.812201l-101.812012,0l-198.655449,0l0,0z" id="path3789" mask="url(#mask4013)"/>
     </g>
    </g>
   </g>
  </g>
 </g>
</svg>