<?xml version="1.0"?><svg width="640" height="480" xmlns="http://www.w3.org/2000/svg">
 <title>Red and Orange Drug Bottle</title>
 <metadata id="metadata7">image/svg+xml</metadata>
 <g>
  <path fill="#000000" d="m276.404053,425.315613c-1.906586,-1.276978 -5.51825,-1.417419 -3.96402,-4.310608c0.18808,-2.855774 -0.326599,-7.124298 -0.347839,-9.955383c0.188171,-2.140228 -0.385315,-4.136414 -0.614563,-6.160553c-1.295563,-3.003235 3.855377,-3.798279 6.057343,-5.037598c3.205078,-0.941589 6.891144,-1.880371 10.154755,-1.243866c3.888641,0.265961 7.910156,-0.026978 11.848999,0.127991c2.793121,0.228851 5.43042,1.05188 8.150513,1.445679c2.768677,0.569427 5.58429,1.147095 8.144653,2.272644c2.519562,0.778992 4.597656,2.498291 5.644012,4.504974c-0.300323,2.122223 -1.474731,4.243134 -1.151978,6.486816c-0.159027,2.571777 0.03006,6.618073 0.640167,9.138519c-0.5289,0.795746 -1.447388,1.384827 -2.35022,1.984497c-7.922546,2.580994 -12.589996,3.788452 -18.757477,3.80426c-8.539673,0.021851 -15.399536,-0.81662 -23.454376,-3.057373l0.000031,0z" id="path2307"/>
  <path fill="#000000" id="path2162" d="m498.863464,437.277191c-10.796265,2.965363 -22.158691,-0.554474 -32.957336,-1.674652c-9.954071,-2.461365 -21.707825,-2.15094 -29.606567,-8.241882c-8.373413,-4.077118 -10.544128,-7.806854 -8.402802,-15.430115c0.11264,-15.771912 0.778137,-31.650269 -1.237854,-47.319275c-1.024139,-11.482513 -2.08078,-22.992676 -4.10788,-34.444061c-2.269958,-16.388458 -4.675476,-32.84491 -7.056732,-49.223358c0.069611,-13.242218 -28.491547,-9.054413 -20.188446,-24.510803c0.752228,-11.421341 -1.306244,-22.554062 -1.391083,-33.876694c0.752319,-8.559601 -1.541107,-16.543213 -2.457977,-24.638626c-5.18158,-12.011185 15.419281,-15.190842 24.2258,-20.1474c12.818451,-3.765762 27.560516,-7.52034 40.613037,-4.974731c15.552246,1.063705 31.636078,-0.107895 47.389252,0.511887c11.170837,0.915222 21.718567,4.206802 32.597107,5.781815c11.07312,2.27742 22.334045,4.587799 32.573914,9.089279c10.076721,3.115494 18.387939,9.99173 22.572632,18.017273c-1.201172,8.487808 -5.89801,16.970169 -4.606995,25.943466c-0.635864,10.285583 0.120239,20.529373 2.560181,30.609741c-5.601379,8.427032 -22.126404,11.059021 -19.48999,24.027435c-2.106995,11.577942 -3.943115,23.153229 -4.08313,34.800934c0.042114,9.149353 -2.438965,18.082306 -1.25,27.283051c-0.466553,10.433563 -2.055664,20.779572 -1.477905,31.256561c-1.435852,9.316162 -1.770142,18.71463 -4.082397,27.945557c1.315308,10.898743 -6.624634,17.303223 -17.231689,21.539459c-10.22522,3.542755 -20.534912,6.19043 -31.315674,7.405304c-3.821167,0.54599 -7.733948,0.148407 -11.587463,0.269867l0,-0.000031z"/>
  <path fill="#ff7f00" id="path2164" d="m500.175323,435.000549c-10.306213,-0.237183 -20.786835,0.960419 -30.819794,-1.752777c-10.104004,-1.336761 -19.805664,-4.345123 -29.045166,-8.050537c-11.955078,-2.504486 -5.431854,-12.661194 -7.149872,-20.256897c0.130981,-12.103607 0.244141,-24.216614 -0.027954,-36.322449c-1.797211,-6.527893 -1.437317,-13.45459 -2.314575,-20.00528c-1.322357,-8.202271 -3.369415,-16.296326 -4.255402,-24.564148c-1.103149,-8.796509 -3.208496,-17.41745 -3.637207,-26.277863c-0.748749,-5.202545 -4.999969,-15.676147 5.813232,-13.108917c9.887756,1.906433 20.002197,3.378571 30.158691,3.771332c9.719513,1.153229 19.476807,2.233307 29.287506,1.940155c10.353973,1.619141 20.903076,1.654572 31.281769,0.156464c9.225281,-2.56546 18.795349,-0.809143 28.116638,0.371674c9.212769,1.875366 4.68158,12.698669 -3.700684,11.832611c-16.139038,5.65979 -33.665161,6.803802 -50.781372,8.233734c-14.11731,0.176849 -28.382019,-0.706238 -42.143951,-3.471771c-7.087494,-0.088074 -14.883362,-6.025391 -21.622192,-2.645874c1.604675,11.688446 5.479218,23.161163 5.166107,35.006165c1.386871,6.814209 2.010834,13.678101 1.212646,20.580597c-0.572174,3.454559 2.45755,4.554504 1.571594,0.568848c-0.623627,6.597443 2.768127,12.380035 1.944794,19.183472c0.582001,9.546021 1.374878,19.081573 1.911591,28.629822c6.362091,4.505157 14.870361,6.734131 22.593231,8.437286c8.59848,2.263702 17.477997,1.965393 26.344177,1.807709c9.421753,0.979431 16.611603,-1.387909 25.346954,-1.017883c8.244446,-1.65274 16.825012,-3.756989 24.578552,-7.268311c9.367004,-4.371704 2.262207,9.181793 0.927124,12.41687c-5.434387,6.957062 -15.701477,8.683655 -24.51416,10.379883c-5.4104,0.484741 -10.846649,0.957275 -16.242279,1.426086z"/>
  <path fill="#ffffff" id="path2166" d="m505.73465,414.648895c-7.986542,-0.068665 -15.975769,0.135376 -23.960205,-0.100281c-5.706757,-1.897003 -12.104309,-0.394257 -17.827332,-2.471497c-6.509369,-1.480621 -14.372925,-1.788544 -18.95755,-6.60672c-2.504669,-4.539612 -1.760834,-9.944611 -2.3302,-14.955505c0.265778,-6.209442 0.468201,-12.46402 -1.093964,-18.566376c-0.71048,-6.497986 1.077179,-13.230621 -1.427216,-19.544678c0.384277,-6.390228 -1.204773,-12.775421 -2.074036,-19.07785c-1.703003,-7.461487 -2.066498,-15.104858 -4.316132,-22.457062c-0.68631,-6.620209 9.424652,-0.386261 13.744904,-0.648987c8.071228,2.139893 16.470886,2.664551 24.769775,3.763672c8.816589,0.711426 18.019836,0.959045 26.756653,-0.125031c6.689453,-0.604553 13.422791,-0.537598 19.999878,-1.893707c14.744446,-1.987488 29.063049,-5.757324 43.125305,-10.010834c-1.307983,6.658905 -1.014771,13.476868 -2.213196,20.085571c-0.873047,6.505737 0.203979,13.088348 -1.573975,19.50061c-0.269409,6.606049 0.038086,13.231598 -1.399536,19.76767c0.187195,6.582947 -1.645508,13.010101 -1.456787,19.620209c0.788452,5.150604 -0.018677,10.457581 -3.430176,14.849396c-3.569275,7.372253 -13.592224,8.654633 -20.711182,12.355682c-6.200867,1.882904 -12.111694,4.494171 -18.686157,5.380096c-2.435333,0.016602 -4.637482,0.832031 -6.938873,1.13562z"/>
  <path fill="#bfbfbf" id="path2168" d="m506.73465,282.464081c-9.270172,-0.267181 -18.690002,0.550262 -27.864532,-0.437958c-5.597809,-1.22821 -11.50528,-0.221436 -17.059326,-1.738068c-8.038116,-0.891449 -15.949127,-1.977325 -23.99646,-3.018402c-5.508484,-2.141541 -11.538116,-2.440216 -17.075104,-4.240173c-6.059479,-2.509705 -12.69986,-3.338318 -18.576447,-6.423431c-7.568024,-2.421967 -0.860413,-10.3461 -3.015076,-15.77887c0.022491,-8.920319 0.114136,-17.842087 -0.117218,-26.761063c-0.828094,-4.758438 -3.95282,-14.968689 -2.277985,-16.834747c5.224335,3.731659 9.999664,8.15274 16.412231,9.976501c5.661804,3.759155 13.086243,4.133316 19.590729,6.383148c7.047058,-0.619781 13.410919,2.537079 20.431702,3.151779c6.363068,1.468735 13.557739,1.996155 19.955109,3.347153c9.14267,-0.03862 18.287964,0.14624 27.428436,-0.1035c6.179138,-1.667847 12.859283,-1.583359 18.968597,-3.289017c6.575562,-0.595413 12.998169,-1.755844 19.515991,-2.843155c6.095581,-1.286224 12.770447,-1.281601 18.708984,-2.887955c7.52179,-0.19397 14.620544,-2.062988 21.588013,-3.895309c3.921387,-1.829407 6.212463,-1.497528 3.377136,2.504395c-0.121033,6.03714 -3.660217,11.686432 -2.531555,18.02684c-0.371338,6.584091 1.17981,13.109421 2.12677,19.332443c3.983032,6.848602 -4.726074,8.649353 -9.891418,10.998291c-5.293274,3.071716 -11.499268,4.536133 -17.220215,6.883362c-8.050598,1.768311 -15.966858,4.483276 -24.374146,4.453827c-7.47699,2.01001 -15.193665,2.218414 -22.836395,3.276794l-1.267822,-0.082886l0,0z"/>
  <path fill="#000000" id="path2170" d="m545.592285,271.969482l0,-9.855927l0,9.855927z"/>
  <path fill="#000000" id="path2172" d="m542.154785,272.219086l1.311829,-26.181641l0,-1.138336l0,27.319977l-1.311829,0z"/>
  <path fill="#000000" id="path2174" d="m548.71405,271.08075l-1.311829,-1.138336l0,-1.138336l0,-1.138306l1.311829,-29.596664l0,33.011642z"/>
  <path fill="#000000" id="path2176" d="m555.273376,271.08075l1.311829,-15.936661l-1.311829,15.936661z"/>
  <path fill="#000000" id="path2178" d="m561.832703,268.804077l1.311829,-28.458298l1.31189,26.181656l-2.623718,2.276642z"/>
  <path fill="#000000" id="path2180" d="m416.2164,267.665771l-1.311859,-20.48999l1.311859,20.48999z"/>
  <ellipse fill="#000000" transform="matrix(-1.3118585265338985,0,0,1.138332,504.28966495286573,139.46506) " id="ellipse2182" ry="13" rx="1" cy="97.62153" cx="-48.86373"/>
  <path fill="#000000" id="path2184" d="m426.711212,263.112427l0,-29.596634l1.311859,29.596634l-1.311859,0z"/>
  <path fill="#000000" id="path2186" d="m422.070221,258.417603l0,-36.959717l0,36.959717z"/>
  <path fill="#000000" id="path2188" d="m409.657074,258.559082l-1.311829,0l0,-37.564941l1.311829,37.564941z"/>
  <path fill="#000000" id="path2190" d="m404.409668,257.420776l0,-19.351669l1.311859,18.213333l-1.311859,2.276642l0,-1.138306z"/>
  <ellipse fill="#000000" transform="matrix(-1.3118585265338985,0,0,1.138332,504.28966495286573,139.46506) " id="ellipse2192" ry="8" rx="1" cy="94.62153" cx="-52.86373"/>
  <path fill="#000000" id="path2194" d="m414.971252,241.169724l0,-24.639801l0,24.639801z"/>
  <path fill="#3f3f3f" id="path2196" d="m489.680481,225.54747c-5.95108,1.942551 -12.767273,1.406906 -18.741821,0.090164c-7.834869,0.332443 -15.005219,-2.293228 -22.857635,-2.583832c-5.597992,-2.392319 -11.940125,-2.592819 -17.873016,-3.531158c-5.498535,-1.066071 -9.85556,-4.326691 -15.148712,-5.638367c-5.393768,-2.55542 -10.883545,-5.355942 -15.119263,-9.288971c-4.579346,-2.606262 -7.71225,-11.878891 -2.102509,-13.835037c5.964417,-4.140503 13.679932,-5.625488 20.291016,-9.003647c7.100922,-2.073959 14.291779,-4.330521 21.705444,-5.257553c5.307312,-2.012863 13.050568,0.289566 17.311432,-2.07991c6.077789,1.936615 12.700104,0.059326 19.065582,0.10376c7.612946,0.900818 15.553162,0.978683 23.221741,2.076263c7.803894,-0.732559 14.940674,2.263611 22.558899,2.248276c6.374695,0.234879 12.31604,2.092361 18.46637,3.463501c6.38092,0.513016 12.197876,3.562469 18.220032,5.391541c5.911072,1.125763 10.11792,4.845306 15.361023,6.892899c3.960693,3.181808 12.027222,5.483078 11.407043,11.204422c-0.65448,6.681931 -11.826111,6.200424 -17.559998,8.903305c-5.703491,1.268753 -11.108215,2.407211 -16.903015,3.944229c-5.11438,1.331863 -10.590881,2.761871 -16.101563,2.316269c-6.964539,-0.094406 -13.232788,2.933731 -20.270203,2.296402c-8.179901,1.402878 -16.383881,2.505051 -24.930878,2.28743l0,0l0.000031,0.000015z"/>
  <path fill="#000000" id="path2198" d="m526.412476,218.717468c-9.182983,-0.37944 -18.365967,-0.758881 -27.549011,-1.138321c2.467896,-3.280548 7.474487,-2.670486 11.306793,-3.507599c5.079254,-1.110352 10.450775,-1.28479 15.297272,-3.132919c3.682251,-0.176682 6.978882,3.485901 10.646667,1.587601c3.888184,-0.871902 8.028687,-1.303436 11.870422,-2.501129c4.448425,-0.863831 8.972656,-2.102875 12.407715,-4.81546c3.068176,-1.175491 7.402954,-5.985489 2.801025,-7.771561c-3.648071,-0.926529 -7.183716,-2.054962 -10.597168,-3.522751c-12.429871,-4.037292 -25.785583,-5.069199 -38.490784,-8.266357c-3.98941,-0.935349 -8.132202,-1.291 -12.184723,-2.004364c-4.188019,-0.617508 -9.14325,-0.002396 -12.356476,-2.949615c-0.056458,-3.663101 6.159546,-1.267242 8.841888,-1.145752c4.458923,0.829178 8.512482,3.132767 13.191193,3.057144c6.532593,0.915131 12.733276,3.099869 19.284058,3.943527c3.600586,1.224396 7.236877,2.407715 11.163452,2.375626c4.483337,0.301575 8.999939,0.982651 13.042664,2.753708c3.826599,1.160522 7.426453,2.842178 11.013123,4.429733c3.335327,2.395035 3.382568,7.427902 0.51001,10.106003c-5.255249,3.584564 -11.422607,6.576828 -18.213074,7.059235c-5.781982,1.01944 -11.62262,1.756119 -17.452759,2.531265c-1.735779,0.682358 -3.03833,1.924957 -4.532288,2.911987z"/>
  <path fill="#000000" id="path2200" d="m481.809326,218.717468c-4.615173,-1.919601 -10.026672,-0.568893 -14.691772,-2.37616c-5.072144,-1.25145 -10.451477,-1.079178 -15.496429,-2.468704c-7.874481,-1.697632 -15.757935,-3.47493 -23.377441,-5.903229c-6.244659,-2.5056 -11.74585,-6.141052 -17.2901,-9.624832c-2.299469,-3.006393 -1.721252,-7.03833 -0.094604,-10.161041c2.503662,-2.891998 6.771576,-3.807129 10.312103,-5.386368c5.125641,-1.34491 10.477295,-1.895569 15.694977,-2.868362c3.578369,-0.231079 7.181519,0.499832 10.740967,-0.060349c2.572601,-2.713837 6.694031,-1.994385 10.045441,-1.235779c5.186127,0.468719 10.398804,0.783539 15.538818,1.572159c3.652679,1.618134 -0.465637,5.576401 -3.346741,4.12825c-5.393219,0.932114 -10.74292,2.164139 -16.244232,2.524078c-0.434113,-3.713455 -5.451782,-4.651993 -9.015381,-4.600952c-4.323883,-0.222244 -8.640656,0.267792 -12.808289,1.252457c-5.627167,1.018631 -11.906616,1.606659 -16.317017,5.11676c-2.548828,2.54985 -3.906067,6.380722 -2.534393,9.61084c2.470337,2.987976 6.814728,3.97438 10.53952,5.291336c5.246399,1.153412 9.72522,4.052734 15.022797,5.113144c9.919312,2.499939 20.165527,3.811386 30.188843,5.945786c5.250885,1.00293 10.501678,2.006165 15.756653,2.992676c-1.408478,-0.91098 -1.213501,1.989578 -2.623718,1.138321l0,-0.000031z"/>
  <path fill="#ffffff" d="m300.003693,425.877228c-2.151489,-0.062012 -4.337708,0.127716 -6.466949,-0.101624c-1.299164,-0.285065 -2.670227,-0.051392 -3.959259,-0.403381c-1.865448,-0.206909 -3.701538,-0.458923 -5.569183,-0.700531c-1.278412,-0.497009 -2.677734,-0.566345 -3.96283,-0.9841c-1.406311,-0.582458 -2.947449,-0.77475 -4.31131,-1.490753c-1.756378,-0.562103 -0.199615,-2.401154 -0.699738,-3.662018c0.005188,-2.070282 0.02652,-4.140869 -0.027161,-6.210846c-0.192169,-1.10434 -0.917358,-3.473969 -0.528656,-3.907043c1.212433,0.866058 2.32077,1.89212 3.80899,2.315369c1.314026,0.872437 3.03714,0.95929 4.546692,1.481415c1.635498,-0.143829 3.237213,2.105164 4.866699,2.247803c1.476776,0.340912 3.021698,-1.05304 4.506409,-0.739471c2.121857,-0.008972 4.244354,0.033905 6.365723,-0.024048c1.434082,-0.387054 2.984436,-0.367462 4.402313,-0.763306c1.526062,-0.138184 3.016632,-0.407501 4.529358,-0.659851c1.414673,-0.298523 2.963837,-0.297455 4.342072,-0.670258c1.745667,-0.045013 3.393158,-0.47879 5.010162,-0.904053c0.910217,-0.424561 1.441803,-0.347534 0.783783,0.581238c-0.028137,1.401123 -0.849487,2.71225 -0.587524,4.183746c-0.086151,1.528046 0.273804,3.04248 0.493591,4.486755c0.924469,1.589447 -1.096802,2.007385 -2.295624,2.552521c-1.228455,0.712891 -2.668793,1.052765 -3.996521,1.597534c-1.868439,0.4104 -3.705688,1.040497 -5.656891,1.033661c-1.735291,0.466492 -3.526184,0.514862 -5.299927,0.760498l-0.29422,-0.019257l0,0z" id="path2279"/>
  <path fill="#ffffff" d="m296.045624,411.842804c-1.381134,0.450836 -2.963043,0.326538 -4.34967,0.020935c-1.818329,0.077148 -3.482422,-0.532227 -5.30484,-0.59967c-1.299225,-0.555206 -2.771149,-0.601746 -4.148041,-0.819519c-1.276093,-0.247437 -2.287292,-1.00415 -3.515839,-1.308594c-1.251831,-0.593048 -2.525879,-1.243011 -3.508881,-2.155823c-1.062836,-0.604858 -1.789917,-2.756866 -0.487946,-3.210876c1.384216,-0.960938 3.174835,-1.305573 4.709137,-2.0896c1.648071,-0.481323 3.316925,-1.005035 5.037567,-1.220184c1.23172,-0.467163 3.028809,0.0672 4.017731,-0.482727c1.410492,0.449463 2.947418,0.013763 4.424744,0.024078c1.71994,0.059814 4.007294,0.093262 4.834564,0.271088c2.063477,0.443665 0.907013,1.220337 2.17749,1.402191c1.811188,-0.170013 1.844879,-0.666046 3.612915,-0.669617c1.479462,0.054504 2.858398,0.485596 4.285706,0.803833c1.480927,0.119049 2.831024,0.826782 4.228577,1.251282c1.371979,0.261261 2.348297,1.124512 3.565094,1.599731c0.919189,0.738464 2.791351,1.272522 2.64743,2.600372c-0.151855,1.550751 -2.74472,1.439026 -4.075409,2.066315c-1.323608,0.294464 -2.578064,0.558685 -3.922943,0.915375c-1.18689,0.309082 -2.457947,0.640961 -3.736908,0.537567c-1.616333,-0.021912 -3.071106,0.680878 -4.704376,0.532959c-1.898376,0.325592 -3.802399,0.58139 -5.786102,0.530884l0,0z" id="path2301"/>
  <path fill="none" fill-rule="evenodd" stroke="#000000" stroke-width="1.41923" stroke-miterlimit="4" id="path2309" d="m299.030762,400.171204c-12.731567,10.722595 -12.731567,11.480774 -12.731567,11.480774"/>
  <path fill="none" fill-rule="evenodd" stroke="#000000" stroke-width="1.41923" stroke-miterlimit="4" d="m302.525696,400.496155c-12.731567,10.722565 -12.731567,11.480743 -12.731567,11.480743" id="path3280"/>
  <path fill="#000000" id="path3282" d="m367.485535,402.343536c1.706024,-1.078705 4.937683,-1.197296 3.546997,-3.641205c-0.168274,-2.412262 0.292236,-6.017914 0.311188,-8.409332c-0.168304,-1.807831 0.344818,-3.494019 0.549957,-5.203827c1.159241,-2.536835 -3.449738,-3.208405 -5.420013,-4.25528c-2.867859,-0.795349 -6.166046,-1.588318 -9.086273,-1.05069c-3.479462,0.22467 -7.077881,-0.022766 -10.602295,0.108154c-2.499237,0.193268 -4.85907,0.888489 -7.292908,1.22113c-2.477448,0.481018 -4.996765,0.968964 -7.28772,1.919708c-2.254456,0.65802 -4.113953,2.110321 -5.050171,3.805359c0.268768,1.792694 1.31958,3.584229 1.030762,5.479431c0.142303,2.172394 -0.026886,5.590302 -0.572845,7.71933c0.473328,0.67218 1.295166,1.169769 2.102997,1.6763c7.088928,2.180176 11.265198,3.200134 16.783752,3.21347c7.641205,0.018463 13.779297,-0.689789 20.986572,-2.58255z"/>
  <path fill="#ffffff" id="path3284" d="m346.36908,402.817932c1.925049,-0.052399 3.881256,0.10788 5.786469,-0.085876c1.162445,-0.240753 2.389252,-0.043396 3.542664,-0.340729c1.669159,-0.174774 3.312012,-0.387634 4.983185,-0.591736c1.143921,-0.41983 2.396057,-0.478363 3.545929,-0.831238c1.258301,-0.492004 2.637268,-0.654449 3.857635,-1.259277c1.571625,-0.474792 0.17865,-2.02829 0.62616,-3.093292c-0.00473,-1.748779 -0.023743,-3.497833 0.024292,-5.246338c0.172028,-0.932831 0.820862,-2.934479 0.473083,-3.300293c-1.08493,0.731567 -2.076599,1.598297 -3.408264,1.955811c-1.175751,0.736969 -2.71756,0.810272 -4.068298,1.251343c-1.46344,-0.12149 -2.896667,1.778229 -4.354614,1.898712c-1.321411,0.287933 -2.703766,-0.889496 -4.032257,-0.624603c-1.898621,-0.007629 -3.797821,0.028656 -5.695923,-0.020325c-1.283234,-0.326935 -2.670471,-0.310364 -3.939117,-0.644775c-1.365509,-0.11673 -2.699219,-0.344238 -4.052795,-0.557373c-1.265808,-0.252167 -2.651917,-0.251251 -3.885162,-0.566162c-1.562042,-0.038025 -3.036194,-0.404419 -4.483154,-0.763641c-0.814331,-0.358643 -1.29007,-0.293579 -0.701202,0.490967c0.025024,1.183563 0.76001,2.291046 0.525635,3.534027c0.077118,1.290741 -0.244995,2.569977 -0.44165,3.789948c-0.827118,1.342621 0.981445,1.695679 2.054108,2.156158c1.099213,0.602173 2.38797,0.889252 3.575989,1.349426c1.671844,0.346649 3.315796,0.878906 5.061676,0.873138c1.552704,0.394043 3.155182,0.434906 4.74234,0.642365l0.263275,-0.016235l0,0z"/>
  <path fill="#ffffff" id="path3286" d="m349.910614,390.963013c1.23584,0.380829 2.651337,0.275818 3.891998,0.01767c1.627045,0.065186 3.116089,-0.449554 4.746765,-0.506531c1.162506,-0.468994 2.479523,-0.508301 3.711609,-0.692261c1.141785,-0.208984 2.046631,-0.848206 3.145844,-1.105347c1.120117,-0.500977 2.260101,-1.049988 3.13974,-1.821045c0.950958,-0.510925 1.601563,-2.328735 0.436584,-2.71225c-1.238617,-0.811676 -2.84082,-1.102814 -4.213684,-1.765076c-1.47464,-0.406586 -2.967926,-0.848938 -4.507446,-1.030701c-1.102173,-0.394592 -2.710144,0.056793 -3.595001,-0.407745c-1.262146,0.379669 -2.63736,0.011627 -3.959229,0.020325c-1.538971,0.050537 -3.585724,0.078796 -4.325867,0.228973c-1.846466,0.374786 -0.811615,1.030823 -1.948425,1.184448c-1.620636,-0.143646 -1.650726,-0.562622 -3.232758,-0.565613c-1.323822,0.046051 -2.557648,0.410187 -3.834869,0.678986c-1.325043,0.100586 -2.53302,0.698395 -3.78363,1.056976c-1.227539,0.220703 -2.101166,0.94989 -3.189911,1.351288c-0.82254,0.623779 -2.49762,1.074921 -2.368805,2.196564c0.135864,1.309906 2.455811,1.215515 3.646515,1.745392c1.184448,0.248749 2.306824,0.471924 3.510132,0.773224c1.062103,0.261139 2.199402,0.541473 3.343842,0.454102c1.446259,-0.018494 2.747864,0.575104 4.20932,0.450195c1.6987,0.275024 3.402344,0.491089 5.177277,0.448425l0,0z"/>
  <path fill="none" fill-rule="evenodd" stroke="#000000" stroke-width="1.23385" stroke-miterlimit="4" d="m347.239624,381.104004c11.391968,9.057373 11.391968,9.697815 11.391968,9.697815" id="path3288"/>
  <path fill="none" fill-rule="evenodd" stroke="#000000" stroke-width="1.23385" stroke-miterlimit="4" id="path3290" d="m344.112366,381.378479c11.392029,9.057373 11.392029,9.697815 11.392029,9.697815"/>
  <path fill="#000000" d="m349.622925,427.423584c-2.032532,-1.361359 -5.882813,-1.511047 -4.225922,-4.595367c0.200562,-3.044403 -0.348175,-7.59491 -0.370728,-10.612976c0.20047,-2.281586 -0.410828,-4.409637 -0.655212,-6.567505c-1.381134,-3.201599 4.110046,-4.049164 6.457428,-5.370331c3.41684,-1.003784 7.346344,-2.004578 10.825562,-1.32605c4.145447,0.283539 8.432648,-0.028748 12.631714,0.136475c2.97757,0.243927 5.789154,1.121307 8.688873,1.541138c2.951538,0.607056 5.953186,1.2229 8.682648,2.42276c2.686005,0.830475 4.901398,2.66333 6.016815,4.802582c-0.32019,2.262421 -1.572144,4.523438 -1.228027,6.915314c-0.169464,2.741638 0.032043,7.055206 0.682434,9.742157c-0.563873,0.848297 -1.542999,1.476288 -2.505402,2.11557c-8.445892,2.751465 -13.421631,4.038696 -19.99649,4.055542c-9.103851,0.023315 -16.41684,-0.870544 -25.003693,-3.259308z" id="path3292"/>
  <path fill="#ffffff" d="m374.781372,428.022308c-2.293549,-0.066132 -4.624176,0.136139 -6.894104,-0.108368c-1.384949,-0.303894 -2.846527,-0.054779 -4.220703,-0.430023c-1.988739,-0.220581 -3.946045,-0.489227 -5.937073,-0.746796c-1.362885,-0.529846 -2.854706,-0.60376 -4.22464,-1.049103c-1.499176,-0.620911 -3.14212,-0.825928 -4.596069,-1.589233c-1.872437,-0.599243 -0.212891,-2.559753 -0.745972,-3.9039c0.005585,-2.207031 0.02829,-4.414429 -0.029022,-6.621124c-0.204834,-1.177277 -0.977936,-3.70343 -0.563568,-4.165131c1.292542,0.923279 2.47406,2.01709 4.060608,2.468323c1.400818,0.930084 3.237732,1.022644 4.847046,1.579285c1.74353,-0.15332 3.451111,2.244202 5.188171,2.396301c1.57431,0.363373 3.221283,-1.12262 4.804138,-0.788361c2.261963,-0.009552 4.52475,0.036163 6.786133,-0.025604c1.528839,-0.412659 3.18158,-0.391754 4.693207,-0.813751c1.626831,-0.147308 3.215851,-0.434418 4.828491,-0.70343c1.508148,-0.318237 3.159607,-0.317108 4.628876,-0.714539c1.860992,-0.048004 3.61734,-0.510406 5.341217,-0.963745c0.970184,-0.452637 1.537018,-0.370514 0.83551,0.619629c-0.029938,1.493652 -0.905579,2.891357 -0.626312,4.460083c-0.091858,1.628998 0.291901,3.243469 0.526154,4.783142c0.985504,1.694427 -1.169281,2.139984 -2.447235,2.72113c-1.309662,0.759979 -2.845093,1.122284 -4.26059,1.703064c-1.991821,0.4375 -3.950439,1.109192 -6.030518,1.101929c-1.849884,0.497314 -3.759155,0.548859 -5.650085,0.81073l-0.31366,-0.020508l0,0z" id="path3294"/>
  <path fill="#ffffff" d="m370.56192,413.060822c-1.472351,0.480621 -3.158813,0.348083 -4.636993,0.022308c-1.938385,0.082245 -3.712494,-0.567383 -5.655304,-0.639282c-1.38504,-0.591888 -2.954193,-0.64151 -4.422058,-0.873657c-1.360382,-0.263763 -2.438385,-1.070465 -3.747986,-1.39502c-1.334503,-0.632233 -2.692749,-1.325104 -3.740692,-2.298218c-1.133057,-0.644836 -1.908142,-2.938995 -0.520233,-3.423004c1.475677,-1.024414 3.384644,-1.391815 5.020294,-2.2276c1.756897,-0.513153 3.536041,-1.071442 5.3703,-1.300812c1.313019,-0.498016 3.228851,0.071655 4.283051,-0.514587c1.503754,0.479156 3.142181,0.014679 4.717102,0.025665c1.833527,0.063751 4.272034,0.099396 5.153809,0.289001c2.19989,0.472961 0.96698,1.300934 2.321411,1.494781c1.930786,-0.181244 1.966705,-0.710052 3.851532,-0.713837c1.577209,0.058105 3.04718,0.51767 4.568848,0.856934c1.578796,0.126923 3.017975,0.881378 4.507935,1.333923c1.462494,0.278534 2.503326,1.198792 3.800537,1.705414c0.97998,0.787231 2.975677,1.356598 2.822296,2.772156c-0.161987,1.653198 -2.925995,1.534058 -4.344635,2.202789c-1.411072,0.313904 -2.748322,0.595581 -4.182037,0.975861c-1.265381,0.329529 -2.620331,0.683319 -3.983795,0.57309c-1.723083,-0.023376 -3.273926,0.72583 -5.015137,0.568146c-2.023834,0.347107 -4.053558,0.619781 -6.168243,0.565948l0,0z" id="path3296"/>
  <path fill="none" fill-rule="evenodd" stroke="#000000" stroke-width="1.51298" stroke-miterlimit="4" id="path3298" d="m373.744263,400.618256c-13.572571,11.430878 -13.572571,12.239105 -13.572571,12.239105"/>
  <path fill="none" fill-rule="evenodd" stroke="#000000" stroke-width="1.51298" stroke-miterlimit="4" d="m377.470032,400.964661c-13.572571,11.430878 -13.572571,12.239105 -13.572571,12.239105" id="path3300"/>
  <title>Layer 1</title>
  <text xml:space="preserve" text-anchor="middle" font-family="serif" font-size="24" id="svg_1" y="333" x="460" opacity="0.5" stroke-linecap="null" stroke-linejoin="null" stroke-dasharray="null" stroke-width="0" fill="#000000"/>
  <text xml:space="preserve" text-anchor="middle" font-family="serif" font-size="24" id="svg_2" y="326" x="444" opacity="0.5" stroke-linecap="null" stroke-linejoin="null" stroke-dasharray="null" stroke-width="0" fill="#000000"/>
  <text xml:space="preserve" text-anchor="middle" font-family="serif" font-size="24" id="svg_3" y="317" x="94" opacity="0.5" stroke-linecap="null" stroke-linejoin="null" stroke-dasharray="null" stroke-width="0" fill="#000000"/>
 </g>
</svg>