<?xml version="1.0" encoding="UTF-8" standalone="no"?>
<!-- Created with Inkscape (http://www.inkscape.org/) -->
<svg
   xmlns:dc="http://purl.org/dc/elements/1.1/"
   xmlns:cc="http://creativecommons.org/ns#"
   xmlns:rdf="http://www.w3.org/1999/02/22-rdf-syntax-ns#"
   xmlns:svg="http://www.w3.org/2000/svg"
   xmlns="http://www.w3.org/2000/svg"
   xmlns:sodipodi="http://sodipodi.sourceforge.net/DTD/sodipodi-0.dtd"
   xmlns:inkscape="http://www.inkscape.org/namespaces/inkscape"
   id="svg2"
   sodipodi:version="0.32"
   inkscape:version="0.46"
   width="535.68481"
   height="184.26128"
   version="1.0"
   sodipodi:docbase="M:\internet"
   sodipodi:docname="laurent_medoc.svg"
   sodipodi:modified="true"
   inkscape:output_extension="org.inkscape.output.svg.inkscape">
  <metadata
     id="metadata7">
    <rdf:RDF>
      <cc:Work
         rdf:about="">
        <dc:format>image/svg+xml</dc:format>
        <dc:type
           rdf:resource="http://purl.org/dc/dcmitype/StillImage" />
      </cc:Work>
    </rdf:RDF>
  </metadata>
  <defs
     id="defs5">
    <inkscape:perspective
       sodipodi:type="inkscape:persp3d"
       inkscape:vp_x="0 : 90 : 1"
       inkscape:vp_y="0 : 1000 : 0"
       inkscape:vp_z="538 : 90 : 1"
       inkscape:persp3d-origin="269 : 60 : 1"
       id="perspective32" />
  </defs>
  <sodipodi:namedview
     inkscape:window-height="712"
     inkscape:window-width="1024"
     inkscape:pageshadow="2"
     inkscape:pageopacity="0.0"
     guidetolerance="10.0"
     gridtolerance="10.0"
     objecttolerance="10.0"
     borderopacity="1.0"
     bordercolor="#666666"
     pagecolor="#ffffff"
     id="base"
     inkscape:zoom="0.70779462"
     inkscape:cx="451.70689"
     inkscape:cy="62.586425"
     inkscape:window-x="-4"
     inkscape:window-y="-4"
     inkscape:current-layer="svg2"
     showgrid="false" />
  <g
     id="g4170"
     transform="matrix(0.9393939,0,0,0.9393939,-52.451044,-218.41231)">
    <path
       sodipodi:nodetypes="czcczcc"
       id="path4164"
       d="M 204.88987,268.84312 C 204.88987,268.84312 230.6074,296.30637 287.16555,297.3885 C 343.18263,298.47062 368.90016,268.78613 368.90016,268.78613 L 368.90016,298.77149 C 368.90016,298.77149 358.90755,327.47273 287.16555,327.37386 C 215.42413,327.275 204.88987,298.82849 204.88987,298.82849 L 204.88987,268.84312 z"
       style="fill:#833f00;fill-opacity:1" />
    <path
       id="path4166"
       d="M 369.67152,265.343 C 369.67152,283.47044 332.71152,298.18258 287.17151,298.18258 C 241.63151,298.18258 204.67152,283.47044 204.67152,265.343 C 204.67152,247.21558 241.63151,232.50344 287.17151,232.50344 C 332.71152,232.50344 369.67152,247.21558 369.67152,265.343 z"
       style="fill:#a04f00;fill-opacity:1" />
    <path
       sodipodi:nodetypes="ccccc"
       id="path4168"
       d="M 296.05477,232.722 L 305.86793,233.13204 L 277.19156,298.86274 L 265.28817,298.32168 L 296.05477,232.722 z"
       style="fill:#833f00;fill-opacity:1" />
  </g>
  <path
     style="fill:#3ffe3f;fill-opacity:1;fill-rule:evenodd;stroke:none;stroke-width:1.12257004px;stroke-linecap:butt;stroke-linejoin:miter;stroke-opacity:1"
     d="M 27.432215,4.6073157 L 81.584374,39.313098 L 135.73654,74.01887 C 135.73654,74.01887 150.48846,86.916989 140.27618,102.01617 C 130.06702,117.11074 112.94198,109.58571 112.94198,109.58571 L 58.789825,74.879938 L 4.6376548,40.174156 C 4.6376548,40.174156 -5.4539268,29.192201 4.1357073,14.229285 C 13.482165,-0.35417897 27.432215,4.6073157 27.432215,4.6073157 z"
     id="path2172"
     sodipodi:nodetypes="ccczccczc" />
  <path
     style="fill:#e3e214;fill-opacity:1;fill-rule:evenodd;stroke:none;stroke-width:1.12257004px;stroke-linecap:butt;stroke-linejoin:miter;stroke-opacity:1"
     d="M 81.584374,39.313098 L 135.73654,74.01887 C 135.73654,74.01887 150.48846,86.916989 140.27618,102.01617 C 130.06702,117.11074 112.94198,109.58571 112.94198,109.58571 L 58.789825,74.879938 L 81.584374,39.313098 z"
     id="path2174"
     sodipodi:nodetypes="cczccc" />
  <path
     style="fill:#009fa2;fill-opacity:1;fill-rule:evenodd;stroke:none;stroke-width:1.24417579px;stroke-linecap:butt;stroke-linejoin:miter;stroke-opacity:1"
     d="M 16.162063,81.187671 L 87.448713,81.187671 L 158.73537,81.187671 C 158.73537,81.187671 180.21448,84.401101 179.71496,104.59801 C 179.2156,124.78875 158.73537,128.00835 158.73537,128.00835 L 87.448713,128.00835 L 16.162063,128.00835 C 16.162063,128.00835 0.1776128,123.79589 0.1776128,104.0985 C 0.1776128,84.900611 16.162063,81.187671 16.162063,81.187671 z"
     id="rect2163"
     sodipodi:nodetypes="ccczccczc" />
  <path
     style="fill:#810082;fill-opacity:1;fill-rule:evenodd;stroke:none;stroke-width:1.24417579px;stroke-linecap:butt;stroke-linejoin:miter;stroke-opacity:1"
     d="M 87.448713,81.187671 L 158.73537,81.187671 C 158.73537,81.187671 180.21448,84.401101 179.71496,104.59801 C 179.2156,124.78875 158.73537,128.00835 158.73537,128.00835 L 87.448713,128.00835 L 87.448713,81.187671 z"
     id="path2166"
     sodipodi:nodetypes="cczccc" />
  <path
     style="fill:#ff8280;fill-opacity:1;fill-rule:evenodd;stroke:none;stroke-width:0.92490923px;stroke-linecap:butt;stroke-linejoin:miter;stroke-opacity:1"
     d="M 48.801447,97.026577 L 93.707912,125.16481 L 138.61436,153.30303 C 138.61436,153.30303 150.87656,163.80554 142.58978,176.33124 C 134.30555,188.85313 120.13334,182.79736 120.13334,182.79736 L 75.226876,154.65913 L 30.320421,126.52091 C 30.320421,126.52091 21.913876,117.55793 29.688806,105.1497 C 37.26661,93.056157 48.801447,97.026577 48.801447,97.026577 z"
     id="path2168"
     sodipodi:nodetypes="ccczccczc" />
  <path
     style="fill:#c06200;fill-opacity:1;fill-rule:evenodd;stroke:none;stroke-width:0.92490923px;stroke-linecap:butt;stroke-linejoin:miter;stroke-opacity:1"
     d="M 93.707912,125.16481 L 138.61436,153.30303 C 138.61436,153.30303 150.87656,163.80554 142.58978,176.33124 C 134.30555,188.85313 120.13334,182.79736 120.13334,182.79736 L 75.226876,154.65913 L 93.707912,125.16481 z"
     id="path2170"
     sodipodi:nodetypes="cczccc" />
  <path
     style="fill:#a2009d;fill-opacity:1;fill-rule:evenodd;stroke:none;stroke-width:1.04964554px;stroke-linecap:butt;stroke-linejoin:miter;stroke-opacity:1"
     d="M 369.93477,68.125725 L 420.28376,35.23356 L 470.63273,2.3413837 C 470.63273,2.3413837 487.28589,-5.2996221 496.25209,9.1957207 C 505.21554,23.686623 492.23614,35.410308 492.23614,35.410308 L 441.88715,68.302477 L 391.53817,101.19466 C 391.53817,101.19466 378.30487,105.59479 369.21635,91.682737 C 360.35831,78.123483 369.93477,68.125725 369.93477,68.125725 z"
     id="path2176"
     sodipodi:nodetypes="ccczccczc" />
  <path
     style="fill:#a0a0a0;fill-opacity:1;fill-rule:evenodd;stroke:none;stroke-width:1.04964554px;stroke-linecap:butt;stroke-linejoin:miter;stroke-opacity:1"
     d="M 420.28376,35.23356 L 470.63273,2.3413837 C 470.63273,2.3413837 487.28589,-5.2996221 496.25209,9.1957207 C 505.21554,23.686623 492.23614,35.410308 492.23614,35.410308 L 441.88715,68.302477 L 420.28376,35.23356 z"
     id="path2178"
     sodipodi:nodetypes="cczccc" />
  <g
     id="g4186"
     transform="matrix(1.2127087,0,0,1.2127087,-466.89322,-22.201829)">
    <path
       sodipodi:nodetypes="czcczcc"
       id="path4180"
       d="M 711.43492,111.18254 C 711.43492,111.18254 729.42847,130.3975 769,131.15462 C 808.19296,131.91174 826.18651,111.14266 826.18651,111.14266 L 826.18651,132.12225 C 826.18651,132.12225 819.19507,152.20338 769,152.13421 C 718.80533,152.06504 711.43492,132.16213 711.43492,132.16213 L 711.43492,111.18254 z"
       style="fill:#e2e000;fill-opacity:1" />
    <path
       id="path4182"
       d="M 826.7262,108.73364 C 826.7262,121.4167 800.86673,131.71021 769.00417,131.71021 C 737.14161,131.71021 711.28215,121.4167 711.28215,108.73364 C 711.28215,96.050585 737.14161,85.757075 769.00417,85.757075 C 800.86673,85.757075 826.7262,96.050585 826.7262,108.73364 z"
       style="fill:#fffe3f;fill-opacity:1" />
    <path
       sodipodi:nodetypes="ccccc"
       id="path4184"
       d="M 775.21944,85.909995 L 782.08532,86.196885 L 762.02159,132.18609 L 753.69325,131.80753 L 775.21944,85.909995 z"
       style="fill:#e2e000;fill-opacity:1" />
  </g>
  <g
     id="g4175"
     transform="translate(-132.43452,-184.18985)">
    <path
       sodipodi:nodetypes="czcczcc"
       id="path4153"
       d="M 362.86542,248.06459 C 362.86542,248.06459 386.24499,273.03118 437.6615,274.01493 C 488.58611,274.99868 511.96568,248.01278 511.96568,248.01278 L 511.96568,275.2722 C 511.96568,275.2722 502.88149,301.36423 437.6615,301.27436 C 372.44202,301.18448 362.86542,275.32402 362.86542,275.32402 L 362.86542,248.06459 z"
       style="fill:#bfbfbf;fill-opacity:1" />
    <path
       id="path4155"
       d="M 512.66692,244.88266 C 512.66692,261.36215 479.06692,274.73683 437.66691,274.73683 C 396.26691,274.73683 362.66692,261.36215 362.66692,244.88266 C 362.66692,228.40319 396.26691,215.02851 437.66691,215.02851 C 479.06692,215.02851 512.66692,228.40319 512.66692,244.88266 z"
       style="fill:#e1e1e1;fill-opacity:1" />
    <path
       sodipodi:nodetypes="ccccc"
       id="path4157"
       d="M 445.7426,215.22721 L 454.66365,215.59997 L 428.59423,275.35515 L 417.77296,274.86328 L 445.7426,215.22721 z"
       style="fill:#bfbfbf;fill-opacity:1" />
  </g>
  <path
     style="fill:#4040ff;fill-opacity:1;fill-rule:evenodd;stroke:none;stroke-width:1.24417579px;stroke-linecap:butt;stroke-linejoin:miter;stroke-opacity:1"
     d="M 286.98572,118.04013 L 354.71098,95.789777 L 422.43622,73.539428 C 422.43622,73.539428 443.84525,69.888148 449.67464,89.231958 C 455.50227,108.56985 437.05013,118.021 437.05013,118.021 L 369.32488,140.27135 L 301.59963,162.5217 C 301.59963,162.5217 285.09893,163.50883 278.95089,144.79551 C 272.95875,126.55673 286.98572,118.04013 286.98572,118.04013 z"
     id="path2180"
     sodipodi:nodetypes="ccczccczc" />
  <path
     style="fill:#810082;fill-opacity:1;fill-rule:evenodd;stroke:none;stroke-width:1.24417579px;stroke-linecap:butt;stroke-linejoin:miter;stroke-opacity:1"
     d="M 354.71098,95.789777 L 422.43622,73.539428 C 422.43622,73.539428 443.84525,69.888148 449.67464,89.231958 C 455.50227,108.56985 437.05013,118.021 437.05013,118.021 L 369.32488,140.27135 L 354.71098,95.789777 z"
     id="path2182"
     sodipodi:nodetypes="cczccc" />
  <g
     id="g4159"
     transform="translate(-155.73768,-195.37537)">
    <path
       sodipodi:nodetypes="czcczcc"
       id="rect2206"
       d="M 323.05294,318.37059 C 323.05294,318.37059 341.04649,337.58555 380.61802,338.34267 C 419.81098,339.09979 437.80453,318.33071 437.80453,318.33071 L 437.80453,339.3103 C 437.80453,339.3103 430.81309,359.39143 380.61802,359.32226 C 330.42335,359.25309 323.05294,339.35018 323.05294,339.35018 L 323.05294,318.37059 z"
       style="fill:#3ffe3f;fill-opacity:1" />
    <path
       id="path2204"
       d="M 438.34422,315.92169 C 438.34422,328.60475 412.48475,338.89826 380.62219,338.89826 C 348.75963,338.89826 322.90017,328.60475 322.90017,315.92169 C 322.90017,303.23864 348.75963,292.94513 380.62219,292.94513 C 412.48475,292.94513 438.34422,303.23864 438.34422,315.92169 z"
       style="fill:#7fff83;fill-opacity:1" />
    <path
       sodipodi:nodetypes="ccccc"
       id="rect3181"
       d="M 386.83746,293.09805 L 393.70334,293.38494 L 373.63961,339.37414 L 365.31127,338.99558 L 386.83746,293.09805 z"
       style="fill:#3ffe3f;fill-opacity:1" />
  </g>
</svg>
