<?xml version="1.0"?><svg width="111" height="51" xmlns="http://www.w3.org/2000/svg">
 <metadata id="metadata7">image/svg+xml</metadata>
 <g>
  <title>Layer 1</title>
  <g id="svg_1">
   <path fill="#000000" d="m105.228973,46.070038c1.654419,-1.276978 4.788361,-1.417419 3.439728,-4.310608c-0.163208,-2.855774 0.283386,-7.124298 0.301788,-9.955383c-0.163208,-2.140228 0.334381,-4.136414 0.533295,-6.160553c1.124207,-3.003235 -3.345398,-3.798279 -5.256104,-5.037598c-2.781128,-0.941589 -5.979584,-1.880371 -8.811523,-1.243866c-3.374237,0.265961 -6.863831,-0.026978 -10.281708,0.127991c-2.423645,0.228851 -4.712097,1.05188 -7.072357,1.445679c-2.402466,0.569427 -4.845642,1.147095 -7.067322,2.272644c-2.186279,0.778992 -3.989502,2.498291 -4.89743,4.504974c0.26062,2.122253 1.279633,4.243164 0.999542,6.486816c0.13797,2.571777 -0.026093,6.618073 -0.55545,9.138519c0.458954,0.795746 1.25592,1.384827 2.039337,1.984497c6.874573,2.580994 10.924591,3.788452 16.276276,3.80426c7.410156,0.021851 13.36261,-0.81662 20.351929,-3.057373z" id="path2307"/>
   <path fill="#ffeeaa" d="m84.751038,46.631653c1.866882,-0.062012 3.763885,0.127716 5.611511,-0.101624c1.127319,-0.285065 2.316986,-0.051392 3.435516,-0.403381c1.618744,-0.206909 3.211914,-0.458923 4.83252,-0.700531c1.109314,-0.497009 2.323578,-0.566345 3.43866,-0.9841c1.220306,-0.582458 2.557556,-0.77475 3.741028,-1.490753c1.524078,-0.562103 0.173279,-2.401154 0.607178,-3.662018c-0.004517,-2.070282 -0.02298,-4.140869 0.023621,-6.210846c0.166748,-1.10434 0.796021,-3.473969 0.45874,-3.907043c-1.052094,0.866058 -2.013794,1.89212 -3.305176,2.315369c-1.140198,0.872437 -2.635376,0.95929 -3.945282,1.481415c-1.419159,-0.143829 -2.809052,2.105164 -4.222961,2.247803c-1.281433,0.340912 -2.622009,-1.05304 -3.910339,-0.739471c-1.841187,-0.008972 -3.682922,0.033905 -5.523651,-0.024048c-1.244415,-0.387054 -2.589691,-0.367462 -3.820038,-0.763306c-1.324188,-0.138184 -2.617615,-0.407501 -3.930206,-0.659851c-1.22757,-0.298523 -2.571777,-0.297455 -3.7677,-0.670258c-1.514801,-0.045013 -2.944366,-0.47879 -4.347534,-0.904053c-0.789703,-0.424561 -1.251099,-0.347534 -0.680084,0.581238c0.024384,1.401123 0.737122,2.71225 0.509827,4.183746c0.074768,1.528046 -0.23761,3.04248 -0.428284,4.486755c-0.802155,1.589447 0.951721,2.007385 1.991943,2.552521c1.06601,0.712891 2.315796,1.052765 3.467926,1.597534c1.621246,0.4104 3.215454,1.040497 4.908569,1.033661c1.505768,0.466492 3.059784,0.514862 4.598907,0.760498l0.25531,-0.019257l0,0z" id="path2279"/>
   <path fill="#ffeeaa" d="m88.185516,32.597229c1.198456,0.450836 2.571136,0.326538 3.774323,0.020935c1.57782,0.077148 3.02182,-0.532227 4.60318,-0.59967c1.12735,-0.555206 2.404572,-0.601746 3.599365,-0.819519c1.1073,-0.247437 1.984741,-1.00415 3.05072,-1.308594c1.086243,-0.593048 2.191772,-1.243011 3.0448,-2.155823c0.922211,-0.604858 1.553131,-2.756866 0.423401,-3.210876c-1.201141,-0.960938 -2.754944,-1.305573 -4.086304,-2.0896c-1.430023,-0.481323 -2.878143,-1.005035 -4.371155,-1.220184c-1.068817,-0.467163 -2.628174,0.0672 -3.486267,-0.482727c-1.223969,0.449463 -2.557587,0.013763 -3.839508,0.024078c-1.492432,0.059814 -3.477264,0.093262 -4.195038,0.271088c-1.790588,0.443665 -0.787079,1.220337 -1.889496,1.402191c-1.571594,-0.170013 -1.60083,-0.666046 -3.13501,-0.669617c-1.283783,0.054504 -2.480255,0.485596 -3.718842,0.803833c-1.285034,0.119049 -2.456482,0.826782 -3.66925,1.251282c-1.19043,0.261261 -2.037598,1.124512 -3.093475,1.599731c-0.797638,0.738464 -2.422119,1.272522 -2.297241,2.600372c0.131805,1.550751 2.381622,1.439026 3.536346,2.066315c1.14859,0.294464 2.23703,0.558685 3.403992,0.915375c1.029968,0.309113 2.132874,0.640991 3.242645,0.537567c1.402557,-0.021912 2.664856,0.680878 4.082092,0.532959c1.647308,0.325592 3.299469,0.58139 5.020721,0.530884l0,0z" id="path2301"/>
   <path fill="none" fill-rule="evenodd" stroke="#000000" stroke-width="1.41923" stroke-miterlimit="4" id="path2309" d="m85.595245,20.925629c11.047516,10.722595 11.047516,11.480774 11.047516,11.480774"/>
   <path fill="none" fill-rule="evenodd" stroke="#000000" stroke-width="1.41923" stroke-miterlimit="4" d="m82.562592,21.25058c11.047516,10.722565 11.047516,11.480743 11.047516,11.480743" id="path3280"/>
   <path fill="#000000" id="path3282" d="m26.195374,23.097961c-1.480377,-1.078705 -4.284546,-1.197296 -3.07782,-3.641205c0.146027,-2.412262 -0.253571,-6.017914 -0.27005,-8.409332c0.146057,-1.807831 -0.299164,-3.494019 -0.477173,-5.203827c-1.00592,-2.536835 2.993408,-3.208405 4.703064,-4.25528c2.488495,-0.795349 5.350433,-1.588318 7.884399,-1.05069c3.019226,0.22467 6.141632,-0.022766 9.19989,0.108154c2.16864,0.193268 4.216309,0.888489 6.328217,1.22113c2.149689,0.481018 4.335815,0.968964 6.32373,1.919708c1.956238,0.65802 3.569733,2.110321 4.382141,3.805359c-0.233215,1.792694 -1.14502,3.584229 -0.894409,5.479431c-0.123444,2.172394 0.023346,5.590302 0.49704,7.71933c-0.410675,0.67218 -1.123779,1.169769 -1.824768,1.6763c-6.151245,2.180176 -9.775116,3.200134 -14.563721,3.21347c-6.630463,0.018463 -11.956635,-0.689789 -18.210541,-2.58255z"/>
   <path fill="#ffeeaa" id="path3284" d="m44.518646,23.572357c-1.670441,-0.052399 -3.367859,0.10788 -5.021088,-0.085876c-1.008667,-0.240753 -2.073181,-0.043396 -3.074036,-0.340729c-1.448395,-0.174774 -2.873932,-0.387634 -4.324036,-0.591736c-0.992615,-0.41983 -2.079102,-0.478363 -3.076874,-0.831238c-1.091888,-0.492004 -2.288452,-0.654449 -3.347382,-1.259247c-1.363739,-0.474823 -0.155029,-2.02829 -0.543304,-3.093323c0.004059,-1.748779 0.020569,-3.497833 -0.021118,-5.246307c-0.149231,-0.932861 -0.71228,-2.934479 -0.410492,-3.300323c0.941406,0.731567 1.80191,1.598297 2.957428,1.955811c1.020233,0.736969 2.358093,0.810303 3.530151,1.251373c1.269867,-0.12149 2.513519,1.778229 3.778625,1.898712c1.146606,0.287933 2.34613,-0.889496 3.498901,-0.624634c1.647491,-0.007599 3.295441,0.028656 4.942505,-0.020325c1.113464,-0.326935 2.3172,-0.310364 3.41806,-0.644775c1.184875,-0.116699 2.342194,-0.344208 3.516724,-0.557373c1.098358,-0.252136 2.301147,-0.251251 3.371246,-0.566162c1.355408,-0.038025 2.634583,-0.404419 3.890076,-0.763641c0.706604,-0.358643 1.119476,-0.293579 0.608551,0.490967c-0.02182,1.183563 -0.659546,2.291046 -0.456177,3.534027c-0.066925,1.290741 0.212585,2.569977 0.383209,3.789948c0.717743,1.342621 -0.851593,1.695679 -1.782349,2.156158c-0.953857,0.602173 -2.072144,0.889252 -3.103027,1.349426c-1.450684,0.346649 -2.877167,0.878906 -4.39212,0.873138c-1.347321,0.394043 -2.737823,0.434906 -4.115021,0.642365l-0.228455,-0.016235l0,0z"/>
   <path fill="#ffeeaa" id="path3286" d="m41.445557,11.717438c-1.072357,0.380829 -2.300629,0.275818 -3.377197,0.01767c-1.411804,0.065186 -2.703888,-0.449554 -4.118866,-0.506531c-1.008728,-0.468994 -2.15155,-0.508301 -3.220642,-0.692261c-0.990784,-0.208984 -1.775909,-0.848206 -2.729736,-1.105347c-0.971924,-0.500977 -1.961151,-1.049988 -2.724426,-1.821045c-0.825165,-0.510925 -1.389709,-2.328735 -0.378845,-2.71225c1.074768,-0.811676 2.465057,-1.102814 3.656342,-1.765076c1.279572,-0.406586 2.575317,-0.848938 3.911224,-1.030701c0.95636,-0.394592 2.351654,0.056793 3.119476,-0.407745c1.095184,0.379669 2.288483,0.011627 3.435516,0.020325c1.335388,0.050537 3.111389,0.078796 3.753632,0.229004c1.602203,0.374756 0.704254,1.030823 1.690704,1.184418c1.406219,-0.143616 1.432373,-0.562622 2.805145,-0.565613c1.148712,0.046051 2.219299,0.410187 3.327576,0.678986c1.149811,0.100586 2.197998,0.698395 3.283173,1.056976c1.065155,0.220703 1.823212,0.94989 2.767975,1.351288c0.713715,0.623779 2.167267,1.074921 2.055511,2.196564c-0.11795,1.309906 -2.131012,1.215515 -3.164246,1.745392c-1.02774,0.248749 -2.001648,0.471924 -3.045837,0.773224c-0.9216,0.261139 -1.908447,0.541473 -2.901459,0.454102c-1.254974,-0.018494 -2.38446,0.575134 -3.652588,0.450195c-1.473999,0.275024 -2.952301,0.491089 -4.492432,0.448425l0,0z"/>
   <path fill="none" fill-rule="evenodd" stroke="#000000" stroke-width="1.233853" stroke-miterlimit="4" d="m43.763275,1.858429c-9.885132,9.057373 -9.885132,9.697815 -9.885132,9.697815" id="path3288"/>
   <path fill="none" fill-rule="evenodd" stroke="#000000" stroke-width="1.233853" stroke-miterlimit="4" id="path3290" d="m46.476837,2.132904c-9.885132,9.057373 -9.885132,9.697815 -9.885132,9.697815"/>
   <path fill="#000000" d="m41.69519,48.178009c1.763702,-1.361359 5.104645,-1.511047 3.666931,-4.595367c-0.173981,-3.044403 0.302124,-7.59491 0.321747,-10.612976c-0.174011,-2.281586 0.356445,-4.409637 0.568512,-6.567505c1.198456,-3.201599 -3.566406,-4.049164 -5.603302,-5.370331c-2.964844,-1.003784 -6.374573,-2.004578 -9.393585,-1.32605c-3.597137,0.283539 -7.31723,-0.028748 -10.960846,0.136475c-2.58374,0.243927 -5.023376,1.121307 -7.539551,1.541138c-2.561127,0.607056 -5.165741,1.2229 -7.534149,2.42276c-2.330688,0.830475 -4.253052,2.66333 -5.220947,4.802582c0.277832,2.262421 1.364197,4.523438 1.065582,6.915314c0.147095,2.741638 -0.027802,7.055206 -0.592163,9.742157c0.489288,0.848297 1.338898,1.476288 2.174042,2.11557c7.328705,2.751465 11.64624,4.038696 17.35144,4.055542c7.899628,0.023315 14.2453,-0.870544 21.696289,-3.259308z" id="path3292"/>
   <path fill="#ffeeaa" d="m19.864563,48.776733c1.990204,-0.066132 4.012543,0.136139 5.982208,-0.108368c1.201752,-0.303894 2.470001,-0.054779 3.662415,-0.430023c1.725677,-0.220581 3.424072,-0.489227 5.151733,-0.746796c1.182617,-0.529846 2.477112,-0.60376 3.665833,-1.049103c1.300873,-0.620911 2.726501,-0.825928 3.988129,-1.589233c1.624756,-0.599243 0.184723,-2.559753 0.647278,-3.9039c-0.004822,-2.207031 -0.024506,-4.414429 0.025177,-6.621124c0.177795,-1.177277 0.848602,-3.70343 0.489044,-4.165131c-1.121582,0.923279 -2.14679,2.01709 -3.523499,2.468323c-1.215515,0.930084 -2.809448,1.022644 -4.205872,1.579285c-1.512909,-0.15332 -2.994629,2.244202 -4.501923,2.396301c-1.366058,0.363373 -2.795197,-1.12262 -4.16864,-0.788361c-1.962799,-0.009552 -3.926208,0.036163 -5.888519,-0.025604c-1.326599,-0.412659 -2.760742,-0.391754 -4.072357,-0.813751c-1.411682,-0.147308 -2.790527,-0.434418 -4.18985,-0.70343c-1.308624,-0.318237 -2.741638,-0.317108 -4.016571,-0.714539c-1.614838,-0.048004 -3.138855,-0.510406 -4.634705,-0.963745c-0.841858,-0.452637 -1.33374,-0.370514 -0.725006,0.619629c0.02597,1.493652 0.785797,2.891357 0.543488,4.460083c0.079712,1.628998 -0.253296,3.243469 -0.456573,4.783142c-0.855133,1.694427 1.014618,2.139984 2.123535,2.72113c1.136414,0.759979 2.468781,1.122284 3.696991,1.703064c1.728363,0.4375 3.427887,1.109192 5.232819,1.101929c1.605225,0.497314 3.261902,0.548859 4.90271,0.81073l0.272156,-0.020508l0,0z" id="path3294"/>
   <path fill="#ffeeaa" d="m23.525909,33.815247c1.277618,0.480621 2.740967,0.348083 4.023621,0.022308c1.682037,0.082245 3.221436,-0.567383 4.907257,-0.639282c1.201843,-0.591888 2.563416,-0.64151 3.837128,-0.873657c1.18045,-0.263763 2.115845,-1.070465 3.252228,-1.39502c1.15799,-0.632233 2.336578,-1.325104 3.245911,-2.298218c0.983154,-0.644836 1.655731,-2.938995 0.451385,-3.423004c-1.280487,-1.024414 -2.93692,-1.391815 -4.356232,-2.2276c-1.524475,-0.513153 -3.068268,-1.071442 -4.659882,-1.300812c-1.139404,-0.498016 -2.801788,0.071655 -3.716553,-0.514587c-1.30484,0.479156 -2.726532,0.014679 -4.09314,0.025665c-1.591003,0.063751 -3.70697,0.099396 -4.472107,0.289001c-1.908905,0.472961 -0.839081,1.300934 -2.014343,1.494781c-1.675385,-0.181244 -1.706543,-0.710052 -3.342072,-0.713837c-1.368591,0.058105 -2.644104,0.51767 -3.964508,0.856934c-1.369934,0.126923 -2.618744,0.881378 -3.911621,1.333923c-1.269043,0.278534 -2.172211,1.198792 -3.297821,1.705414c-0.850342,0.787231 -2.582092,1.356598 -2.448975,2.772156c0.140533,1.653198 2.53894,1.534058 3.769928,2.202789c1.224457,0.313904 2.384796,0.595581 3.628876,0.975861c1.097992,0.329529 2.273712,0.683319 3.456818,0.57309c1.495178,-0.023376 2.840881,0.72583 4.351746,0.568146c1.756134,0.347107 3.517395,0.619781 5.352356,0.565948l0,0z" id="path3296"/>
   <path fill="none" fill-rule="evenodd" stroke="#000000" stroke-width="1.512978" stroke-miterlimit="4" id="path3298" d="m20.764557,21.372681c11.777222,11.430878 11.777222,12.239105 11.777222,12.239105"/>
   <path fill="none" fill-rule="evenodd" stroke="#000000" stroke-width="1.512978" stroke-miterlimit="4" d="m17.531555,21.719086c11.777283,11.430878 11.777283,12.239105 11.777283,12.239105" id="path3300"/>
  </g>
 </g>
</svg>