<?xml version="1.0"?><svg width="640" height="480" xmlns="http://www.w3.org/2000/svg">
 <metadata id="metadata7">image/svg+xml</metadata>
 <g>
  <title>Layer 1</title>
  <g id="g4175">
   <path fill="#bfbfbf" d="m230.430893,63.874741c0,0 23.379578,24.966599 74.796066,25.950333c50.924652,0.983765 74.304169,-26.002136 74.304169,-26.002136l0,27.259399c0,0 -9.084167,26.092041 -74.304169,26.002167c-65.219467,-0.089874 -74.796066,-25.950348 -74.796066,-25.950348l0,-27.259415z" id="path4153"/>
   <path fill="#e1e1e1" d="m380.232422,60.69281c0,16.479492 -33.600037,29.854156 -75.000031,29.854156c-41.399994,0 -74.999985,-13.374664 -74.999985,-29.854156c0,-16.479477 33.599991,-29.854156 74.999985,-29.854156c41.399994,0 75.000031,13.37468 75.000031,29.854156z" id="path4155"/>
   <path fill="#bfbfbf" d="m313.308105,31.037354l8.921021,0.372772l-26.069397,59.755188l-10.821289,-0.491882l27.969666,-59.636078z" id="path4157"/>
  </g>
  <g id="g4186">
   <path fill="#e2e000" d="m151.870117,109.630203c0,0 21.820923,23.302155 69.809662,24.220306c47.529572,0.918182 69.350555,-24.268677 69.350555,-24.268677l0,25.442139c0,0 -8.478577,24.35257 -69.350555,24.268692c-60.87149,-0.083908 -69.809662,-24.220337 -69.809662,-24.220337l0,-25.442123z" id="path4180"/>
   <path fill="#fffe3f" d="m291.684814,106.6604c0,15.380859 -31.359955,27.863876 -70,27.863876c-38.640015,0 -69.999969,-12.483017 -69.999969,-27.863876c0,-15.380859 31.359955,-27.863884 69.999969,-27.863884c38.640045,0 70,12.483025 70,27.863884z" id="path4182"/>
   <path fill="#e2e000" d="m229.222107,78.981979l8.326355,0.347893l-24.331451,55.771523l-10.099884,-0.459091l26.10498,-55.660324z" id="path4184"/>
  </g>
 </g>
</svg>