<?xml version="1.0" encoding="UTF-8" standalone="no"?>
<svg width="445px" height="365px" viewBox="0 0 445 365" version="1.1" xmlns="http://www.w3.org/2000/svg" xmlns:xlink="http://www.w3.org/1999/xlink">
    <!-- Generator: Sketch 3.7 (28169) - http://www.bohemiancoding.com/sketch -->
    <title>JM-light</title>
    <desc>Created with Sketch.</desc>
    <defs></defs>
    <g id="Logos" stroke="none" stroke-width="1" fill="none" fill-rule="evenodd">
        <g id="JMbox-light" transform="translate(-20.000000, -11.000000)">
            <g id="JM-light" transform="translate(20.000000, 11.000000)">
                <g id="J">
                    <path d="M23.472962,261.692917 C1.51732073,340.122717 48.3099618,359.298782 127.190389,359.298782 C206.070817,359.298782 208.129449,304.196886 191.381965,266.918698 C174.634482,229.640511 140.217558,219.411494 140.217558,174.538613" stroke="#50B38A" stroke-width="9.5"></path>
                    <g id="sides" transform="translate(62.074763, 8.022284)" stroke="#50B38A" stroke-width="9.5">
                        <path d="M0.648764218,168.294086 C5.54913667,168.294083 19.82366,162.216513 19.82366,129.105472 C19.82366,95.9944312 19.82366,87.8010481 37.3502711,60.1706241 C54.8768821,32.5402001 118.434329,0.84171329 41.8102967,0.84171329" id="right" transform="translate(39.699343, 84.567899) scale(-1, 1) translate(-39.699343, -84.567899) "></path>
                        <path d="M78.295823,168.294086 C83.1961955,168.294083 97.4707189,162.216513 97.4707189,129.105472 C97.4707189,95.9944312 97.4707189,87.8010481 114.99733,60.1706241 C132.523941,32.5402001 196.081388,0.84171329 119.457356,0.84171329" id="left"></path>
                    </g>
                    <g id="earpiece" transform="translate(86.961641, 0.000000)" fill="#F8F8F8">
                        <path d="M2.39623527,16.0306452 C4.45330897,17.0967923 9.72662787,17.0472074 12.5306415,17.0472074 C16.246809,17.0472074 19.1639929,15.4379081 21.3947184,13.6813177 C23.1957417,12.2630975 24.1225784,10.9210852 24.1225784,8.91470588 C24.1225784,6.30441556 21.3947184,4.1043953 19.3488235,3.42032942 C17.3029285,2.73626353 11.1652436,0.782204531 11.1652436,0.782204531 C11.1652436,0.782204531 4.62699991,-0.977755683 2.39623529,0.782204561 C0.599642782,2.19962501 0.369354026,6.91108007 0.369354026,8.91470598 C0.369354026,11.5310613 -0.474028873,14.5430349 2.39623527,16.0306452 Z" id="Oval-3-Copy-2"></path>
                        <path d="M85.1981687,16.0306452 C87.2552424,17.0967923 92.5285613,17.0472074 95.3325749,17.0472074 C99.0487425,17.0472074 101.965926,15.4379081 104.196652,13.6813177 C105.997675,12.2630975 106.924512,10.9210852 106.924512,8.91470588 C106.924512,6.30441556 104.196652,4.1043953 102.150757,3.42032942 C100.104862,2.73626353 93.9671771,0.782204531 93.9671771,0.782204531 C93.9671771,0.782204531 87.4289334,-0.977755683 85.1981688,0.782204561 C83.4015762,2.19962501 83.1712875,6.91108007 83.1712875,8.91470598 C83.1712875,11.5310613 82.3279046,14.5430349 85.1981687,16.0306452 Z" id="Oval-3-Copy-2" transform="translate(94.990125, 8.523783) scale(-1, 1) translate(-94.990125, -8.523783) "></path>
                    </g>
                    <g id="bell" transform="translate(0.498310, 194.517981)">
                        <ellipse id="bell-outer" fill="#E1DFDC" cx="34.1906996" cy="34.4555256" rx="34.1906996" ry="34.4555256"></ellipse>
                        <ellipse id="bell-inner" fill="#2B333D" cx="33.64799" cy="33.9086125" rx="16.2812855" ry="16.4073931"></ellipse>
                    </g>
                </g>
                <g id="M" transform="translate(228.959276, 37.103064)" stroke="#50B38A" stroke-width="9.5">
                    <path d="M0.0656037128,321.865782 L0.0656037128,1.21178052e-14 C4.19206745,-2.80975418e-14 -0.809706777,-6.83128894e-14 2.81657954,-2.80975424e-14 C5.75228268,4.615881 103.734412,186.481842 103.734412,186.481842 L108.82458,186.481842" id="M-left"></path>
                    <path d="M101.604065,321.865782 L101.604065,1.21178052e-14 C105.730529,-2.80975418e-14 100.728755,-6.83128894e-14 104.355041,-2.80975424e-14 C107.290744,4.615881 205.272873,186.481842 205.272873,186.481842 L210.363042,186.481842" id="M-right" transform="translate(155.983554, 160.932891) scale(-1, 1) translate(-155.983554, -160.932891) "></path>
                </g>
            </g>
        </g>
    </g>
</svg>