<svg width="2048px" height="400px" xmlns="http://www.w3.org/2000/svg" xmlns:xlink="http://www.w3.org/1999/xlink">
<g style="">  <path d="M56.460000,44.860000 C50.300000,44.860000,46.560000,48.820000,46.560000,54.540000 C46.560000,60.700000,50.740000,64.440000,56.460000,64.440000 C62.620000,64.440000,66.140000,60.260000,66.140000,54.540000 C66.140000,48.380000,62.180000,44.860000,56.460000,44.860000 ZM27.200000,250.780000 C49.200000,250.780000,63.940000,235.820000,63.940000,213.600000 L63.940000,106.900000 C63.940000,102.940000,64.600000,99.640000,65.040000,95.240000 L65.040000,93.480000 L32.700000,94.360000 L32.700000,98.320000 L36.660000,98.320000 C47.220000,98.320000,48.320000,99.420000,48.320000,109.980000 L48.320000,221.300000 C48.320000,235.160000,41.500000,244.840000,28.960000,244.840000 C24.560000,244.840000,22.140000,243.960000,11.360000,240.880000 L9.600000,247.040000 C12.680000,247.920000,19.500000,250.780000,27.200000,250.780000 ZM171.300000,127.580000 C171.300000,103.380000,157.220000,90.620000,131.260000,90.620000 C120.260000,90.620000,110.140000,93.040000,101.120000,100.300000 L101.120000,115.920000 L104.860000,115.920000 L104.860000,114.160000 C109.480000,101.400000,116.300000,96.340000,131.480000,96.340000 C147.320000,96.340000,155.680000,106.460000,155.680000,125.600000 L155.680000,136.600000 C151.940000,135.940000,146.220000,135.500000,142.040000,135.500000 C109.260000,135.500000,87.260000,152.000000,87.260000,172.680000 C87.260000,188.960000,100.680000,199.960000,120.700000,199.960000 C136.540000,199.960000,148.640000,190.060000,155.460000,175.320000 L156.340000,175.320000 C156.560000,183.020000,158.100000,186.320000,158.100000,196.220000 L158.100000,197.980000 L186.920000,195.120000 L186.700000,191.160000 L182.960000,191.380000 C181.200000,191.380000,179.880000,191.600000,178.560000,191.600000 C171.960000,191.600000,171.300000,189.180000,171.300000,180.380000 ZM120.700000,194.020000 C110.140000,194.020000,104.420000,186.540000,104.420000,172.680000 C104.420000,152.000000,118.060000,140.560000,143.140000,140.560000 C146.880000,140.560000,152.380000,141.220000,155.680000,141.880000 L155.680000,146.280000 C155.680000,174.880000,141.820000,194.020000,120.700000,194.020000 ZM194.620000,196.000000 L242.360000,196.000000 L242.360000,192.040000 L227.840000,192.040000 L227.840000,191.600000 C229.380000,190.060000,229.600000,189.400000,229.600000,185.880000 L229.600000,158.820000 L239.940000,146.060000 C245.880000,150.680000,252.040000,161.460000,259.300000,171.580000 L265.680000,180.600000 C275.140000,193.800000,280.420000,199.960000,289.220000,199.960000 C294.280000,199.960000,301.980000,197.760000,309.900000,195.120000 L309.240000,191.160000 L303.080000,192.040000 C302.200000,192.040000,301.540000,192.260000,300.880000,192.260000 C292.080000,192.260000,287.020000,183.900000,281.520000,175.980000 L272.940000,163.880000 C264.360000,151.780000,259.080000,144.080000,245.440000,139.460000 L245.440000,138.800000 L266.780000,111.520000 C276.020000,99.860000,283.720000,98.320000,294.280000,98.320000 L299.340000,98.320000 L299.340000,94.360000 L261.280000,94.360000 L261.280000,98.320000 L271.620000,98.320000 L271.620000,98.760000 C269.420000,99.640000,268.320000,99.860000,262.820000,106.900000 L233.560000,144.300000 C231.360000,146.940000,229.820000,150.020000,229.600000,150.680000 L228.940000,150.240000 C229.160000,149.360000,229.600000,146.060000,229.600000,142.760000 L229.600000,44.420000 C229.600000,40.460000,230.260000,36.940000,230.700000,32.540000 L230.700000,31.000000 L198.360000,31.880000 L198.360000,35.840000 L202.320000,35.840000 C212.880000,35.840000,213.980000,36.940000,213.980000,47.500000 L213.980000,180.380000 C213.980000,188.080000,210.020000,192.040000,202.320000,192.040000 L194.620000,192.040000 ZM334.100000,135.500000 C334.980000,111.960000,346.860000,96.340000,364.240000,96.340000 C382.720000,96.340000,392.620000,109.320000,392.620000,133.520000 C392.620000,134.840000,391.960000,135.500000,390.860000,135.500000 ZM409.340000,137.480000 L409.340000,133.520000 C409.340000,106.020000,388.880000,90.620000,367.320000,90.620000 C337.400000,90.620000,317.380000,112.400000,317.380000,145.180000 C317.380000,177.960000,337.840000,199.960000,368.200000,199.960000 C388.000000,199.960000,400.980000,190.060000,409.340000,171.580000 L404.060000,169.380000 C396.580000,185.220000,385.360000,194.020000,369.520000,194.020000 C346.860000,194.020000,334.760000,175.540000,334.100000,141.220000 L405.380000,141.220000 C407.800000,141.220000,409.340000,139.900000,409.340000,137.480000 ZM421.000000,196.000000 L475.560000,196.000000 L475.560000,192.040000 L467.860000,192.040000 C457.300000,192.040000,455.980000,190.940000,455.980000,180.380000 L455.980000,147.160000 C455.980000,116.580000,469.400000,96.340000,489.420000,96.340000 C499.540000,96.340000,504.820000,106.020000,504.820000,123.840000 L504.820000,185.880000 C504.820000,189.400000,505.260000,190.060000,506.800000,191.600000 L506.800000,192.040000 L492.060000,192.040000 L492.060000,196.000000 L538.040000,196.000000 L538.040000,192.040000 L532.320000,192.040000 C521.760000,192.040000,520.440000,190.940000,520.440000,180.380000 L520.440000,147.160000 C520.440000,116.580000,533.860000,96.340000,553.880000,96.340000 C564.000000,96.340000,569.280000,106.020000,569.280000,123.840000 L569.280000,185.880000 C569.280000,189.400000,569.720000,190.060000,571.260000,191.600000 L571.260000,192.040000 L554.540000,192.040000 L554.540000,196.000000 L602.500000,196.000000 L602.500000,192.040000 L596.780000,192.040000 C586.220000,192.040000,584.900000,190.940000,584.900000,180.380000 L584.900000,119.880000 C584.900000,100.740000,574.780000,90.620000,555.860000,90.620000 C541.560000,90.620000,529.900000,98.540000,523.080000,112.180000 C522.200000,114.160000,521.100000,117.020000,520.660000,118.780000 L520.440000,119.440000 L519.340000,119.440000 L519.560000,118.780000 C519.780000,117.680000,519.780000,116.140000,519.780000,114.380000 C519.780000,112.620000,519.560000,110.860000,519.340000,109.760000 C515.600000,96.560000,506.360000,90.620000,491.400000,90.620000 C475.120000,90.620000,462.580000,100.740000,455.980000,117.900000 L454.880000,117.900000 L454.880000,117.240000 C455.760000,115.920000,455.980000,113.940000,455.980000,110.420000 L455.980000,106.900000 C455.980000,102.940000,456.640000,98.540000,457.080000,94.140000 L457.080000,92.600000 L424.740000,94.360000 L424.740000,98.320000 L428.700000,98.320000 C439.260000,98.320000,440.360000,99.420000,440.360000,109.980000 L440.360000,180.380000 C440.360000,190.940000,439.260000,192.040000,428.700000,192.040000 L421.000000,192.040000 ZM703.920000,175.760000 L698.420000,173.340000 C690.940000,186.540000,680.600000,194.020000,666.080000,194.020000 C642.980000,194.020000,630.660000,176.200000,630.660000,142.980000 C630.660000,112.840000,641.660000,96.340000,662.340000,96.340000 C676.860000,96.340000,688.740000,104.040000,691.160000,123.180000 L691.380000,123.840000 L697.100000,123.620000 L695.340000,88.420000 L691.380000,88.640000 L691.820000,98.100000 C691.820000,101.180000,692.480000,102.060000,692.920000,103.600000 L692.040000,103.820000 C691.380000,101.620000,690.720000,99.860000,688.960000,98.540000 C680.820000,93.040000,671.580000,90.620000,662.340000,90.620000 C633.520000,90.620000,613.940000,112.620000,613.940000,145.840000 C613.940000,178.180000,634.400000,199.960000,664.760000,199.960000 C683.020000,199.960000,695.560000,191.600000,703.920000,175.760000 ZM807.320000,175.760000 L801.820000,173.340000 C794.340000,186.540000,784.000000,194.020000,769.480000,194.020000 C746.380000,194.020000,734.060000,176.200000,734.060000,142.980000 C734.060000,112.840000,745.060000,96.340000,765.740000,96.340000 C780.260000,96.340000,792.140000,104.040000,794.560000,123.180000 L794.780000,123.840000 L800.500000,123.620000 L798.740000,88.420000 L794.780000,88.640000 L795.220000,98.100000 C795.220000,101.180000,795.880000,102.060000,796.320000,103.600000 L795.440000,103.820000 C794.780000,101.620000,794.120000,99.860000,792.360000,98.540000 C784.220000,93.040000,774.980000,90.620000,765.740000,90.620000 C736.920000,90.620000,717.340000,112.620000,717.340000,145.840000 C717.340000,178.180000,737.800000,199.960000,768.160000,199.960000 C786.420000,199.960000,798.960000,191.600000,807.320000,175.760000 ZM817.000000,196.000000 L871.560000,196.000000 L871.560000,192.040000 L863.860000,192.040000 C856.160000,192.040000,851.980000,188.080000,851.980000,180.380000 L851.980000,44.420000 C851.980000,40.460000,852.640000,36.940000,853.080000,32.540000 L853.080000,31.000000 L820.740000,31.880000 L820.740000,35.840000 L824.700000,35.840000 C835.260000,35.840000,836.360000,36.940000,836.360000,47.500000 L836.360000,180.380000 C836.360000,188.080000,832.400000,192.040000,824.700000,192.040000 L817.000000,192.040000 ZM998.280000,196.000000 L998.280000,192.040000 L994.540000,192.040000 C983.980000,192.040000,982.660000,190.940000,982.660000,180.380000 L982.660000,106.900000 C982.660000,102.940000,983.320000,99.640000,983.760000,95.240000 L983.760000,93.480000 L951.420000,94.360000 L951.420000,98.320000 L955.380000,98.320000 C965.940000,98.320000,967.040000,99.420000,967.040000,109.980000 L967.040000,142.320000 C967.040000,172.680000,952.080000,194.020000,929.860000,194.020000 C917.100000,194.020000,910.500000,183.240000,910.500000,162.780000 L910.500000,106.900000 C910.500000,102.940000,910.940000,99.640000,911.380000,95.240000 L911.380000,93.480000 L879.260000,94.360000 L879.260000,98.320000 L883.000000,98.320000 C893.560000,98.320000,894.880000,99.420000,894.880000,109.980000 L894.880000,166.740000 C894.880000,188.300000,906.320000,199.960000,927.880000,199.960000 C946.140000,199.960000,960.440000,188.080000,967.040000,170.480000 L968.360000,170.480000 L968.360000,170.920000 C967.480000,172.240000,967.040000,174.440000,967.040000,177.960000 L967.040000,183.680000 C967.040000,187.640000,966.600000,191.820000,966.160000,196.220000 L966.160000,197.980000 ZM1040.960000,122.740000 L1039.860000,122.740000 L1039.860000,122.300000 C1040.740000,120.980000,1040.960000,118.780000,1040.960000,115.260000 L1040.960000,106.900000 C1040.960000,102.940000,1041.620000,97.660000,1042.060000,93.260000 L1042.060000,91.500000 L1009.720000,94.360000 L1009.720000,98.320000 L1013.680000,98.320000 C1024.240000,98.320000,1025.340000,99.420000,1025.340000,109.980000 L1025.340000,180.380000 C1025.340000,188.080000,1021.380000,192.040000,1013.680000,192.040000 L1005.980000,192.040000 L1005.980000,196.000000 L1060.540000,196.000000 L1060.540000,192.040000 L1052.840000,192.040000 C1045.140000,192.040000,1040.960000,188.080000,1040.960000,180.380000 L1040.960000,155.960000 C1040.960000,119.000000,1055.920000,94.360000,1078.140000,94.360000 L1078.140000,94.580000 C1077.260000,95.900000,1076.600000,97.660000,1076.600000,99.640000 C1076.600000,104.920000,1081.220000,109.540000,1086.500000,109.540000 C1091.780000,109.540000,1096.180000,104.920000,1096.180000,99.640000 C1096.180000,95.240000,1093.320000,91.720000,1089.580000,90.400000 C1086.060000,89.080000,1082.320000,88.640000,1078.140000,88.640000 C1059.880000,88.640000,1047.560000,102.940000,1040.960000,122.740000 ZM1124.340000,135.500000 C1125.220000,111.960000,1137.100000,96.340000,1154.480000,96.340000 C1172.960000,96.340000,1182.860000,109.320000,1182.860000,133.520000 C1182.860000,134.840000,1182.200000,135.500000,1181.100000,135.500000 ZM1199.580000,137.480000 L1199.580000,133.520000 C1199.580000,106.020000,1179.120000,90.620000,1157.560000,90.620000 C1127.640000,90.620000,1107.620000,112.400000,1107.620000,145.180000 C1107.620000,177.960000,1128.080000,199.960000,1158.440000,199.960000 C1178.240000,199.960000,1191.220000,190.060000,1199.580000,171.580000 L1194.300000,169.380000 C1186.820000,185.220000,1175.600000,194.020000,1159.760000,194.020000 C1137.100000,194.020000,1125.000000,175.540000,1124.340000,141.220000 L1195.620000,141.220000 C1198.040000,141.220000,1199.580000,139.900000,1199.580000,137.480000 Z" style="fill: rgba(52, 133, 75, 1.000000); stroke-width: 0.000000px; stroke: rgba(52, 133, 75, 1.000000); " fill="#3f945d" stroke="#3f945d" stroke-width="0.000000" />
  <path d="M1234.800000,181.000000 C1232.000000,181.000000,1230.300000,182.900000,1230.300000,185.500000 C1230.300000,188.300000,1232.200000,189.900000,1234.800000,189.900000 C1237.600000,189.900000,1239.200000,188.100000,1239.200000,185.500000 C1239.200000,182.700000,1237.400000,181.000000,1234.800000,181.000000 ZM1246.300000,189.000000 L1271.100000,189.000000 L1271.100000,187.200000 L1267.600000,187.200000 C1262.800000,187.200000,1262.200000,186.700000,1262.200000,181.900000 L1262.200000,167.200000 C1262.200000,153.400000,1269.100000,143.700000,1279.200000,143.700000 C1285.000000,143.700000,1288.000000,148.600000,1288.000000,157.900000 L1288.000000,184.400000 C1288.000000,186.000000,1288.200000,186.300000,1288.900000,187.000000 L1288.900000,187.200000 L1281.300000,187.200000 L1281.300000,189.000000 L1303.100000,189.000000 L1303.100000,187.200000 L1300.400000,187.200000 C1295.600000,187.200000,1295.100000,186.700000,1295.100000,181.900000 L1295.100000,156.200000 C1295.100000,146.400000,1289.800000,141.100000,1280.000000,141.100000 C1271.700000,141.100000,1265.200000,146.500000,1262.200000,154.500000 L1261.700000,154.500000 L1261.700000,154.200000 C1262.000000,153.400000,1262.200000,152.700000,1262.200000,151.100000 L1262.200000,148.500000 C1262.200000,146.700000,1262.500000,144.700000,1262.700000,142.700000 L1262.700000,142.000000 L1248.000000,142.800000 L1248.000000,144.600000 L1249.800000,144.600000 C1254.600000,144.600000,1255.100000,145.100000,1255.100000,149.900000 L1255.100000,181.900000 C1255.100000,186.700000,1254.600000,187.200000,1249.800000,187.200000 L1246.300000,187.200000 ZM1315.900000,161.500000 C1316.300000,150.800000,1321.700000,143.700000,1329.600000,143.700000 C1338.000000,143.700000,1342.500000,149.600000,1342.500000,160.600000 C1342.500000,161.200000,1342.200000,161.500000,1341.700000,161.500000 ZM1350.100000,162.400000 L1350.100000,160.600000 C1350.100000,148.100000,1340.800000,141.100000,1331.000000,141.100000 C1317.400000,141.100000,1308.300000,151.000000,1308.300000,165.900000 C1308.300000,180.800000,1317.600000,190.800000,1331.400000,190.800000 C1340.400000,190.800000,1346.300000,186.300000,1350.100000,177.900000 L1347.700000,176.900000 C1344.300000,184.100000,1339.200000,188.100000,1332.000000,188.100000 C1321.700000,188.100000,1316.200000,179.700000,1315.900000,164.100000 L1348.300000,164.100000 C1349.400000,164.100000,1350.100000,163.500000,1350.100000,162.400000 ZM1371.300000,145.500000 L1391.800000,145.500000 L1391.800000,142.800000 L1370.000000,142.800000 L1370.000000,142.700000 C1370.800000,142.300000,1371.300000,141.700000,1371.300000,139.600000 L1371.300000,126.900000 L1368.700000,128.600000 L1366.900000,137.500000 C1366.200000,141.000000,1365.100000,142.800000,1361.600000,142.800000 L1355.400000,142.800000 L1355.400000,145.500000 L1364.200000,145.500000 L1364.200000,176.600000 C1364.200000,185.100000,1370.000000,190.800000,1378.500000,190.800000 C1386.500000,190.800000,1391.800000,185.800000,1391.800000,178.400000 L1389.100000,178.400000 C1389.100000,184.300000,1384.900000,188.100000,1378.500000,188.100000 C1373.900000,188.100000,1371.300000,185.000000,1371.300000,179.200000 Z" style="fill: rgba(210, 191, 134, 1.000000); stroke-width: 0.000000px; stroke: rgba(210, 191, 134, 1.000000); " fill="#dac997" stroke="#dac997" stroke-width="0.000000" />
</g></svg>
