<?xml version="1.0" encoding="UTF-8" standalone="no"?>
<svg width="502px" height="502px" viewBox="0 0 502 502" version="1.1" xmlns="http://www.w3.org/2000/svg" xmlns:xlink="http://www.w3.org/1999/xlink">
    <!-- Generator: Sketch 3.7 (28169) - http://www.bohemiancoding.com/sketch -->
    <title>box</title>
    <desc>Created with Sketch.</desc>
    <defs>
        <rect id="path-1" x="0" y="0" width="502" height="502"></rect>
        <mask id="mask-2" maskContentUnits="userSpaceOnUse" maskUnits="objectBoundingBox" x="0" y="0" width="502" height="502" fill="white">
            <use xlink:href="#path-1"></use>
        </mask>
        <ellipse id="path-3" cx="34.3461118" cy="34.3598158" rx="34.3461118" ry="34.3598158"></ellipse>
        <mask id="mask-4" maskContentUnits="userSpaceOnUse" maskUnits="objectBoundingBox" x="-2.15980954" y="-2.15980954" width="73.0118427" height="73.0392506">
            <rect x="-2.15980954" y="-2.15980954" width="73.0118427" height="73.0392506" fill="white"></rect>
            <use xlink:href="#path-3" fill="black"></use>
        </mask>
        <ellipse id="path-5" cx="33.8009354" cy="33.8144219" rx="16.3552913" ry="16.361817"></ellipse>
        <mask id="mask-6" maskContentUnits="userSpaceOnUse" maskUnits="objectBoundingBox" x="-2.15980954" y="-2.15980954" width="37.0302018" height="37.0432531">
            <rect x="15.2858346" y="15.2927953" width="37.0302018" height="37.0432531" fill="white"></rect>
            <use xlink:href="#path-5" fill="black"></use>
        </mask>
    </defs>
    <g id="Logos" stroke="none" stroke-width="1" fill="none" fill-rule="evenodd">
        <g id="JMbox-shadow">
            <g id="box">
                <g id="rectangles" fill="#FCFCFC">
                    <rect id="Rectangle-1-Copy" fill-opacity="0.800000012" x="0" y="0" width="502" height="502"></rect>
                    <use id="Rectangle-1" stroke="#31363D" mask="url(#mask-2)" stroke-width="10" fill-opacity="0.1" xlink:href="#path-1"></use>
                </g>
                <g id="JM" transform="translate(48.000000, 45.000000)">
                    <g id="M" transform="translate(219.465082, 108.178771)" stroke="#2B333D" stroke-width="8.27999983">
                        <path d="M0.314232287,303.821229 L0.314232287,4.03479557e-14 C4.45945268,2.44318012e-16 -0.565056888,-3.98593204e-14 3.07771255,2.44317338e-16 C6.02675979,4.60305911 90.689864,185.963833 90.689864,185.963833 L96.9055007,185.963833" id="m-left"></path>
                        <path d="M88.7456007,303.821229 L88.7456007,4.03479557e-14 C92.8908211,2.44318012e-16 87.8663115,-3.98593204e-14 91.5090809,2.44317338e-16 C94.4581282,4.60305911 179.121232,185.963833 179.121232,185.963833 L185.336869,185.963833" id="m-right" transform="translate(137.032419, 151.910615) scale(-1, 1) translate(-137.032419, -151.910615) "></path>
                    </g>
                    <g id="J" transform="translate(17.499425, 0.000000)">
                        <path d="M5.57965727,310.965992 C-16.4757824,389.177932 30.5295525,408.30073 109.768528,408.30073 C189.007503,408.30073 187.256677,321.909542 167.451152,274.495022 C147.645627,227.080502 144.088233,219.816485 144.088233,175.068251" stroke="#2B333D" stroke-width="7.82459984"></path>
                        <g id="sides" transform="translate(60.356921, 8.000000)" stroke="#2B333D" stroke-width="7.82459984">
                            <path d="M82.1649508,167.826602 C87.0875977,167.8266 110.775646,162.122631 110.775646,128.889355 C110.775646,95.6560796 122.793252,85.0913127 135.826625,64.8318824 C148.859998,44.572452 200.485904,0.839375197 123.513581,0.839375197" id="left"></path>
                            <path d="M0.410684584,167.826602 C5.33333146,167.8266 29.0213796,162.122631 29.0213796,128.889355 C29.0213796,95.6560796 41.0389857,85.0913127 54.0723587,64.8318824 C67.1057317,44.572452 118.731638,0.839375197 41.7593149,0.839375197" id="right" transform="translate(41.759281, 84.332989) scale(-1, 1) translate(-41.759281, -84.332989) "></path>
                        </g>
                        <g id="earpiece" transform="translate(100.356921, 0.000000)" fill="#F7784A">
                            <path d="M2.40712724,15.9861156 C4.47355128,17.0493012 9.77083982,16.9998541 12.5875989,16.9998541 C16.3206581,16.9998541 19.2511019,15.395025 21.4919672,13.643314 C23.3011769,12.2290333 24.2322265,10.8907489 24.2322265,8.88994281 C24.2322265,6.28690329 21.4919672,4.0929942 19.4367727,3.4108285 C17.3815782,2.7286628 11.2159947,0.78003174 11.2159947,0.78003174 C11.2159947,0.78003174 4.64803173,-0.975039695 2.40712727,0.780031771 C0.602368431,2.19351494 0.371032908,6.89188262 0.371032908,8.88994291 C0.371032908,11.4990306 -0.47618355,14.5026376 2.40712724,15.9861156 Z" id="Oval-3-Copy-2"></path>
                            <path d="M64.5854331,15.9861156 C66.6518572,17.0493012 71.9491457,16.9998541 74.7659048,16.9998541 C78.498964,16.9998541 81.4294078,15.395025 83.670273,13.643314 C85.4794828,12.2290333 86.4105324,10.8907489 86.4105324,8.88994281 C86.4105324,6.28690329 83.670273,4.0929942 81.6150786,3.4108285 C79.5598841,2.7286628 73.3943006,0.78003174 73.3943006,0.78003174 C73.3943006,0.78003174 66.8263376,-0.975039695 64.5854332,0.780031771 C62.7806743,2.19351494 62.5493388,6.89188262 62.5493388,8.88994291 C62.5493388,11.4990306 61.7021223,14.5026376 64.5854331,15.9861156 Z" id="Oval-3-Copy-2" transform="translate(74.421898, 8.500106) scale(-1, 1) translate(-74.421898, -8.500106) "></path>
                        </g>
                    </g>
                    <g id="bell" transform="translate(0.000000, 243.977654)">
                        <g id="bell-outer">
                            <use fill="#F8F8F8" fill-rule="evenodd" xlink:href="#path-3"></use>
                            <use stroke="#2B333D" mask="url(#mask-4)" stroke-width="4.31961908" xlink:href="#path-3"></use>
                        </g>
                        <g id="bell-inner">
                            <use fill="#F8784A" fill-rule="evenodd" xlink:href="#path-5"></use>
                            <use stroke="#2B333D" mask="url(#mask-6)" stroke-width="4.31961908" xlink:href="#path-5"></use>
                        </g>
                    </g>
                </g>
            </g>
        </g>
    </g>
</svg>