<svg viewBox="0 0 449 364" version="1.1" xmlns="http://www.w3.org/2000/svg" xmlns:xlink="http://www.w3.org/1999/xlink">
    <defs>
        <ellipse id="path-1" cx="34.3461118" cy="34.3598158" rx="34.3461118" ry="34.3598158"></ellipse>
        <mask id="mask-2" maskContentUnits="userSpaceOnUse" maskUnits="objectBoundingBox" x="-2" y="-2" width="72.6922237" height="72.7196315">
            <rect x="-2" y="-2" width="72.6922237" height="72.7196315" fill="white"></rect>
            <use xlink:href="#path-1" fill="black"></use>
        </mask>
        <ellipse id="path-3" cx="33.8009354" cy="33.8144219" rx="16.3552913" ry="16.361817"></ellipse>
        <mask id="mask-4" maskContentUnits="userSpaceOnUse" maskUnits="objectBoundingBox" x="-2" y="-2" width="36.7105827" height="36.7236341">
            <rect x="15.4456441" y="15.4526048" width="36.7105827" height="36.7236341" fill="white"></rect>
            <use xlink:href="#path-3" fill="black"></use>
        </mask>
    </defs>
    <g id="Logos" stroke="none" stroke-width="1" fill="none" fill-rule="evenodd">
        <g id="JMbox-dark" transform="translate(0.000000, -3.000000)">
            <g id="JM-dark" transform="translate(2.000000, 3.000000)">
                <g id="J">
                    <path d="M23.5796573,260.965992 C1.52421764,339.177932 48.5295525,358.30073 127.768528,358.30073 C207.007503,358.30073 209.075492,303.351894 192.251883,266.177257 C175.428275,229.002621 140.854911,218.802018 140.854911,174.053783" stroke="#2B333D" stroke-width="9.5"></path>
                    <g id="sides" transform="translate(62.356921, 8.000000)" stroke="#2B333D" stroke-width="9.5">
                        <path d="M0.651713146,167.826602 C5.57436002,167.8266 19.9137676,161.765912 19.9137676,128.746846 C19.9137676,95.72778 19.9137676,87.5571563 37.5200451,60.0034835 C55.1263225,32.4498107 118.972667,0.839375197 42.0003435,0.839375197" id="right" transform="translate(39.879795, 84.332989) scale(-1, 1) translate(-39.879795, -84.332989) "></path>
                        <path d="M78.6517131,167.826602 C83.57436,167.8266 97.9137676,161.765912 97.9137676,128.746846 C97.9137676,95.72778 97.9137676,87.5571563 115.520045,60.0034835 C133.126323,32.4498107 196.972667,0.839375197 120.000343,0.839375197" id="left"></path>
                    </g>
                    <g id="earpiece" transform="translate(87.356921, 0.000000)" fill="#50B38A">
                        <path d="M2.40712724,15.9861156 C4.47355128,17.0493012 9.77083982,16.9998541 12.5875989,16.9998541 C16.3206581,16.9998541 19.2511019,15.395025 21.4919672,13.643314 C23.3011769,12.2290333 24.2322265,10.8907489 24.2322265,8.88994281 C24.2322265,6.28690329 21.4919672,4.0929942 19.4367727,3.4108285 C17.3815782,2.7286628 11.2159947,0.78003174 11.2159947,0.78003174 C11.2159947,0.78003174 4.64803173,-0.975039695 2.40712727,0.780031771 C0.602368431,2.19351494 0.371032908,6.89188262 0.371032908,8.88994291 C0.371032908,11.4990306 -0.47618355,14.5026376 2.40712724,15.9861156 Z" id="Oval-3-Copy-2"></path>
                        <path d="M85.5854331,15.9861156 C87.6518572,17.0493012 92.9491457,16.9998541 95.7659048,16.9998541 C99.498964,16.9998541 102.429408,15.395025 104.670273,13.643314 C106.479483,12.2290333 107.410532,10.8907489 107.410532,8.88994281 C107.410532,6.28690329 104.670273,4.0929942 102.615079,3.4108285 C100.559884,2.7286628 94.3943006,0.78003174 94.3943006,0.78003174 C94.3943006,0.78003174 87.8263376,-0.975039695 85.5854332,0.780031771 C83.7806743,2.19351494 83.5493388,6.89188262 83.5493388,8.88994291 C83.5493388,11.4990306 82.7021223,14.5026376 85.5854331,15.9861156 Z" id="Oval-3-Copy-2" transform="translate(95.421898, 8.500106) scale(-1, 1) translate(-95.421898, -8.500106) "></path>
                    </g>
                    <g id="bell" transform="translate(0.500575, 193.977654)">
                        <g id="bell-outer">
                            <use fill-opacity="0.3028476" fill="#C3C3C3" fill-rule="evenodd" xlink:href="#path-1"></use>
                            <use stroke="#2B333D" mask="url(#mask-2)" stroke-width="4" xlink:href="#path-1"></use>
                        </g>
                        <g id="bell-inner">
                            <use fill="#50B38A" fill-rule="evenodd" xlink:href="#path-3"></use>
                            <use stroke="#2B333D" mask="url(#mask-4)" stroke-width="4" xlink:href="#path-3"></use>
                        </g>
                    </g>
                </g>
                <g id="M" transform="translate(230.000000, 37.000000)" stroke="#2B333D" stroke-width="9.5">
                    <path d="M0.0659019115,320.97171 L0.0659019115,1.19262463e-14 C4.2111223,-2.81773914e-14 -0.813387263,-6.82810298e-14 2.82938217,-2.81773921e-14 C5.77842942,4.60305911 104.205932,185.963837 104.205932,185.963837 L109.319237,185.963837" id="M-left"></path>
                    <path d="M102.065902,320.97171 L102.065902,1.19262463e-14 C106.211122,-2.81773914e-14 101.186613,-6.82810298e-14 104.829382,-2.81773921e-14 C107.778429,4.60305911 206.205932,185.963837 206.205932,185.963837 L211.319237,185.963837" id="M-right" transform="translate(156.692570, 160.485855) scale(-1, 1) translate(-156.692570, -160.485855) "></path>
                </g>
            </g>
        </g>
    </g>
</svg>
