<svg viewBox="0 0 48 48" version="1.1" xmlns="http://www.w3.org/2000/svg" xmlns:xlink="http://www.w3.org/1999/xlink">
    <defs>
        <path d="M1.13686838e-13,5 C-0.000234407445,9 3.49976543,9.99999988 4,10 C5.00000014,10.0000002 31,10 32,10 C33,10 36,9 36,5 C36,1 33,2.7339242e-15 32,2.7339242e-15 C31,2.7339242e-15 5,-3.77301752e-10 4,2.7339242e-15 C3,3.77307185e-10 0.000234407446,1 1.13686838e-13,5 Z" id="path-1"></path>
        <mask id="mask-2" maskContentUnits="userSpaceOnUse" maskUnits="objectBoundingBox" x="-0.5" y="-0.5" width="37" height="11.0000001">
            <rect x="-0.5" y="-0.5" width="37" height="11.0000001" fill="white"></rect>
            <use xlink:href="#path-1" fill="black"></use>
        </mask>
        <path d="M1.20792265e-13,5 C-0.000234407445,9 3.49976543,9.99999988 4,10 C5.00000014,10.0000002 31,10 32,10 C33,10 36,9 36,5 C36,1 33,-5.85503868e-14 32,-5.85503868e-14 C31,-5.85503868e-14 5,-3.77363037e-10 4,-5.85503868e-14 C3,3.77245901e-10 0.000234407446,1 1.20792265e-13,5 Z" id="path-3"></path>
        <mask id="mask-4" maskContentUnits="userSpaceOnUse" maskUnits="objectBoundingBox" x="-0.5" y="-0.5" width="37" height="11.0000001">
            <rect x="-0.5" y="-0.5" width="37" height="11.0000001" fill="white"></rect>
            <use xlink:href="#path-3" fill="black"></use>
        </mask>
    </defs>
    <g id="Page-1" stroke="none" stroke-width="1" fill="none" fill-rule="evenodd">
        <g id="menu-orangePillx">
            <g id="ic_menu_48px">
                <g id="bottom" transform="translate(24.000000, 24.000000) rotate(-45.000000) translate(-24.000000, -24.000000) translate(6.000000, 19.000000)">
                    <g id="pill-bottom">
                        <use fill="#FFFFFF" fill-rule="evenodd" xlink:href="#path-1"></use>
                        <use stroke="#F9831A" mask="url(#mask-2)" stroke-width="1" xlink:href="#path-1"></use>
                    </g>
                    <path d="M17,5 C17,8 15.5002346,9.99999988 15,10 C13.9999999,10.0000002 5,10 4,10 C3,10 -2.84217094e-14,9 -2.84217094e-14,5 C-2.84217094e-14,1 3,-5.41788836e-14 4,-5.41788836e-14 C5,-5.41788836e-14 14,-3.77358693e-10 15,-5.41788836e-14 C16,3.77250453e-10 17,2 17,5 Z" id="pill-bottom-copy"></path>
                </g>
                <g id="top" transform="translate(24.000000, 24.000000) rotate(-315.000000) translate(-24.000000, -24.000000) translate(6.000000, 19.000000)">
                    <g id="pill-top">
                        <use fill="#FFFFFF" fill-rule="evenodd" xlink:href="#path-3"></use>
                        <use stroke="#F9831A" mask="url(#mask-4)" stroke-width="1" xlink:href="#path-3"></use>
                    </g>
                    <path d="M17,5 C17,8 15.5002346,9.99999988 15,10 C13.9999999,10.0000002 5,10 4,10 C3,10 9.23705556e-14,9 -2.13162821e-14,5 C-1.3500312e-13,1 3,-3.73034936e-14 4,-3.73034936e-14 C5,-3.73034936e-14 14,-3.77341818e-10 15,-3.73034936e-14 C16,3.77267328e-10 17,2 17,5 Z" id="pill-top-copy"></path>
                </g>
            </g>
        </g>
    </g>
</svg>
