<svg viewBox="0 0 272 181" version="1.1" xmlns="http://www.w3.org/2000/svg" xmlns:xlink="http://www.w3.org/1999/xlink">
    <defs>
        <rect id="path-1" x="0" y="0" width="30" height="24" rx="1.5"></rect>
        <linearGradient x1="50%" y1="0%" x2="50%" y2="100%" id="linearGradient-3">
            <stop stop-color="#A8A8A8" stop-opacity="0.645974864" offset="0%"></stop>
            <stop stop-color="#3E4756" stop-opacity="0.541836504" offset="100%"></stop>
        </linearGradient>
        <ellipse id="path-4" cx="1.49610649" cy="1.50943575" rx="1.49610649" ry="1.50943575"></ellipse>
        <mask id="mask-5" maskContentUnits="userSpaceOnUse" maskUnits="objectBoundingBox" x="-0.75" y="-0.75" width="4.49221299" height="4.51887151">
            <rect x="-0.75" y="-0.75" width="4.49221299" height="4.51887151" fill="white"></rect>
            <use xlink:href="#path-4" fill="black"></use>
        </mask>
        <path d="M1.47235877,2.20425539 C1.86582392,2.20425539 2.18479044,1.8824471 2.18479044,1.48547646 C2.18479044,1.08850581 1.86582392,0.766697525 1.47235877,0.766697525 C1.07889363,0.766697525 0.759927108,1.08850581 0.759927108,1.48547646 C0.759927108,1.8824471 1.07889363,2.20425539 1.47235877,2.20425539 Z" id="path-6"></path>
        <mask id="mask-7" maskContentUnits="userSpaceOnUse" maskUnits="objectBoundingBox" x="-0.75" y="-0.75" width="2.92486333" height="2.93755786">
            <rect x="0.00992710823" y="0.0166975255" width="2.92486333" height="2.93755786" fill="white"></rect>
            <use xlink:href="#path-6" fill="black"></use>
        </mask>
    </defs>
    <g id="Page-1" stroke="none" stroke-width="1" fill="none" fill-rule="evenodd">
        <g id="pager" transform="translate(-48.000000, -199.000000)">
            <g transform="translate(46.000000, 195.000000)" id="pager-face">
                <g transform="translate(2.000000, 4.000000)">
                    <path d="M0,22.6719241 C0,10.1505662 10.1458456,0 22.6645298,0 L249.33547,0 C261.852744,0 272,10.1518076 272,22.6719241 L272,158.328076 C272,170.849434 261.854154,181 249.33547,181 L22.6645298,181 C10.1472556,181 0,170.848192 0,158.328076 L0,22.6719241 Z M22.6666667,11.3253896 C22.6666667,10.0687266 23.6721824,9.05 24.9362895,9.05 L251.597044,9.05 C252.850522,9.05 253.866667,10.071797 253.866667,11.3253896 L253.866667,106.72461 C253.866667,107.981273 252.861151,109 251.597044,109 L24.9362895,109 C23.6828114,109 22.6666667,107.978203 22.6666667,106.72461 L22.6666667,11.3253896 Z" fill="#3F3F3F"></path>
                    <g id="buttons-bottom" transform="translate(27.000000, 116.000000)">
                        <g id="button-R" transform="translate(165.000000, 7.000000)">
                            <rect id="buttonR" fill="#333333" x="0" y="0" width="60" height="48" rx="9.61767956"></rect>
                            <path d="M41.9387755,18.7677165 C41.9387755,18.507874 41.9387755,18.2480315 41.9267707,17.988189 C43.1272509,17.1377953 44.1716687,16.0629921 45,14.8464567 C43.8955582,15.3307087 42.7070828,15.6496063 41.4585834,15.8031496 C42.7310924,15.0590551 43.7034814,13.8661417 44.1716687,12.4488189 C42.9831933,13.1456693 41.6626651,13.6417323 40.2581032,13.9133858 C39.1296519,12.7322835 37.5330132,12 35.7683073,12 C32.3709484,12 29.6098439,14.7165354 29.6098439,18.0590551 C29.6098439,18.5314961 29.6698679,18.992126 29.7659064,19.4409449 C24.6518607,19.1929134 20.1140456,16.7716535 17.0768307,13.1102362 C16.5486194,14.007874 16.2484994,15.0472441 16.2484994,16.1574803 C16.2484994,18.2598425 17.3409364,20.1141732 18.9855942,21.2007874 C17.9771909,21.1653543 17.0288115,20.8937008 16.2004802,20.4448819 L16.2004802,20.5275591 C16.2004802,23.4566929 18.3253301,25.9133858 21.1344538,26.4685039 C20.6182473,26.6102362 20.0780312,26.6811024 19.5138055,26.6811024 C19.1176471,26.6811024 18.7334934,26.6456693 18.3613445,26.5748031 C19.1416567,28.984252 21.422569,30.7322835 24.1116447,30.7795276 C21.9987995,32.4094488 19.3457383,33.3779528 16.4645858,33.3779528 C15.972389,33.3779528 15.4801921,33.3543307 15,33.2952756 C17.7130852,34.996063 20.9543818,36 24.4237695,36 C35.7442977,36 41.9387755,26.7637795 41.9387755,18.7677165 Z" id="Shape" stroke="#1DA1F2" stroke-width="0.6" fill="#1DA1F2"></path>
                        </g>
                        <g id="button-L" transform="translate(97.000000, 7.000000)">
                            <rect id="buttonL" fill="#333333" x="0" y="0" width="60" height="48" rx="7.5"></rect>
                            <g id="email" transform="translate(15.000000, 12.000000)">
                                <mask id="mask-2" fill="white">
                                    <use xlink:href="#path-1"></use>
                                </mask>
                                <g id="email-msk"></g>
                                <g mask="url(#mask-2)">
                                    <rect fill="#858585" x="0" y="0" width="30" height="24"></rect>
                                    <path d="M0,0 L30,0 L15.5697013,12.1455874 C15.255064,12.410409 14.739647,12.4059573 14.4302989,12.1455874 L0,0 Z" id="email-copy" fill="#C6C6C6"></path>
                                </g>
                            </g>
                        </g>
                        <g id="pager-icon">
                            <g id="JM-bulb-on" transform="translate(9.000000, 3.000000)">
                                <g id="Group" transform="translate(10.800000, 42.570591)" fill="#B3B3B3">
                                    <path d="M7.20627022,0.790462236 C11.7093502,0.790462236 14.1,-0.1564611 14.1,0.317000563 C14.1,0.790462227 9.87731846,2.32900391 7.20627022,2.32900419 C4.53522197,2.32900446 1.00731963e-09,0.806813815 0,0.317000562 C-1.00731969e-09,-0.172812692 2.70319027,0.790462235 7.20627022,0.790462236 Z" id="Path-55"></path>
                                    <path d="M7.20627022,2.71487827 C11.7093502,2.71487827 14.1,1.17357708 14.1,1.64703875 C14.1,2.12050041 9.87731846,3.6590421 7.20627022,3.65904237 C4.53522197,3.65904265 1.00731963e-09,2.136852 0,1.64703875 C-1.00731969e-09,1.15722549 2.70319027,2.71487827 7.20627022,2.71487827 Z" id="Path-55-Copy-2"></path>
                                    <path d="M7.20627022,3.87784679 C11.7093502,3.87784679 14.1,2.3365456 14.1,2.81000727 C14.1,3.28346893 9.87731846,4.62990526 7.20627022,4.62990553 C4.53522197,4.62990581 1.00731963e-09,3.29982052 0,2.81000726 C-1.00731969e-09,2.32019401 2.70319027,3.87784679 7.20627022,3.87784679 Z" id="Path-55-Copy-3"></path>
                                    <path d="M7.20627022,4.78274834 C11.7093502,4.78274834 14.1,3.24144715 14.1,3.71490882 C14.1,4.18837048 9.87731846,5.36898796 7.20627022,5.36898824 C4.53522197,5.36898851 1.00731963e-09,4.20472207 0,3.71490881 C-1.00731969e-09,3.22509556 2.70319027,4.78274834 7.20627022,4.78274834 Z" id="Path-55-Copy-4"></path>
                                </g>
                                <g id="Group-2" stroke="url(#linearGradient-3)" stroke-width="0.75" fill="#FFFFFF">
                                    <path d="M25.2001289,39.946524 C25.2430687,31.527922 36,26.5076095 36,14.3870794 C36,2.37321794 25.1715637,0.000624562123 18.0000666,-2.22988e-08 C10.8285694,-0.00062460672 0,2.37321794 0,14.3870794 C0,27.1916387 10.5470003,32.6041095 10.5470003,39.9970721 C10.5446865,40.0828819 10.5428619,40.1698769 10.5428571,40.2580645 C10.5428294,40.7741935 11.0571429,42.1492968 17.8714286,42.1492969 C24.6857143,42.1492969 25.167859,41.0322122 25.2,40.2580645 C25.2043645,40.1529402 25.2043585,40.0490846 25.2001289,39.946524 Z" id="BULB"></path>
                                </g>
                                <g id="JM-box-gray-green" transform="translate(4.628571, 4.387097)">
                                    <g id="JM-med-Copy">
                                        <g id="J">
                                            <path d="M1.01355933,16.3972316 C0.473518167,17.8478537 0.188406898,19.290935 1.60196003,20.8982289 C3.01551317,22.5055228 6.90280284,22.2386798 9.20098222,21.9176607 C12.5889545,21.4444147 12.1391531,18.1654792 10.7298926,15.82791 C9.32063216,13.4903407 8.1215404,11.0522904 8.1215404,9.58159618" stroke="#46484A" stroke-width="0.903225806"></path>
                                            <g id="sides" transform="translate(2.871429, 0.033515)">
                                                <path d="M0.212839797,9.5483871 C0.454852041,9.54838697 1.15982079,9.23929986 1.15982079,7.55537091 C1.15982079,5.87144196 0.643201693,4.68385086 2.02539877,4.0495498 C3.40759584,3.41524875 7.32260193,0.858992005 3.53840917,0.858992005" id="right" stroke="#46484A" stroke-width="0.75" transform="translate(2.677848, 5.203690) scale(-1, 1) translate(-2.677848, -5.203690) "></path>
                                                <path d="M5.09855408,9.5483871 C5.34056633,9.54838697 6.04553508,9.23929986 6.04553508,7.55537091 C6.04553508,5.87144196 5.52891598,4.68385086 6.91111305,4.0495498 C8.29331013,3.41524875 12.2083162,0.858992005 8.42412345,0.858992005" id="right-copy-3" stroke="#46484A" stroke-width="0.75"></path>
                                                <g id="earpiece" transform="translate(1.751522, 0.000000)" fill="#42CC6F">
                                                    <path d="M4.83629883,1.69869317 C5.03575005,1.81166784 5.54704428,1.80641356 5.81891783,1.80641356 C6.17923266,1.80641356 6.46207906,1.63588357 6.67836735,1.44974583 C6.85299225,1.2994636 6.94285714,1.15725679 6.94285714,0.944650065 C6.94285714,0.668049697 6.67836735,0.434923747 6.48,0.362436456 C6.28163265,0.289949165 5.68653061,0.0828865888 5.68653061,0.0828865888 C5.68653061,0.0828865888 5.0525909,-0.103608238 4.83629883,0.082886592 C4.66210353,0.233084067 4.63977502,0.732335123 4.63977502,0.944650076 C4.63977502,1.22189312 4.5580017,1.54105801 4.83629883,1.69869317 Z" id="Oval-3-Copy-2" transform="translate(5.785714, 0.903226) scale(-1, 1) translate(-5.785714, -0.903226) "></path>
                                                    <path d="M0.207727398,1.69869317 C0.407178621,1.81166784 0.918472847,1.80641356 1.1903464,1.80641356 C1.55066123,1.80641356 1.83350763,1.63588357 2.04979592,1.44974583 C2.22442082,1.2994636 2.31428571,1.15725679 2.31428571,0.944650065 C2.31428571,0.668049697 2.04979592,0.434923747 1.85142857,0.362436456 C1.65306122,0.289949165 1.05795918,0.0828865888 1.05795918,0.0828865888 C1.05795918,0.0828865888 0.424019471,-0.103608238 0.2077274,0.082886592 C0.0335320982,0.233084067 0.0112035963,0.732335123 0.0112035963,0.944650076 C0.0112035963,1.22189312 -0.0705697261,1.54105801 0.207727398,1.69869317 Z" id="Oval-3-Copy-3"></path>
                                                </g>
                                            </g>
                                            <g id="bell" transform="translate(0.042857, 13.452870)">
                                                <g id="bell-outer">
                                                    <use fill-opacity="0.3028476" fill="#C3C3C3" fill-rule="evenodd" xlink:href="#path-4"></use>
                                                    <use stroke="#757575" mask="url(#mask-5)" stroke-width="1.5" xlink:href="#path-4"></use>
                                                </g>
                                                <g id="bell-inner">
                                                    <use fill="#42CC6F" fill-rule="evenodd" xlink:href="#path-6"></use>
                                                    <use stroke="#8A95A1" mask="url(#mask-7)" stroke-width="1.5" xlink:href="#path-6"></use>
                                                </g>
                                            </g>
                                        </g>
                                        <g id="M" transform="translate(14.090339, 1.443317)" stroke="#45484A" stroke-width="0.903225806" stroke-linecap="round" stroke-linejoin="round">
                                            <path d="M0.00358833477,20.4359393 L0.00358833477,8.25780306e-16 C0.214782036,-1.72757714e-15 -0.0412103291,-4.28093463e-15 0.144384135,-1.72757718e-15 C0.294634338,0.293072049 5.30939026,11.8401266 5.30939026,11.8401266 L5.56334047,11.8401266" id="M-left"></path>
                                            <path d="M10.8714803,20.4359393 L10.8714803,3.61099276e-15 C10.6602866,1.05763532e-15 10.916279,-1.49572217e-15 10.7306845,1.05763527e-15 C10.5804343,0.293072049 5.56567837,11.8401266 5.56567837,11.8401266 L5.30516196,11.8401266" id="M-right"></path>
                                        </g>
                                    </g>
                                </g>
                            </g>
                        </g>
                    </g>
                </g>
            </g>
        </g>
    </g>
</svg>
