<svg viewBox="0 0 44 32" version="1.1" xmlns="http://www.w3.org/2000/svg" xmlns:xlink="http://www.w3.org/1999/xlink">
    <defs></defs>
    <g id="youtube" stroke="none" stroke-width="1" fill="none" fill-rule="evenodd">
        <g id="svg">
            <path d="M6.83521139,29.783543 C3.01706171,28.9843172 2.03334629,26.2869302 2,16.4631131 C2,9.51983897 2.26677028,7.15546266 3.41721713,4.80773688 C4.31756684,3.12603261 5.33462855,2.55991433 8.50252567,2.24355412 C11.6704228,1.92719391 27.6099472,1.91054337 33.9957609,2.24355412 C42.9158923,2.80967239 41.8988306,6.97230675 41.9988694,15.2309733 C42.0155426,23.772699 41.8654843,25.6375592 40.3482283,27.8187796 C38.8309723,30 39.4645517,29.9167473 22.8914478,30 C14.5548765,30 7.5021371,30 6.75184568,29.8001936 L6.75184568,29.8001936 L6.83521139,29.783543 Z" fill="#CC5156"></path>
            <path d="M28.510297,15.9302959 C24.775513,13.4493658 20.7739587,10.8185809 18.7565084,9.58644112 C18.8398742,13.0497529 18.7565084,19.3769571 18.7565084,22.4906076 C21.7243279,20.6590485 26.2260764,17.5953496 28.4436044,15.9469464 L28.4436044,15.9469464 L28.510297,15.9302959 Z" id="center" fill="#FFFFFF"></path>
        </g>
    </g>
</svg>
