<?xml version="1.0" encoding="UTF-8" standalone="no"?>
<svg width="92px" height="86px" viewBox="0 0 92 86" version="1.1" xmlns="http://www.w3.org/2000/svg" xmlns:xlink="http://www.w3.org/1999/xlink">
    <!-- Generator: Sketch 3.7 (28169) - http://www.bohemiancoding.com/sketch -->
    <title>about</title>
    <desc>Created with Sketch.</desc>
    <defs></defs>
    <g id="Icons" stroke="none" stroke-width="1" fill="none" fill-rule="evenodd">
        <g id="WEB-DEV-svg" transform="translate(-584.000000, -264.000000)" fill="#FFFFFF">
            <g id="menu" transform="translate(5.000000, 67.000000)">
                <g id="user" transform="translate(579.000000, 197.000000)">
                    <g id="Layer_1">
                        <path d="M46,54.1 C60.8,54.1 72.9,42 72.9,27.1 C72.9,12.1 60.8,0 46,0 C31.2,0 19.1,12.1 19.1,27 C19.1,42 31.2,54.1 46,54.1 L46,54.1 Z M46,8 C56.4,8 64.9,16.5 64.9,27 C64.9,37.5 56.4,46 46,46 C35.6,46 27.1,37.5 27.1,27 C27.1,16.5 35.6,8 46,8 L46,8 Z M58.5,56.7 C57.2,56.3 55.7,56.6 54.7,57.5 L46,64.9 L37.3,57.5 C36.2,56.6 34.8,56.3 33.5,56.7 C27.9,58.5 0,68.1 0,82 C0,84.2 1.8,86 4,86 L88,86 C90.2,86 92,84.2 92,82 C92,68.1 64.1,58.5 58.5,56.7 L58.5,56.7 Z M10.1,78 C14.5,73.3 25.1,68.1 33.9,65.1 L43.4,73.2 C44.9,74.5 47.1,74.5 48.6,73.2 L58.1,65.1 C66.9,68.2 77.5,73.4 81.9,78 L10.1,78 L10.1,78 Z" id="about"></path>
                    </g>
                </g>
            </g>
        </g>
    </g>
</svg>