<?xml version="1.0" encoding="UTF-8" standalone="no"?>
<svg width="93px" height="54px" viewBox="0 0 93 54" version="1.1" xmlns="http://www.w3.org/2000/svg" xmlns:xlink="http://www.w3.org/1999/xlink">
    <!-- Generator: Sketch 3.7 (28169) - http://www.bohemiancoding.com/sketch -->
    <title>email</title>
    <desc>Created with Sketch.</desc>
    <defs></defs>
    <g id="Icons" stroke="none" stroke-width="1" fill="none" fill-rule="evenodd">
        <g id="WEB-DEV-svg" transform="translate(-799.000000, -1094.000000)" fill="#FFFFFF">
            <g id="mail" transform="translate(799.000000, 1094.000000)">
                <g id="Layer_1">
                    <path d="M92,3.9 L92,3.5 L92,3.2 C92,3.1 91.9,3 91.9,2.8 C91.9,2.7 91.8,2.5 91.8,2.4 C91.8,2.3 91.7,2.2 91.6,2.1 C91.5,2 91.5,1.8 91.4,1.7 L91.4,1.6 C91.3,1.5 91.3,1.5 91.2,1.4 C91.1,1.3 91,1.2 90.9,1.1 C90.8,1 90.7,0.9 90.6,0.9 C90.5,0.8 90.4,0.7 90.3,0.7 C90.2,0.6 90.1,0.6 90,0.5 C89.9,0.4 89.8,0.4 89.7,0.3 C89.6,0.3 89.4,0.2 89.3,0.2 C89.2,0.2 89.1,0.1 88.9,0.1 L88.5,0.1 L88.2,0.1 L4,0.1 L3.7,0.1 L3.3,0.1 C3.2,0.1 3.1,0.2 2.9,0.2 C2.8,0.2 2.6,0.3 2.5,0.3 C2.4,0.3 2.3,0.4 2.2,0.5 C2.1,0.6 2,0.6 1.9,0.7 C1.8,0.8 1.7,0.8 1.6,0.9 C1.5,1 1.4,1.1 1.3,1.1 C1.2,1.2 1.1,1.3 1,1.4 C0.9,1.5 0.9,1.5 0.8,1.6 L0.8,1.7 C0.7,1.8 0.6,2 0.6,2.1 C0.5,2.2 0.5,2.3 0.4,2.4 C0.3,2.5 0.3,2.6 0.3,2.8 C0.3,2.9 0.2,3 0.2,3.2 L0.2,3.5 L0.2,3.9 L0.2,4 L0.2,50 C0.2,52.2 2,54 4.2,54 L88.2,54 C90.4,54 92.2,52.2 92.2,50 L92,3.9 C92,4 92,3.9 92,3.9 L92,3.9 Z M75.9,8 L46,30.2 L16.1,8 L75.9,8 L75.9,8 Z M8,46 L8,12 L43.6,38.4 C44.3,38.9 45.1,39.2 46,39.2 C46.9,39.2 47.7,38.9 48.4,38.4 L84,12 L84,46 L8,46 L8,46 Z" id="email"></path>
                </g>
            </g>
        </g>
    </g>
</svg>