<?xml version="1.0" encoding="UTF-8" standalone="no"?>
<svg width="514px" height="472px" viewBox="0 0 514 472" version="1.1" xmlns="http://www.w3.org/2000/svg" xmlns:xlink="http://www.w3.org/1999/xlink">
    <!-- Generator: Sketch 3.7 (28169) - http://www.bohemiancoding.com/sketch -->
    <title>Linkedin-border</title>
    <desc>Created with Sketch.</desc>
    <defs></defs>
    <g id="Icons" stroke="none" stroke-width="1" fill="none" fill-rule="evenodd">
        <g id="SOCIAL-ICONS-svg" transform="translate(-2918.000000, -1349.000000)" stroke="#0189C3" stroke-width="2" fill="#FFFFFF">
            <path d="M2932.40314,1501.31054 L3032.9267,1501.31054 L3032.9267,1820 L2932.40314,1820 L2932.40314,1501.31054 Z M2979.66661,1461.1396 L2978.9363,1461.1396 C2942.58162,1461.1396 2919,1436.65047 2919,1405.628 C2919,1373.98712 2943.29001,1350 2980.37501,1350 C3017.43809,1350 3040.23828,1373.92892 3040.96859,1405.5407 C3040.96859,1436.57772 3017.43809,1461.1396 2979.66661,1461.1396 L2979.66661,1461.1396 Z M3431,1820 L3318.03712,1820 L3318.03712,1654.59973 C3318.03712,1611.30602 3300.39255,1581.76119 3261.51948,1581.76119 C3231.79812,1581.76119 3215.29027,1601.69488 3207.58661,1620.92443 C3204.70498,1627.80613 3205.14664,1637.41727 3205.14664,1647.05019 L3205.14664,1820 L3093.24084,1820 C3093.24084,1820 3094.69613,1527.0125 3093.24084,1500.37134 L3205.14664,1500.37134 L3205.14664,1550.53222 C3211.76426,1528.60226 3247.50953,1497.29345 3304.59915,1497.29345 C3375.38015,1497.29345 3431,1543.28031 3431,1642.2664 L3431,1820 L3431,1820 Z" id="Linkedin-border"></path>
        </g>
    </g>
</svg>