<?xml version="1.0" encoding="UTF-8" standalone="no"?>
<svg width="518px" height="417px" viewBox="0 0 518 417" version="1.1" xmlns="http://www.w3.org/2000/svg" xmlns:xlink="http://www.w3.org/1999/xlink">
    <!-- Generator: Sketch 3.7 (28169) - http://www.bohemiancoding.com/sketch -->
    <title>Twitter-border</title>
    <desc>Created with Sketch.</desc>
    <defs></defs>
    <g id="Icons" stroke="none" stroke-width="1" fill="none" fill-rule="evenodd">
        <g id="SOCIAL-ICONS-svg" transform="translate(-2914.000000, -114.000000)" stroke="#44BBFF" stroke-width="2" fill="#FFFFFF">
            <path d="M3431,164.131528 C3412.18052,172.458539 3391.91282,178.091729 3370.68207,180.619442 C3392.38349,167.655883 3409.0379,147.138071 3416.85823,122.684249 C3396.55434,134.680055 3374.09985,143.389833 3350.13198,148.076936 C3331.01561,127.71801 3303.69514,115 3273.46377,115 C3215.49194,115 3168.45409,161.921584 3168.45409,219.755669 C3168.45409,227.981571 3169.35198,235.954701 3171.16224,243.610062 C3083.86417,239.240729 3006.48634,197.569567 2954.64768,134.138402 C2945.60361,149.665785 2940.42626,167.655883 2940.42626,186.859283 C2940.42626,223.171693 2958.97058,255.251988 2987.15998,274.058177 C2969.94801,273.530968 2953.73531,268.771644 2939.55733,260.971843 L2939.55733,262.264588 C2939.55733,313.042741 2975.75533,355.385552 3023.84313,364.983642 C3015.02353,367.446357 3005.75499,368.674103 2996.15336,368.674103 C2989.39022,368.674103 2982.78639,368.045786 2976.40703,366.818039 C2989.75952,408.424203 3028.54257,438.735099 3074.51598,439.536745 C3038.56418,467.652141 2993.26419,484.392827 2944.06127,484.392827 C2935.582,484.392827 2927.20411,483.930616 2919,482.948419 C2965.48753,512.645441 3020.70776,530 3080.01918,530 C3273.26102,530 3378.88618,370.385726 3378.88618,231.924804 C3378.88618,227.367697 3378.79205,222.832257 3378.60378,218.369037 C3399.13215,203.585525 3416.95961,185.133216 3431,164.131528" id="Twitter-border"></path>
        </g>
    </g>
</svg>