<?xml version="1.0" encoding="UTF-8"?>
<svg width="512px" height="512px" viewBox="0 0 512 512" version="1.1" xmlns="http://www.w3.org/2000/svg" xmlns:xlink="http://www.w3.org/1999/xlink">
    <!-- Generator: Sketch 3.7 (28169) - http://www.bohemiancoding.com/sketch -->
    <title>JM-steth-flat</title>
    <desc>Created with Sketch.</desc>
    <defs>
        <ellipse id="path-1" cx="34.3461118" cy="34.3598158" rx="34.3461118" ry="34.3598158"></ellipse>
        <mask id="mask-2" maskContentUnits="userSpaceOnUse" maskUnits="objectBoundingBox" x="-2" y="-2" width="72.6922237" height="72.7196315">
            <rect x="-2" y="-2" width="72.6922237" height="72.7196315" fill="white"></rect>
            <use xlink:href="#path-1" fill="black"></use>
        </mask>
        <ellipse id="path-3" cx="33.8009354" cy="33.8144219" rx="16.3552913" ry="16.361817"></ellipse>
        <mask id="mask-4" maskContentUnits="userSpaceOnUse" maskUnits="objectBoundingBox" x="-2" y="-2" width="36.7105827" height="36.7236341">
            <rect x="15.4456441" y="15.4526048" width="36.7105827" height="36.7236341" fill="white"></rect>
            <use xlink:href="#path-3" fill="black"></use>
        </mask>
    </defs>
    <g id="Logos" stroke="none" stroke-width="1" fill="none" fill-rule="evenodd">
        <g id="JM-steth-flat">
            <g id="JM-dark" transform="translate(32.000000, 77.000000)">
                <g id="J">
                    <path d="M25,262.000004 C2.94456041,340.211944 48.5295525,358.30073 127.768528,358.30073 C207.007503,358.30073 209.075492,303.351894 192.251883,266.177257 C175.428275,229.002621 140.854911,218.802018 140.854911,174.053783" stroke="#2B333D" stroke-width="14"></path>
                    <g id="sides" transform="translate(62.356921, 0.000000)">
                        <path d="M0.276291206,175.826602 C5.19893808,175.8266 19.5383456,174.993695 19.5383456,136.746846 C19.5383456,98.4999968 10.7296028,89.9086421 29.2410892,67.5000007 C57.7410892,33.0000007 118.597245,8.8393752 41.6249215,8.8393752" id="right" stroke="#2B333D" stroke-width="12" transform="translate(39.692084, 92.332989) scale(-1, 1) translate(-39.692084, -92.332989) "></path>
                        <path d="M78.2762912,175.826602 C83.1989381,175.8266 97.5383456,174.993695 97.5383456,136.746846 C97.5383456,98.4999968 88.7296028,89.9086421 107.241089,67.5000007 C135.741089,33.0000007 196.597245,8.8393752 119.624922,8.8393752" id="left" stroke="#2B333D" stroke-width="12"></path>
                        <g id="earpiece" transform="translate(20.000000, 0.000000)" fill="#50B38A">
                            <path d="M2.33372755,17.8666121 C4.57447586,19.0548635 10.3186456,18.9995998 13.3730275,18.9995998 C17.4210089,18.9995998 20.598666,17.2059897 23.0285714,15.2482195 C24.9904067,13.6675725 26,12.1718616 26,9.93569443 C26,7.02645128 23.0285714,4.57446584 20.8,3.81205487 C18.5714286,3.04964389 11.8857143,0.8717893 11.8857143,0.8717893 C11.8857143,0.8717893 4.76367554,-1.08973665 2.33372758,0.871789334 C0.376718634,2.45154492 0.125867564,7.70259621 0.125867564,9.93569455 C0.125867564,12.8516973 -0.79282038,16.208628 2.33372755,17.8666121 Z" id="Oval-3-Copy-2"></path>
                            <path d="M93.3337276,17.8666121 C95.5744759,19.0548635 101.318646,18.9995998 104.373028,18.9995998 C108.421009,18.9995998 111.598666,17.2059897 114.028571,15.2482195 C115.990407,13.6675725 117,12.1718616 117,9.93569443 C117,7.02645128 114.028571,4.57446584 111.8,3.81205487 C109.571429,3.04964389 102.885714,0.8717893 102.885714,0.8717893 C102.885714,0.8717893 95.7636755,-1.08973665 93.3337276,0.871789334 C91.3767186,2.45154492 91.1258676,7.70259621 91.1258676,9.93569455 C91.1258676,12.8516973 90.2071796,16.208628 93.3337276,17.8666121 Z" id="Oval-3-Copy-2" transform="translate(104.000000, 9.500000) scale(-1, 1) translate(-104.000000, -9.500000) "></path>
                        </g>
                    </g>
                    <g id="bell" transform="translate(0.500575, 193.977654)">
                        <g id="bell-outer">
                            <use fill="#2B333D" fill-rule="evenodd" xlink:href="#path-1"></use>
                            <use stroke="#2B333D" mask="url(#mask-2)" stroke-width="4" xlink:href="#path-1"></use>
                        </g>
                        <g id="bell-inner">
                            <use fill="#F0F0F0" fill-rule="evenodd" xlink:href="#path-3"></use>
                            <use stroke="#2B333D" mask="url(#mask-4)" stroke-width="4" xlink:href="#path-3"></use>
                        </g>
                    </g>
                </g>
                <g id="M" transform="translate(239.000000, 36.000000)" stroke="#2B333D" stroke-width="14" stroke-linecap="round" stroke-linejoin="round">
                    <path d="M0.0659019115,320.97171 L0.0659019115,1.54789599e-14 C4.2111223,-2.46246777e-14 -0.813387263,-6.47283161e-14 2.82938217,-2.46246784e-14 C5.77842942,4.60305911 104.205932,185.963837 104.205932,185.963837 L104.622036,185.963837" id="M-left"></path>
                    <path d="M104.380126,320.97171 L104.380126,1.54789599e-14 C108.525346,-2.46246777e-14 103.500836,-6.47283161e-14 107.143606,-2.46246784e-14 C110.092653,4.60305911 208.520155,185.963837 208.520155,185.963837 L209.319237,185.963837" id="M-right" transform="translate(156.849681, 160.485855) scale(-1, 1) translate(-156.849681, -160.485855) "></path>
                </g>
            </g>
        </g>
    </g>
</svg>