<?xml version="1.0" encoding="UTF-8"?>
<!DOCTYPE svg PUBLIC "-//W3C//DTD SVG 1.1//EN" "http://www.w3.org/Graphics/SVG/1.1/DTD/svg11.dtd">
<!-- Creator: CorelDRAW -->
<svg xmlns="http://www.w3.org/2000/svg" xml:space="preserve" width="297mm" height="210mm" style="shape-rendering:geometricPrecision; text-rendering:geometricPrecision; image-rendering:optimizeQuality; fill-rule:evenodd; clip-rule:evenodd"
viewBox="0 0 297 210"
 xmlns:xlink="http://www.w3.org/1999/xlink">
 <defs>
  <style type="text/css">
   <![CDATA[
    .str2 {stroke:#2F3133;stroke-width:0.1}
    .str1 {stroke:black;stroke-width:0.1;stroke-opacity:0.501961}
    .str0 {stroke:black;stroke-width:0.1}
    .str3 {stroke:black;stroke-width:0.5}
    .fil5 {fill:none}
    .fil0 {fill:white}
    .fil2 {fill:#1F1A17;fill-rule:nonzero}
    .fil3 {fill:#C2C1C1;fill-rule:nonzero}
    .fil4 {fill:white;fill-rule:nonzero}
    .fil6 {fill:black;fill-rule:nonzero}
    .fil1 {fill:white;fill-rule:nonzero;fill-opacity:0.501961}
   ]]>
  </style>
 </defs>
 <g id="Plan_x0020_1">
  <metadata id="CorelCorpID_0Corel-Layer"/>
  <path class="fil0 str0" d="M159.121 90.2227l8.4308 0.0823 6.9344 -0.0914 24.4624 0.0274 0 0 0.6569 -5.008 0.2463 -3.427c-0.1322,-0.6308 1.9288,-2.2778 2.3906,-2.2115 0.1519,0.2437 0.6629,1.1191 0.9306,1.1606 0.5262,0.0815 1.3021,-0.173 1.834,-0.2468 0.9849,-0.1366 2.4887,-0.8108 2.9289,-1.7546 0.2651,-0.5682 -0.2466,-1.1468 -0.0821,-1.7272l0.2099 -0.7402 0.1094 -0.1006c0.0166,-0.004 0.0199,-0.0141 0.0365,-0.0182 0.0227,-0.0682 -0.023,0.0399 0.0822,-0.1097 0.305,-0.6579 0.5246,-0.6818 0.2737,-1.4622 -0.2205,-0.686 0.0073,-0.8049 0.4745,-1.316 0.8826,-0.9656 2.1753,-1.1803 2.9836,-2.3486 0.6697,-0.9678 0.6039,-0.7865 1.6789,-0.9596 0.5185,-0.0834 2.0648,-0.9885 2.3905,-1.3799 0.4511,-0.0504 1.3356,-0.1391 1.7336,-0.3381 0.7292,-0.3645 1.0839,0.0841 1.688,-0.0914 0.5715,0 1.1053,-0.3426 1.6059,-0.2651 0.5741,0.089 0.9069,0.6472 1.5329,0.6946 1.3896,0.1052 1.6661,-0.3999 2.5274,-1.2612 0.6048,-0.6048 0.8266,-0.7592 1.6424,-0.9321 0.8059,-0.1707 1.5491,-1.0951 2.1898,-1.5536 0.1354,-1.0989 1.6015,0.6151 1.9617,-0.8499 0.0167,-0.0041 0.0141,-0.0016 0.0183,-0.0182 0.0287,-0.0072 0.0302,-0.0319 0.0638,-0.0366 0.0337,-0.0507 0.2198,-0.0931 0.2829,-0.1279 0.2389,-0.3088 0.5953,-0.6105 0.6934,-1.0053 0.0747,-0.3011 -0.1405,-0.6755 0.3559,-0.7037 0.7466,-0.0424 1.6812,0.3453 2.0256,-0.5574 0.1644,-0.4309 0.3536,-0.9779 0.8668,-0.9779 0.6117,0 1.3034,-0.0221 1.7792,-0.4295 0.6222,-0.5329 1.2752,-0.6464 1.9982,-0.1462 0.1575,0.109 1.2254,0.4107 1.2592,0.3107 0.1864,0 0.8863,-1.4603 1.0492,-1.6907 0.2276,-0.3244 0.7116,-0.6547 0.8304,-1.0418 0.1176,-0.3828 -0.1636,-0.767 0.2919,-0.9687 0.8663,-0.3838 -0.6929,-1.82 -0.073,-2.2664 0.0394,-0.3123 1.0855,-0.6854 1.3596,-0.6854 0.7466,0 0.8351,0.4442 1.3777,0.786 0.9938,0.6262 1.0915,-1.8286 1.4417,-2.239l0.4288 -0.5026c0.0602,-0.0152 0.2697,-0.2611 0.3376,-0.3108l1.9161 -1.1788 1.8431 -1.115c0.0829,-0.0207 0.1325,-0.0548 0.2281,-0.0548 0.3787,0.3787 1.0384,0.7562 1.3048,1.2246 0.0256,0.0063 0.0263,0.0355 0.0456,0.0548 0,0.0457 -0.0183,0.0703 -0.0183,0.1097 -0.8419,0.8419 -0.7025,1.4026 -0.7025,2.5405 0.2035,0.2046 1.5196,0.0684 1.7975,-0.0091 0.5037,-0.1404 1.1662,-0.7076 1.6332,-0.9961 1.2471,-0.7703 2.0626,-1.7765 2.5822,-3.1437 0.3242,-0.8533 1.0937,-0.7919 1.5146,-1.2977 0.0761,-0.0096 0.1239,-0.0597 0.1825,-0.1097 0.6916,-0.4614 0.9239,-0.6292 1.7336,-0.8682 0.6762,-0.1997 1.0173,0.0984 1.615,-0.0274 0.3249,-0.0684 0.9354,-0.6142 1.1314,-0.8864 0.27,-0.3752 0.9136,0.2265 1.2683,0.3564 0.965,0.3533 1.0848,0.2007 1.5602,1.1515 0.3552,0.7106 1.7698,0.069 2.3815,-0.192 1.0924,-0.4663 1.6473,-1.7165 1.9069,-2.7598 0.1118,-0.4492 0.6636,-1.0264 0.7026,-1.3434 0.087,-0.0622 0.175,-0.2325 0.219,-0.329l2.9471 -3.8657c0.9105,-1.1943 1.9515,-0.9686 3.0749,-0.3472 0.629,0.3478 1.1894,0.2526 1.0584,-0.5941 -0.0812,-0.5247 -0.6715,-1.7032 0.0548,-2.0653 0.0295,-0.1189 0.5243,-0.8286 0.6204,-0.9047 0.2488,-0.562 0.3045,-1.2179 0.3924,-1.8186 0.0913,-0.6233 -0.0365,-1.1904 -0.0365,-1.8004 0,-0.3537 0.0547,-0.6995 0.0547,-1.0418 0.2203,-0.2759 0.2628,-0.7984 0.511,-1.1149l0 0 0.1932 -0.3461c0.0278,-0.0279 0.0404,-0.0622 0.0593,-0.096 0.0169,-0.0304 0.0426,-0.0555 0.0593,-0.0868 0.0271,-0.0504 0.0656,-0.09 0.0913,-0.1417 0.0109,-0.0218 0.0323,-0.0552 0.0502,-0.0731 0.0041,-0.0168 0.0178,-0.0339 0.0273,-0.0502 0.0173,-0.03 0.0157,-0.0444 0.0212,-0.0834l-8.1738 -0.0903 -0.5672 0.8397 -1.6789 0.0091 -1.4599 0.128 -4.0147 -0.0732 -4.3431 0.0092 -1.3322 -0.1462 -10.429 0.0548 -9.6444 0.1462 -7.8377 -0.0548 -1.0667 -0.2685 -11.9537 -0.024 0 0 -0.5831 0.7049 -2.948 -0.0377 -6.3504 -0.064 -1.0585 -0.1462 -0.0912 -0.0274 -4.5256 -0.1097 -6.7794 -0.1279 -12.0258 -0.3016 -3.3942 -0.3016 -2.4544 -0.1919 -1.5329 0.0091 -3.8048 -0.0731 -1.2774 -0.1188 -2.2812 -0.0274 -14.4619 -0.2193 -1.0858 -0.0731 -4.1241 0.0182 -0.6935 -0.1645 -5.6205 -0.2924 -5.4381 -0.2285 -2.792 -0.3381 -5.6023 0.1188 -1.5511 -0.2467 -7.2446 0.1462 -2.5275 0.1828 -4.7812 0.2193 -3.303 -0.0548 -5.0457 -0.0366 -5.3924 0.1097 -10.4473 0.2741 -0.0639 -1.2611 -6.7884 -0.4752 0.3832 2.0014c0,0.2 0.1515,0.5481 0.2098,0.7493l0.1643 0.5666c0.1037,0.358 0.1773,0.6509 0.2372,1.0236 0.0418,0.2607 0.1188,0.5027 0.1277,0.7676l0.0274 0.8042c0.0079,0.2343 -0.5242,0.8572 -0.7573,0.8865 -0.003,0.0124 -0.1234,0.1268 -0.1326,0.1376l-39.1383 -0.3844 -2.6582 0.2809 0 0c-0.3903,0.9292 -0.9505,1.6524 -1.7762,1.6291 -0.8624,-0.0244 -0.7655,-0.7626 -0.5165,-1.5028l-0.0023 0.0071 -1.8032 0.0176 0 0c0.0858,0.1001 0.176,0.1969 0.2691,0.2901 0.7528,0.7528 -0.1763,1.2667 -0.292,2.1019 -0.0152,0.1096 -0.0305,0.2194 -0.0456,0.329 -0.0637,0.4597 0.5995,0.9171 0.7938,1.3251 0.2467,0.5177 0.4825,1.4595 -0.2007,1.8734 -0.8508,0.5156 -1.2509,-0.1306 -2.053,-0.064 -0.4495,0.0373 -0.9236,0.3683 -0.7847,0.8773 0.1473,0.5402 0.6701,0.8462 1.1223,1.0967 0.6243,0.3458 1.1527,1.0224 0.885,1.7363 -0.4487,1.197 -2.402,-0.0126 -3.2938,0.0549 -1.1433,0.0865 -0.7426,1.2269 -0.0821,1.846 0.735,0.689 2.1752,0.9558 2.3632,2.1933 0.1979,1.302 -1.4724,1.3042 -2.3085,1.6541 -0.5269,0.2206 -0.7442,1.2517 -0.7299,1.7729 0.0163,0.5963 -0.0513,1.1094 -0.4562,1.5718 -0.0921,0.1051 -0.1797,0.1913 -0.2603,0.2693l0 0c-0.288,0.2791 -0.4879,0.4569 -0.4879,1.0376 0,1.0409 1.3499,1.3529 1.9891,1.9556 0.3597,0.3393 0.8761,1.4349 0.2372,1.7638 -0.4725,0.2433 -0.5279,0.1696 -0.9581,0.0183 -0.0805,-0.0283 -0.2882,-0.2354 -0.3284,-0.3016 -0.2621,-0.4323 -0.7482,-0.9413 -1.2683,-0.9413 -0.5708,0 -1.0027,0.6782 -1.1953,1.2063 -0.2297,0.6302 0.7262,0.9736 1.0037,1.1424 0.5017,0.3053 1.3106,0.223 1.4964,0.7493 0.121,0.3428 -0.3549,0.6642 -0.8924,0.9313 -0.8024,0.1359 -1.7062,-0.4086 -2.1825,0.5492 -0.1873,0.434 -0.1325,0.8905 -0.3809,1.2204 -0.2123,0.1592 -0.4247,0.2881 -0.641,0.388 -0.2979,0.1375 -0.6635,0.2208 -1.0534,0.2895 -0.5659,0.0036 -1.0989,-0.639 -1.7752,-0.4723 -1.289,0.3177 -1.6028,1.948 -0.8576,2.9244 1.1311,1.4818 1.7884,-0.2308 2.7281,0.5575 0.0459,0.4185 0.2393,0.5594 0,1.0144 -0.5678,1.0798 -3.1935,0.6659 -3.1935,1.8551 -0.0226,0.2506 0.0504,0.3966 0.0821,0.6214 0.5047,0.5047 1.1928,0.5539 1.7783,1.0034 0.0253,0.4196 -0.0369,0.7869 -0.3914,1.0894 -0.2764,0.2358 -0.6489,0.1638 -1.0403,0.0141 -0.6493,-0.6686 -0.8564,-2.2204 -2.29,-1.5037 -0.7204,0.3601 -0.9319,1.5936 -0.7756,2.3029 0.157,0.7129 1.7927,1.848 1.2438,2.6039 -0.1747,0.1706 -0.4179,0.3038 -0.7328,0.5216 -0.3216,0.2226 -0.5854,0.3457 -0.8319,0.4809 -0.1658,0.0112 -0.3078,-0.0839 -0.4273,-0.3987 -0.2667,-0.7019 -0.0365,-1.3507 -0.0365,-2.0745 -0.2159,-0.2774 -0.4266,-0.8025 -0.8942,-0.7128 -1.0243,0.1965 -0.4959,0.9872 -0.7573,1.645 -0.2704,0.6808 -1.0627,0.5305 -1.4781,1.0509 0,0.3531 -0.2756,0.7028 -0.146,1.0144 0.108,0.308 1.2044,1.0444 1.2044,0.4204 0,-0.5392 -0.2085,-1.0959 0.219,-1.5444 0.5631,-0.5906 0.6928,0.0574 0.8942,0.4386 0.1178,0.2232 0.7664,0.6917 0.7634,0.7786 -0.0434,0.0683 -0.0839,0.131 -0.1247,0.1993 -0.5177,0.8665 -0.7328,1.9266 -0.7352,2.9742 -0.0971,0.1127 -0.2514,0.1677 -0.5149,0.1603 -0.4835,-0.0137 -1.1367,-0.0933 -1.4051,0.393 -0.392,0.7099 0.7878,1.3962 1.4051,1.252 0.2011,-0.047 0.7717,-0.0745 0.9037,-0.0284 0.1092,0.1379 0.2188,0.2678 0.2369,0.3939 0.0017,0.012 0.1983,0.4089 0.3016,0.6257 0.0115,0.5718 -0.3397,0.3502 -0.6392,0.7726 -0.064,0.0697 -0.1235,0.0869 -0.1825,0.1462 -0.6726,0.0829 -0.5465,0.7326 -0.0365,0.9778 0.4332,0.2084 0.9718,0.1845 1.0858,0.7585 0.0217,0.1091 0.031,0.2159 0.0757,0.3619 -0.0825,0.5125 -0.3434,0.9042 -0.8969,1.1186 -0.6384,0.2472 -0.9995,-0.4117 -1.4873,-0.4843 -0.0245,-0.0036 -0.0256,-0.0042 -0.0456,-0.0183 -0.1485,-0.1042 -0.4352,-0.0634 -0.5566,0.0274 -0.9996,0.7479 -0.522,1.9241 -0.6652,2.9204 -0.394,0.8923 -1.2965,0.8354 -2.072,0.6528 -0.8482,-0.1996 -1.6005,0.4088 -1.6211,1.3645 -0.0078,0.018 -0.015,0.0366 -0.0215,0.0558l-0.0004 0.0014 65.052 0.268 0 0 0.0047 -0.5017 80.33 0.8042 0 0zm-149.121 -80.2227l276.9 0 0 96.5535 -276.9 0 0 -96.5535z"/>
  <polygon class="fil1 str1" points="257.267,88.3201 281.044,88.3201 281.044,104.249 257.267,104.249 "/>
  <path class="fil2" d="M265.628 89.89l0 0.0641c-0.1511,0.0147 -0.2751,0.0447 -0.371,0.0905 -0.0958,0.0453 -0.1905,0.1141 -0.284,0.2076 -0.0934,0.0929 -0.1711,0.1964 -0.2328,0.3104 -0.0611,0.1147 -0.1129,0.2505 -0.154,0.4075 0.1652,-0.1135 0.331,-0.1705 0.498,-0.1705 0.1593,0 0.2981,0.0647 0.4151,0.1928 0.117,0.1288 0.1758,0.294 0.1758,0.4963 0,0.1952 -0.0594,0.3733 -0.1776,0.5339 -0.1423,0.1952 -0.331,0.2928 -0.565,0.2928 -0.1599,0 -0.2952,-0.053 -0.4069,-0.1582 -0.2181,-0.2058 -0.3269,-0.4721 -0.3269,-0.7996 0,-0.2088 0.0417,-0.4075 0.1258,-0.5957 0.0835,-0.1887 0.2035,-0.3557 0.3593,-0.5015 0.1552,-0.1458 0.3045,-0.244 0.4468,-0.2946 0.1423,-0.0505 0.2752,-0.0758 0.3981,-0.0758l0.0993 0zm-1.0712 1.2059c-0.0206,0.1552 -0.0312,0.2805 -0.0312,0.3757 0,0.11 0.0206,0.2299 0.0612,0.3593 0.0411,0.1287 0.1017,0.2316 0.1822,0.3075 0.0582,0.0535 0.1294,0.0805 0.2135,0.0805 0.0999,0 0.1893,-0.047 0.2675,-0.1411 0.0788,-0.0941 0.1182,-0.2287 0.1182,-0.4033 0,-0.1964 -0.0388,-0.3663 -0.117,-0.5098 -0.0782,-0.1435 -0.1888,-0.2152 -0.3328,-0.2152 -0.0435,0 -0.09,0.0094 -0.14,0.0276 -0.0499,0.0183 -0.124,0.0583 -0.2216,0.1188z"/>
  <path id="1" class="fil2" d="M265.939 91.12c0,-0.2663 0.04,-0.4956 0.1205,-0.6879 0.0806,-0.1923 0.187,-0.3357 0.3205,-0.4298 0.1034,-0.0747 0.2099,-0.1123 0.3204,-0.1123 0.1787,0 0.3399,0.0917 0.4821,0.274 0.1782,0.2264 0.267,0.5327 0.267,0.9202 0,0.271 -0.0388,0.5009 -0.117,0.6902 -0.0782,0.1899 -0.1776,0.3275 -0.2987,0.4128 -0.1211,0.0858 -0.2381,0.1282 -0.351,0.1282 -0.2223,0 -0.4081,-0.1312 -0.5562,-0.3946 -0.1253,-0.2216 -0.1876,-0.4886 -0.1876,-0.8008zm0.3375 0.0429c0,0.3217 0.0394,0.5845 0.1188,0.7873 0.0652,0.1711 0.1634,0.257 0.2928,0.257 0.0623,0 0.1264,-0.0283 0.1928,-0.0835 0.067,-0.0559 0.1176,-0.1494 0.1517,-0.2799 0.0529,-0.1975 0.0794,-0.4762 0.0794,-0.8355 0,-0.2663 -0.0277,-0.4886 -0.0829,-0.6667 -0.0412,-0.1323 -0.0947,-0.2258 -0.1599,-0.2811 -0.0471,-0.0376 -0.1041,-0.0564 -0.1706,-0.0564 -0.0782,0 -0.1475,0.0347 -0.2087,0.1046 -0.0823,0.0953 -0.1387,0.2452 -0.1687,0.4498 -0.03,0.2046 -0.0447,0.4057 -0.0447,0.6044z"/>
  <path id="12" class="fil2" d="M269.034 89.8247l0 1.5693 0.4016 -0.3651c0.0852,-0.0782 0.1346,-0.1276 0.1481,-0.1482 0.0095,-0.0141 0.0136,-0.0276 0.0136,-0.0411 0,-0.0236 -0.0094,-0.043 -0.0283,-0.06 -0.0188,-0.0165 -0.0499,-0.0259 -0.094,-0.0282l0 -0.0553 0.6855 0 0 0.0553c-0.094,0.0023 -0.1722,0.0164 -0.2346,0.0429 -0.0629,0.0264 -0.1317,0.0735 -0.2063,0.1417l-0.4046 0.3733 0.4046 0.5116c0.1129,0.1417 0.1887,0.231 0.2275,0.2693 0.0553,0.0535 0.1035,0.0887 0.1446,0.1046 0.0289,0.0118 0.0788,0.0177 0.15,0.0177l0 0.0617 -0.7667 0 0 -0.0617c0.0441,-0.0012 0.0735,-0.0083 0.0888,-0.02 0.0158,-0.0124 0.0235,-0.0288 0.0235,-0.0512 0,-0.0264 -0.023,-0.0688 -0.0688,-0.127l-0.4845 -0.6185 0 0.5233c0,0.1023 0.0076,0.1699 0.0218,0.2016 0.0141,0.0324 0.0346,0.0553 0.0611,0.0688 0.0265,0.0141 0.0841,0.0218 0.1723,0.023l0 0.0617 -0.8026 0 0 -0.0617c0.0805,0 0.1405,-0.01 0.1805,-0.0294 0.0241,-0.013 0.0429,-0.0324 0.0553,-0.0588 0.017,-0.0377 0.0258,-0.1035 0.0258,-0.1964l0 -1.4364c0,-0.1829 -0.0041,-0.2946 -0.0117,-0.3352 -0.0082,-0.0405 -0.0218,-0.0687 -0.04,-0.0846 -0.0182,-0.0153 -0.0423,-0.023 -0.0723,-0.023 -0.0241,0 -0.06,0.0095 -0.1082,0.0294l-0.0294 -0.0605 0.4686 -0.1929 0.0788 0z"/>
  <path id="123" class="fil2" d="M270.799 90.986c0.1152,-0.1153 0.1828,-0.1811 0.2034,-0.1982 0.0517,-0.0441 0.1076,-0.0776 0.167,-0.1017 0.06,-0.0241 0.1187,-0.0365 0.1775,-0.0365 0.0988,0 0.1841,0.0289 0.2552,0.0865 0.0712,0.057 0.1188,0.1405 0.1429,0.2499 0.1182,-0.1382 0.2181,-0.2288 0.2999,-0.2717 0.0811,-0.0429 0.1652,-0.0647 0.251,-0.0647 0.0841,0 0.1582,0.0218 0.2234,0.0647 0.0647,0.0429 0.1159,0.1135 0.1541,0.2111 0.0253,0.0664 0.0376,0.1711 0.0376,0.3134l0 0.6791c0,0.0988 0.0077,0.1664 0.0224,0.2028 0.0117,0.0253 0.0329,0.0471 0.0641,0.0647 0.0311,0.0177 0.0811,0.0271 0.1517,0.0271l0 0.0617 -0.7791 0 0 -0.0617 0.0329 0c0.0676,0 0.1206,-0.0136 0.1588,-0.04 0.0264,-0.0182 0.0452,-0.0476 0.0564,-0.0876 0.0047,-0.0194 0.0071,-0.0753 0.0071,-0.167l0 -0.6791c0,-0.1288 -0.0153,-0.2193 -0.0465,-0.2722 -0.0447,-0.0735 -0.1164,-0.11 -0.2152,-0.11 -0.0611,0 -0.1223,0.0153 -0.1834,0.0453 -0.0618,0.0306 -0.1358,0.087 -0.2234,0.1699l-0.0036 0.0188 0.0036 0.0741 0 0.7532c0,0.1076 0.0064,0.1746 0.0182,0.2011 0.0123,0.0264 0.0347,0.0488 0.0682,0.0664 0.0329,0.0177 0.0899,0.0271 0.1705,0.0271l0 0.0617 -0.7979 0 0 -0.0617c0.0876,0 0.1476,-0.0106 0.1805,-0.0312 0.0324,-0.0206 0.0553,-0.0517 0.0676,-0.0929 0.0059,-0.02 0.0089,-0.0764 0.0089,-0.1705l0 -0.6791c0,-0.1288 -0.0188,-0.2211 -0.0571,-0.2769 -0.0505,-0.0735 -0.1211,-0.1106 -0.2116,-0.1106 -0.0624,0 -0.1235,0.0165 -0.1847,0.05 -0.0952,0.0506 -0.1687,0.1076 -0.2204,0.1705l0 0.8461c0,0.1029 0.0076,0.1705 0.0217,0.2011 0.0141,0.0311 0.0359,0.0547 0.0635,0.0699 0.0282,0.0153 0.0853,0.0236 0.1717,0.0236l0 0.0617 -0.7802 0 0 -0.0617c0.0723,0 0.1229,-0.0083 0.1517,-0.0236 0.0282,-0.0152 0.0505,-0.0399 0.0652,-0.074 0.0147,-0.0341 0.0224,-0.0994 0.0224,-0.197l0 -0.6033c0,-0.1734 -0.0053,-0.2851 -0.0153,-0.3357 -0.0082,-0.0382 -0.0212,-0.0641 -0.0382,-0.0782 -0.0171,-0.0147 -0.0406,-0.0217 -0.0706,-0.0217 -0.0323,0 -0.0705,0.0088 -0.1152,0.0258l-0.0259 -0.0623 0.4751 -0.1929 0.0741 0 0 0.3364z"/>
  <path class="fil2" d="M266.795 101.112l0 0.2446 -0.3134 0 0 0.6168 -0.2846 0 0 -0.6168 -0.9883 0 0 -0.2205 1.0836 -1.5469 0.1893 0 0 1.5228 0.3134 0zm-0.598 0l0 -1.1594 -0.8196 1.1594 0.8196 0z"/>
  <path id="1" class="fil2" d="M267.045 100.819c0,-0.2663 0.04,-0.4956 0.1205,-0.6879 0.0806,-0.1923 0.187,-0.3357 0.3205,-0.4298 0.1034,-0.0747 0.2099,-0.1123 0.3204,-0.1123 0.1787,0 0.3399,0.0917 0.4821,0.274 0.1782,0.2264 0.267,0.5327 0.267,0.9202 0,0.271 -0.0388,0.5009 -0.117,0.6902 -0.0782,0.1899 -0.1776,0.3275 -0.2987,0.4128 -0.1211,0.0858 -0.2381,0.1282 -0.351,0.1282 -0.2223,0 -0.4081,-0.1312 -0.5562,-0.3946 -0.1253,-0.2216 -0.1876,-0.4886 -0.1876,-0.8008zm0.3375 0.0429c0,0.3217 0.0394,0.5845 0.1188,0.7873 0.0652,0.1711 0.1634,0.257 0.2928,0.257 0.0623,0 0.1264,-0.0283 0.1928,-0.0835 0.067,-0.0559 0.1176,-0.1494 0.1517,-0.2799 0.0529,-0.1975 0.0794,-0.4762 0.0794,-0.8355 0,-0.2663 -0.0277,-0.4886 -0.0829,-0.6667 -0.0412,-0.1323 -0.0947,-0.2258 -0.1599,-0.2811 -0.0471,-0.0376 -0.1041,-0.0564 -0.1706,-0.0564 -0.0782,0 -0.1475,0.0347 -0.2087,0.1046 -0.0823,0.0953 -0.1387,0.2452 -0.1687,0.4498 -0.03,0.2046 -0.0447,0.4057 -0.0447,0.6044z"/>
  <path id="12" class="fil2" d="M270.142 100.685c0.1152,-0.1153 0.1828,-0.1811 0.2034,-0.1982 0.0517,-0.0441 0.1076,-0.0776 0.167,-0.1017 0.06,-0.0241 0.1187,-0.0365 0.1775,-0.0365 0.0988,0 0.1841,0.0289 0.2552,0.0865 0.0712,0.057 0.1188,0.1405 0.1429,0.2499 0.1182,-0.1382 0.2181,-0.2288 0.2999,-0.2717 0.0811,-0.0429 0.1652,-0.0647 0.251,-0.0647 0.0841,0 0.1582,0.0218 0.2234,0.0647 0.0647,0.0429 0.1159,0.1135 0.1541,0.2111 0.0253,0.0664 0.0376,0.1711 0.0376,0.3134l0 0.6791c0,0.0988 0.0077,0.1664 0.0224,0.2028 0.0117,0.0253 0.0329,0.0471 0.0641,0.0647 0.0311,0.0177 0.0811,0.0271 0.1517,0.0271l0 0.0617 -0.7791 0 0 -0.0617 0.0329 0c0.0676,0 0.1206,-0.0136 0.1588,-0.04 0.0264,-0.0182 0.0452,-0.0476 0.0564,-0.0876 0.0047,-0.0194 0.0071,-0.0753 0.0071,-0.167l0 -0.6791c0,-0.1288 -0.0153,-0.2193 -0.0465,-0.2722 -0.0447,-0.0735 -0.1164,-0.11 -0.2152,-0.11 -0.0611,0 -0.1223,0.0153 -0.1834,0.0453 -0.0618,0.0306 -0.1358,0.087 -0.2234,0.1699l-0.0036 0.0188 0.0036 0.0741 0 0.7532c0,0.1076 0.0064,0.1746 0.0182,0.2011 0.0123,0.0264 0.0347,0.0488 0.0682,0.0664 0.0329,0.0177 0.0899,0.0271 0.1705,0.0271l0 0.0617 -0.7979 0 0 -0.0617c0.0876,0 0.1476,-0.0106 0.1805,-0.0312 0.0324,-0.0206 0.0553,-0.0517 0.0676,-0.0929 0.0059,-0.02 0.0089,-0.0764 0.0089,-0.1705l0 -0.6791c0,-0.1288 -0.0188,-0.2211 -0.0571,-0.2769 -0.0505,-0.0735 -0.1211,-0.1106 -0.2116,-0.1106 -0.0624,0 -0.1235,0.0165 -0.1847,0.05 -0.0952,0.0506 -0.1687,0.1076 -0.2204,0.1705l0 0.8461c0,0.1029 0.0076,0.1705 0.0217,0.2011 0.0141,0.0311 0.0359,0.0547 0.0635,0.0699 0.0282,0.0153 0.0853,0.0236 0.1717,0.0236l0 0.0617 -0.7802 0 0 -0.0617c0.0723,0 0.1229,-0.0083 0.1517,-0.0236 0.0282,-0.0152 0.0505,-0.0399 0.0652,-0.074 0.0147,-0.0341 0.0224,-0.0994 0.0224,-0.197l0 -0.6033c0,-0.1734 -0.0053,-0.2851 -0.0153,-0.3357 -0.0082,-0.0382 -0.0212,-0.0641 -0.0382,-0.0782 -0.0171,-0.0147 -0.0406,-0.0217 -0.0706,-0.0217 -0.0323,0 -0.0705,0.0088 -0.1152,0.0258l-0.0259 -0.0623 0.4751 -0.1929 0.0741 0 0 0.3364z"/>
  <path id="123" class="fil2" d="M272.819 99.5235c0.0482,0 0.0894,0.0171 0.1235,0.0506 0.0335,0.0341 0.0506,0.0753 0.0506,0.1235 0,0.0482 -0.0171,0.0893 -0.0506,0.124 -0.0341,0.0341 -0.0753,0.0518 -0.1235,0.0518 -0.0482,0 -0.0893,-0.0177 -0.124,-0.0518 -0.0341,-0.0347 -0.0518,-0.0758 -0.0518,-0.124 0,-0.0482 0.0171,-0.0894 0.0512,-0.1235 0.0335,-0.0335 0.0752,-0.0506 0.1246,-0.0506zm0.1429 0.8249l0 1.2683c0,0.0988 0.0071,0.164 0.0218,0.197 0.0141,0.0329 0.0352,0.057 0.0635,0.0735 0.0282,0.0158 0.0799,0.0241 0.1546,0.0241l0 0.0617 -0.7667 0 0 -0.0617c0.077,0 0.1288,-0.0077 0.1546,-0.023 0.0265,-0.0147 0.0476,-0.0394 0.0629,-0.0741 0.0159,-0.0341 0.0236,-0.0999 0.0236,-0.1975l0 -0.6086c0,-0.1711 -0.0053,-0.2816 -0.0153,-0.3322 -0.0083,-0.037 -0.0212,-0.0623 -0.0382,-0.0764 -0.0171,-0.0147 -0.0406,-0.0217 -0.0706,-0.0217 -0.0323,0 -0.0711,0.0088 -0.117,0.0258l-0.0241 -0.0623 0.4751 -0.1929 0.0758 0z"/>
  <g id="_271921496">
   <polygon id="_271928840" class="fil3 str2" points="258.611,94.2512 265.251,94.2512 265.251,95.2428 258.611,95.2428 "/>
   <polygon id="_271910672" class="fil4 str2" points="265.251,94.2512 271.892,94.2512 271.892,95.2428 265.251,95.2428 "/>
   <polygon id="_271917224" class="fil3 str2" points="271.892,94.2512 278.532,94.2512 278.532,95.2428 271.892,95.2428 "/>
   <polygon id="_271935680" class="fil3 str2" points="269.255,97.2406 279.875,97.2406 279.875,98.2322 269.255,98.2322 "/>
   <polygon id="_271940192" class="fil4 str2" points="258.634,97.2406 269.255,97.2406 269.255,98.2322 258.634,98.2322 "/>
  </g>
  <rect class="fil5 str3" x="10" y="10" width="276.9" height="96.5535"/>
  <path class="fil6" d="M282.831 103.319c0,-0.1745 0.0447,-0.3448 0.1341,-0.5113 0.0898,-0.166 0.2178,-0.2958 0.3848,-0.3885 0.1665,-0.0927 0.3405,-0.1392 0.5216,-0.1392 0.1792,0 0.3514,0.0456 0.5165,0.1373 0.1655,0.0913 0.2939,0.2197 0.3852,0.3843 0.0917,0.1651 0.1373,0.3373 0.1373,0.5174 0,0.1802 -0.0456,0.3528 -0.1373,0.5174 -0.0913,0.1651 -0.2197,0.2935 -0.3852,0.3852 -0.1651,0.0922 -0.3373,0.1379 -0.5165,0.1379 -0.1811,0 -0.3551,-0.0466 -0.5216,-0.1397 -0.167,-0.0932 -0.295,-0.223 -0.3848,-0.3895 -0.0894,-0.166 -0.1341,-0.3368 -0.1341,-0.5113zm0.1722 0c0,0.1463 0.0376,0.2884 0.1124,0.4266 0.0748,0.1383 0.182,0.2465 0.3208,0.3246 0.1392,0.0781 0.2841,0.1171 0.4351,0.1171 0.1496,0 0.293,-0.0386 0.4304,-0.1152 0.1373,-0.0767 0.2446,-0.1839 0.3212,-0.3218 0.0767,-0.1378 0.1153,-0.2812 0.1153,-0.4313 0,-0.1496 -0.0386,-0.2935 -0.1153,-0.4313 -0.0766,-0.1378 -0.1839,-0.2446 -0.3212,-0.3208 -0.1374,-0.0762 -0.2808,-0.1143 -0.4304,-0.1143 -0.151,0 -0.2959,0.0386 -0.4351,0.1162 -0.1388,0.0776 -0.246,0.1858 -0.3208,0.3245 -0.0748,0.1388 -0.1124,0.2808 -0.1124,0.4257zm1.0362 -0.3335l0.0499 -0.1693c0.1147,0.0277 0.2065,0.0861 0.2747,0.1754 0.0686,0.0899 0.1025,0.1985 0.1025,0.326 0,0.1618 -0.0522,0.293 -0.1571,0.3942 -0.1044,0.1011 -0.2498,0.1519 -0.4351,0.1519 -0.1213,0 -0.2267,-0.023 -0.3165,-0.0691 -0.0894,-0.0461 -0.1571,-0.1115 -0.2023,-0.1962 -0.0456,-0.0851 -0.0682,-0.1825 -0.0682,-0.2916 0,-0.1223 0.0292,-0.2239 0.0875,-0.3048 0.0583,-0.0804 0.1373,-0.1359 0.2375,-0.1651l0.04 0.1641c-0.0682,0.0273 -0.1199,0.0683 -0.1566,0.1219 -0.0363,0.0536 -0.0541,0.1166 -0.0541,0.1895 0,0.1054 0.0376,0.1924 0.1129,0.2611 0.0752,0.0682 0.1834,0.1025 0.3236,0.1025 0.1406,0 0.2469,-0.0324 0.3194,-0.0969 0.0719,-0.0649 0.1081,-0.1486 0.1081,-0.2516 0,-0.0828 -0.024,-0.1552 -0.0719,-0.2178 -0.0475,-0.0626 -0.1124,-0.1039 -0.1943,-0.1242z"/>
  <path id="1" class="fil6" d="M284.886 100.365l-0.1849 0c0.1454,0.0927 0.2178,0.2291 0.2178,0.4093 0,0.1166 -0.032,0.2238 -0.0964,0.3217 -0.064,0.0978 -0.1538,0.1735 -0.2695,0.2276 -0.1153,0.0537 -0.2474,0.0805 -0.3975,0.0805 -0.1458,0 -0.2784,-0.0245 -0.3974,-0.0729 -0.119,-0.049 -0.2103,-0.1219 -0.2733,-0.2192 -0.0635,-0.0974 -0.0955,-0.2065 -0.0955,-0.3269 0,-0.088 0.0188,-0.1665 0.056,-0.2352 0.0371,-0.0692 0.0856,-0.1251 0.1453,-0.1684l-0.7248 0 0 -0.2465 2.0202 0 0 0.23zm-0.7305 0.7841c0.1877,0 0.3279,-0.0395 0.4205,-0.1185 0.0927,-0.079 0.1393,-0.1722 0.1393,-0.2799 0,-0.1081 -0.0447,-0.2003 -0.1332,-0.2761 -0.0884,-0.0757 -0.2239,-0.1138 -0.4059,-0.1138 -0.2004,0 -0.3471,0.0386 -0.4407,0.1157 -0.0941,0.0772 -0.1407,0.1722 -0.1407,0.2855 0,0.1101 0.0452,0.2023 0.135,0.2761 0.0899,0.0739 0.2319,0.111 0.4257,0.111z"/>
  <polygon id="12" class="fil6" points="284.279,99.8412 284.03,99.8412 284.03,99.0788 284.279,99.0788 "/>
  <path id="123" class="fil6" d="M284.886 98.8045l-1.4633 0 0 -0.2215 0.2051 0c-0.0715,-0.0461 -0.1294,-0.1073 -0.1727,-0.1835 -0.0437,-0.0762 -0.0658,-0.1632 -0.0658,-0.2605 0,-0.1082 0.0226,-0.1971 0.0677,-0.2663 0.0452,-0.0696 0.1077,-0.1185 0.1886,-0.1467 -0.1707,-0.1162 -0.2563,-0.2667 -0.2563,-0.452 0,-0.1454 0.0404,-0.2569 0.1209,-0.3349 0.0804,-0.0781 0.2041,-0.1172 0.3711,-0.1172l1.0047 0 0 0.2465 -0.9219 0c-0.0993,0 -0.1708,0.008 -0.2145,0.024 -0.0433,0.0165 -0.0786,0.0456 -0.1054,0.0875 -0.0263,0.0423 -0.0399,0.0922 -0.0399,0.1491 0,0.103 0.0343,0.1881 0.103,0.2563 0.0682,0.0678 0.1778,0.1021 0.3283,0.1021l0.8504 0 0 0.2479 -0.9506 0c-0.1105,0 -0.1933,0.0202 -0.2484,0.0607 -0.055,0.0404 -0.0827,0.1063 -0.0827,0.1985 0,0.0696 0.0183,0.134 0.0555,0.1933 0.0366,0.0593 0.0903,0.1025 0.1608,0.1289 0.071,0.0268 0.1731,0.04 0.3062,0.04l0.7592 0 0 0.2478z"/>
  <path id="1234" class="fil6" d="M284.705 95.4988c0.0781,0.0922 0.1331,0.1806 0.1655,0.2653 0.032,0.0851 0.048,0.1764 0.048,0.2737 0,0.1609 -0.039,0.2841 -0.1176,0.3707 -0.0785,0.0861 -0.1792,0.1293 -0.301,0.1293 -0.072,0 -0.1373,-0.016 -0.1966,-0.0489 -0.0593,-0.0324 -0.1068,-0.0752 -0.1425,-0.1279 -0.0358,-0.0532 -0.0631,-0.1124 -0.0814,-0.1788 -0.0127,-0.0484 -0.0254,-0.1218 -0.0372,-0.2201 -0.024,-0.2004 -0.0522,-0.3481 -0.0856,-0.4426 -0.0338,-0.001 -0.0555,-0.0014 -0.0644,-0.0014 -0.1011,0 -0.1726,0.0235 -0.2136,0.0705 -0.0564,0.0631 -0.0842,0.1576 -0.0842,0.2823 0,0.1166 0.0203,0.2027 0.0612,0.2587 0.0409,0.0555 0.1133,0.0964 0.2173,0.1232l-0.0334 0.2422c-0.1035,-0.0221 -0.1877,-0.0583 -0.2512,-0.1086 -0.0639,-0.0504 -0.1133,-0.1237 -0.1477,-0.2192 -0.0343,-0.0955 -0.0517,-0.206 -0.0517,-0.3321 0,-0.1251 0.015,-0.2262 0.0442,-0.3043 0.0296,-0.0781 0.0663,-0.1355 0.111,-0.1726 0.0447,-0.0367 0.1007,-0.0621 0.1689,-0.0772 0.0423,-0.008 0.1185,-0.0122 0.2286,-0.0122l0.3306 0c0.231,0 0.3768,-0.0052 0.4375,-0.016 0.0611,-0.0104 0.1199,-0.0315 0.1759,-0.0626l0 0.2592c-0.0513,0.0254 -0.1115,0.0423 -0.1806,0.0494zm-0.5541 0.0207c0.0371,0.0903 0.0682,0.2253 0.0941,0.405 0.0145,0.102 0.031,0.1745 0.0493,0.2163 0.0184,0.0424 0.0452,0.0753 0.081,0.0979 0.0352,0.023 0.0743,0.0348 0.1175,0.0348 0.0664,0 0.1214,-0.0254 0.1656,-0.0753 0.0438,-0.0498 0.0659,-0.1232 0.0659,-0.2196 0,-0.0955 -0.0207,-0.1807 -0.0626,-0.255 -0.0419,-0.0743 -0.0992,-0.1293 -0.1717,-0.1641 -0.056,-0.0268 -0.1387,-0.04 -0.2479,-0.04l-0.0912 0z"/>
  <path id="12345" class="fil6" d="M285.446 94.884l-2.024 0 0 -0.2257 0.19 0c-0.0743,-0.0532 -0.1303,-0.1134 -0.1674,-0.1807 -0.0372,-0.0668 -0.056,-0.1481 -0.056,-0.2436 0,-0.1251 0.0324,-0.2352 0.0964,-0.3307 0.0645,-0.0959 0.1552,-0.1679 0.2724,-0.2163 0.1171,-0.049 0.2455,-0.0734 0.3852,-0.0734 0.1496,0 0.2846,0.0268 0.4045,0.0809 0.1199,0.0536 0.2117,0.1317 0.2756,0.2342 0.0635,0.1026 0.0955,0.2103 0.0955,0.3232 0,0.0827 -0.0174,0.1566 -0.0522,0.2224 -0.0348,0.0659 -0.079,0.1195 -0.1322,0.1619l0.7122 0 0 0.2478zm-1.2841 -0.2243c0.1881,0 0.3274,-0.0381 0.4177,-0.1143 0.0898,-0.0762 0.135,-0.1689 0.135,-0.2771 0,-0.11 -0.0466,-0.2046 -0.1402,-0.2831 -0.0931,-0.0786 -0.2375,-0.1181 -0.4332,-0.1181 -0.1868,0 -0.326,0.0386 -0.4191,0.1152 -0.0927,0.0767 -0.1392,0.1684 -0.1392,0.2747 0,0.1059 0.0493,0.1995 0.1481,0.2808 0.0988,0.0814 0.2427,0.1219 0.4309,0.1219z"/>
  <path id="123456" class="fil6" d="M284.449 93.4137l-0.0385 -0.2451c0.0983,-0.0136 0.1735,-0.0522 0.2262,-0.1152 0.0522,-0.0626 0.0786,-0.1505 0.0786,-0.2639 0,-0.1138 -0.0236,-0.1985 -0.0697,-0.2535 -0.0465,-0.0551 -0.1011,-0.0828 -0.1632,-0.0828 -0.0564,0 -0.1002,0.0245 -0.1326,0.0734 -0.0221,0.0338 -0.0499,0.1185 -0.0837,0.2535 -0.0461,0.1816 -0.0857,0.3081 -0.1195,0.3782 -0.0334,0.0701 -0.08,0.1237 -0.1392,0.1599 -0.0593,0.0362 -0.1247,0.0546 -0.1962,0.0546 -0.0654,0 -0.1256,-0.0151 -0.1811,-0.0452 -0.056,-0.0296 -0.102,-0.0705 -0.1387,-0.1218 -0.0283,-0.0386 -0.0527,-0.0913 -0.0725,-0.1576 -0.0197,-0.0668 -0.0296,-0.1383 -0.0296,-0.2145 0,-0.1147 0.0169,-0.2154 0.0499,-0.3024 0.0329,-0.087 0.0776,-0.151 0.134,-0.1924 0.0569,-0.0414 0.1322,-0.0696 0.2267,-0.0851l0.0334 0.2422c-0.0752,0.0113 -0.134,0.0433 -0.1764,0.096 -0.0423,0.0526 -0.0635,0.1274 -0.0635,0.2238 0,0.1139 0.0188,0.1952 0.0565,0.2437 0.0376,0.0489 0.0818,0.0734 0.1321,0.0734 0.0325,0 0.0612,-0.0104 0.0871,-0.0306 0.0268,-0.0202 0.0484,-0.0517 0.0663,-0.095 0.0089,-0.0249 0.0301,-0.0979 0.063,-0.2192 0.0471,-0.1755 0.0852,-0.2977 0.1153,-0.3669 0.0296,-0.0696 0.0733,-0.1242 0.1302,-0.1637 0.057,-0.0395 0.1275,-0.0592 0.2122,-0.0592 0.0828,0 0.1604,0.0244 0.2338,0.0724 0.0729,0.0484 0.1293,0.1181 0.1693,0.2088 0.04,0.0908 0.0597,0.1938 0.0597,0.3086 0,0.1905 -0.0395,0.3354 -0.1185,0.4351 -0.079,0.0997 -0.1961,0.1632 -0.3514,0.1905z"/>
  <polygon id="1234567" class="fil6" points="284.886,91.8333 284.603,91.8333 284.603,91.5506 284.886,91.5506 "/>
  <path id="12345678" class="fil6" d="M284.35 90.1644l0.032 -0.2437c0.1679,0.0264 0.2996,0.0946 0.3946,0.2047 0.095,0.1095 0.1425,0.2445 0.1425,0.4045 0,0.1999 -0.0654,0.3612 -0.1961,0.4826 -0.1308,0.1218 -0.3185,0.1829 -0.563,0.1829 -0.1581,0 -0.2964,-0.0263 -0.4149,-0.0785 -0.1185,-0.0527 -0.2074,-0.1322 -0.2667,-0.2394 -0.0593,-0.1068 -0.0889,-0.2235 -0.0889,-0.349 0,-0.159 0.0404,-0.2893 0.1209,-0.39 0.0804,-0.1011 0.1942,-0.166 0.3424,-0.1947l0.0372 0.2413c-0.0983,0.023 -0.1722,0.0635 -0.222,0.1218 -0.0494,0.0583 -0.0744,0.1289 -0.0744,0.2117 0,0.1251 0.0447,0.2267 0.1346,0.3048 0.0893,0.0781 0.2309,0.1171 0.4247,0.1171 0.1966,0 0.3396,-0.0376 0.429,-0.1134 0.0889,-0.0752 0.1336,-0.1735 0.1336,-0.2949 0,-0.0973 -0.0301,-0.1783 -0.0899,-0.2436 -0.0597,-0.0654 -0.1514,-0.1068 -0.2756,-0.1242z"/>
  <path id="123456789" class="fil6" d="M284.154 89.8008c-0.2709,0 -0.4718,-0.0753 -0.6021,-0.2262 -0.1081,-0.1256 -0.1627,-0.279 -0.1627,-0.4601 0,-0.2013 0.0658,-0.3659 0.198,-0.4934 0.1317,-0.1279 0.3138,-0.1914 0.5461,-0.1914 0.1886,0 0.3368,0.0282 0.4445,0.0846 0.1082,0.0565 0.1919,0.1388 0.2517,0.2465 0.0597,0.1082 0.0893,0.2258 0.0893,0.3537 0,0.2046 -0.0654,0.3702 -0.1971,0.4967 -0.1312,0.1266 -0.3203,0.1896 -0.5677,0.1896zm0 -0.2549c0.1877,0 0.3279,-0.041 0.421,-0.1228 0.0936,-0.0819 0.1402,-0.1849 0.1402,-0.3086 0,-0.1232 -0.0471,-0.2257 -0.1407,-0.3076 -0.0936,-0.0814 -0.2366,-0.1223 -0.4285,-0.1223 -0.1811,0 -0.3184,0.0409 -0.4116,0.1233 -0.0931,0.0823 -0.1397,0.1843 -0.1397,0.3066 0,0.1237 0.0466,0.2267 0.1393,0.3086 0.0926,0.0818 0.2328,0.1228 0.42,0.1228z"/>
  <path id="12345678910" class="fil6" d="M284.886 88.1385l-1.4633 0 0 -0.2215 0.2051 0c-0.0715,-0.0461 -0.1294,-0.1073 -0.1727,-0.1835 -0.0437,-0.0762 -0.0658,-0.1632 -0.0658,-0.2605 0,-0.1082 0.0226,-0.1971 0.0677,-0.2663 0.0452,-0.0696 0.1077,-0.1185 0.1886,-0.1467 -0.1707,-0.1162 -0.2563,-0.2667 -0.2563,-0.452 0,-0.1454 0.0404,-0.2569 0.1209,-0.3349 0.0804,-0.0781 0.2041,-0.1172 0.3711,-0.1172l1.0047 0 0 0.2465 -0.9219 0c-0.0993,0 -0.1708,0.008 -0.2145,0.024 -0.0433,0.0165 -0.0786,0.0456 -0.1054,0.0875 -0.0263,0.0423 -0.0399,0.0922 -0.0399,0.1491 0,0.103 0.0343,0.1881 0.103,0.2563 0.0682,0.0678 0.1778,0.1021 0.3283,0.1021l0.8504 0 0 0.2479 -0.9506 0c-0.1105,0 -0.1933,0.0202 -0.2484,0.0607 -0.055,0.0404 -0.0827,0.1063 -0.0827,0.1985 0,0.0696 0.0183,0.134 0.0555,0.1933 0.0366,0.0593 0.0903,0.1025 0.1608,0.1289 0.071,0.0268 0.1731,0.04 0.3062,0.04l0.7592 0 0 0.2478z"/>
 </g>
</svg>
