<?xml version="1.0" encoding="UTF-8" standalone="no"?>
<svg
   xmlns:dc="http://purl.org/dc/elements/1.1/"
   xmlns:cc="http://creativecommons.org/ns#"
   xmlns:rdf="http://www.w3.org/1999/02/22-rdf-syntax-ns#"
   xmlns:svg="http://www.w3.org/2000/svg"
   xmlns="http://www.w3.org/2000/svg"
   xmlns:sodipodi="http://sodipodi.sourceforge.net/DTD/sodipodi-0.dtd"
   xmlns:inkscape="http://www.inkscape.org/namespaces/inkscape"
   color-interpolation="auto"
   color-rendering="auto"
   font-size="12"
   font-style="normal"
   font-weight="normal"
   height="274.92047"
   image-rendering="auto"
   shape-rendering="auto"
   stroke-miterlimit="10"
   text-rendering="auto"
   width="1167.3262"
   id="svg2"
   sodipodi:version="0.32"
   inkscape:version="0.47 r22583"
   sodipodi:docname="Flag_of_Connecticut.svg"
   inkscape:output_extension="org.inkscape.output.svg.inkscape"
   version="1.0"
   style="font-size:12px;font-style:normal;font-weight:normal;fill:#000000;fill-opacity:1;stroke:#000000;stroke-width:1;stroke-linecap:square;stroke-linejoin:miter;stroke-miterlimit:10;stroke-opacity:1;stroke-dasharray:none;stroke-dashoffset:0;font-family:Dialog">
  <metadata
     id="metadata592">
    <rdf:RDF>
      <cc:Work
         rdf:about="">
        <dc:format>image/svg+xml</dc:format>
        <dc:type
           rdf:resource="http://purl.org/dc/dcmitype/StillImage" />
      </cc:Work>
    </rdf:RDF>
  </metadata>
  <sodipodi:namedview
     inkscape:window-height="1004"
     inkscape:window-width="1280"
     inkscape:pageshadow="2"
     inkscape:pageopacity="0.0"
     guidetolerance="10.0"
     gridtolerance="10.0"
     objecttolerance="10.0"
     borderopacity="1.0"
     bordercolor="#666666"
     pagecolor="#ffffff"
     id="base"
     inkscape:zoom="0.44866667"
     inkscape:cx="550.42668"
     inkscape:cy="119.00173"
     inkscape:window-x="-8"
     inkscape:window-y="-8"
     inkscape:current-layer="g11"
     showgrid="false"
     inkscape:window-maximized="1" />
  <!--Generated by the Batik Graphics2D SVG Generator-->
  <defs
     id="genericDefs">
    <inkscape:perspective
       sodipodi:type="inkscape:persp3d"
       inkscape:vp_x="0 : 137.57672 : 1"
       inkscape:vp_y="0 : 1000 : 0"
       inkscape:vp_z="1167.559 : 137.57672 : 1"
       inkscape:persp3d-origin="583.77948 : 91.717814 : 1"
       id="perspective27" />
    <defs
       id="defs1">
      <clipPath
         id="clipPath1"
         clipPathUnits="userSpaceOnUse">
        <path
           id="path9"
           d="m 0,0 1500,0 0,415 L 0,415 0,0 z" />
      </clipPath>
    </defs>
    <clipPath
       clipPathUnits="userSpaceOnUse"
       id="clipPath4337">
      <path
         transform="matrix(0.623364,0,0,0.623364,-133.72122,305.36351)"
         clip-path="url(#clipPath1)"
         d="m 56.6199,315.8858 0,0 z m 1302.6654,-255.7256 52.669,0.2691 1.8956,-4.3476 30.6105,0.7577 14.8418,0.0911 -5.4912,5.1359 0.5815,2.7509 -2.1742,0.6586 -0.2497,2.5171 -0.9824,2.2301 -1.8291,2.6851 1.7465,4.4741 0.085,2.406 0.2465,3.1793 -0.033,2.021 -2.2146,2.0622 -0.6931,2.3957 -0.146,2.03 -0.7281,2.2846 -2.424,2.148 -1.2749,2.2453 2.1183,2.3859 -0.9957,2.3066 1.4079,2.1094 0.6049,2.0445 0.8233,2.1286 2.0054,1.2381 -2.1971,1.0659 -2.083,-1.0319 -2.3965,0.7507 -2.5529,-0.5401 -2.0984,-0.6847 -2.5963,-0.9055 -0.6488,-2.1932 -2.4077,1.0474 -4.12,1.3351 -3.262,2.1355 -2.0494,1.4258 -2.2369,3.0354 -2.5592,1.344 -2.2364,1.0217 -5.0705,9.0798 -3.4951,5.5207 -10.9681,19.3487 -2.8518,0.9488 -2.8683,2.4307 -3.033,1.3045 -3.0992,0.1583 -2.7529,0.2175 -2.2583,0.1188 -1.4881,-3.0747 -0.4737,-3.2882 -1.1704,-2.6284 -2.0439,0.5336 -2.72,0.9092 -2.5879,-1.3238 -3.5116,-2.0155 -2.54,2.8805 -2.026,1.4673 -2.1264,0.2176 -2.0277,1.7983 -2.2417,-0.3755 -3.8078,-0.4347 -2.4233,1.9959 -2.9505,1.1662 -2.209,-0.3953 -2.0962,1.5934 -2.2062,0.6595 -2.3736,1.7193 -2.39,1.8378 -9.2803,15.7898 -2.5247,1.8835 -4.0926,3.1657 -2.0382,1.3663 -2.3587,0.5429 -2.4537,0.89 -2.5403,2.7851 -2.851,-0.8857 -2.7703,-1.5808 -2.602,0.0713 -0.022,-2.6919 0.1567,-2.4756 -1.2229,-2.2402 1.0055,-2.3321 2.8351,-3.2012 -2.489,-1.8774 -1.8298,-2.6084 -2.4397,-1.9762 -2.9836,1.2648 -2.7362,0.9683 -2.0604,0.8893 -2.9011,2.4507 -2.9669,1.423 -1.6816,2.0946 -2.2746,0.6324 -2.1924,1.7588 -3.3625,1.1068 -2.1658,2.3078 0.024,2.1798 1.2869,2.1507 -1.6012,2.9146 -2.1373,1.5826 -0.3852,2.7718 -2.0373,0.8843 -2.2757,-1.4382 -2.0317,-1.7369 -3.2085,-1.1282 -2.2146,-1.0411 -2.4681,0.8616 -2.0738,2.0997 -0.063,2.1535 -2.9337,-0.3921 1.3516,2.3807 0.5404,2.308 1.2046,2.3948 -0.4042,2.4856 -1.1811,2.3276 -1.5748,2.485 0.6605,2.8501 -2.9212,0.982 -0.3234,2.1886 -2.074,1.1197 -1.6359,3.125 -0.5236,2.5741 -3.6808,2.5778 -2.8381,0.864 -2.4755,-1.6458 -3.2972,-1.0748 -2.7145,-0.4235 -3.2216,0.2446 -2.1401,0.4972 -2.0891,1.993 -2.079,0.9478 -2.8378,0.5573 -2.2104,0.4259 -2.9821,0.2067 -0.9167,2.0303 -2.0983,2.1155 -1.3492,2.7712 -2.074,0.8688 -2.676,0.2094 -4.3134,-0.4596 -2.4429,2.3291 0.06,2.6641 -0.6651,2.2365 -2.0138,1.7193 -2.932,1.3768 -0.7435,2.488 -2.4628,1.1598 -2.0578,-1.3369 -2.2853,-0.5249 -2.7354,1.1093 -1.1045,2.2447 -1.9959,2.0345 -3.0252,0.913 -1.3028,2.147 -3.0254,1.6017 -2.8546,0.9236 -2.226,-0.3679 -1.6351,2.7188 -2.5781,1.5298 -1.1846,2.1882 -1.1023,2.1339 -2.1592,1.0776 -3.1696,0.0216 -2.7371,-0.3552 -2.9667,0.0637 -2.2951,-0.3255 -2.6224,0.6539 -2.3896,-2.3839 -2.0426,-0.9296 -2.2669,1.4569 -2.3968,0.9847 -3.1864,-0.5697 -2.7331,0.1986 -2.5869,0.2338 -3.0349,-0.1467 -2.6803,1.316 -2.0126,-0.7077 -2.0443,1.1081 -2.4463,-0.5959 -2.838,2.4655 -2.3262,0.9994 -2.3854,1.7618 -2.7819,2.4872 -3.7767,0.9031 -3.3295,-0.2189 -2.2849,0.6294 -1.5678,2.785 -1.5582,2.3839 -1.689,2.9639 -2.0915,0.3225 -2.0692,0.5701 -2.2483,2.1205 -2.0537,0.4429 -1.5404,2.1979 -2.5535,1.2734 -1.6954,2.0284 -2.715,3.7006 -0.6759,2.4112 1.2528,3.0433 0.4131,2.3552 -1.8936,2.9568 -2.3324,1.2956 -0.254,2.0092 0.5719,2.5091 -0.511,2.0355 1.533,2.2726 0.445,2.075 -2.0606,1.4031 -1.5659,2.4902 -5.8692,2.9517 -2.7941,2.7542 -2.645,-0.3502 -2.0935,0.494 -2.1263,0.0595 -3.1651,0.0593 -3.2308,1.0278 -2.4067,-0.8102 -1.5989,-2.154 -1.9452,-2.1144 -2.1759,-0.2964 -2.4562,2.9248 -2.4725,1.3637 -2.9177,2.2529 -2.1587,2.0525 -1.0233,7.667 -2.017,15.6973 -2.4575,23.2704 -22.4406,0.0624 -58.1357,0.1435 -13.3214,-0.1733 -56.7243,0.4761 -23.7147,0.5531 -14.3738,0.0124 -58.8973,-1.0195 -90.8186,-0.7134 -15.3504,0.2492 -33.2058,-0.3674 -31.7445,0.0755 -91.7659,-2.1167 -42.1213,-0.1796 -87.1258,-0.8796 0.4772,2.4493 -107.3032,0.1085 -7.0655,-0.165 -5.7397,0.217 -83.4449,0.211 -34.5046,-0.3041 -34.1377,0.2184 -75.4788,-0.2977 -0.0969,-2.7777 1.5131,-3.7633 0.8409,-2.2331 4.995,-0.0397 5.7168,1.7735 2.6751,1.0918 2.3632,-1.4027 0.4655,-3.0607 0.2222,-2.3373 2.3878,-6.1643 0.749,-4.0881 2.7668,-3.3086 2.8457,-1.2373 5.5057,3.2015 3.0961,0.1193 3.2007,-2.6291 0.6979,-4.0014 -4.225,-1.1853 -2.4956,-2.2708 -1.0688,-2.4432 -0.3244,-3.3214 3.2499,0.7213 1.2971,-3.4638 2.3415,0.3531 -0.8165,-3.6064 -3.0662,-4.1786 -3.0571,-1.1472 -3.9397,0.6915 -3.0447,-2.0331 -1.274,-2.3736 0.4586,-4.2542 2.3675,-1.4203 3.3332,0.3532 2.1616,-0.3749 1.5313,-4.1907 -0.5718,-3.5908 2.22,-2.8512 3.5989,-5.3231 -2.1018,-1.3212 -2.8186,-2.1045 -4.0633,-2.4252 -2.4185,1.6215 0.1138,3.5477 1.3129,2.1607 -5.0664,0.38 -2.146,-2.0649 1.4118,-4.915 0.2799,-2.3295 6.5201,-3.9676 0.938,-3.3957 2.6241,-3.5024 3.2831,-0.4395 2.2715,1.2879 1.139,2.2906 -1.1265,4.2174 0.4251,3.1038 0.3028,3.3208 2.5261,3.5223 2.1031,-1.4511 -2.5086,-1.4313 2.3311,-3.4334 1.9152,-2.3353 0.7281,-2.9118 0.9559,-3.1808 -2.1404,-3.0685 -1.5928,-2.554 -0.8351,-2.3758 -0.3135,-2.1593 1.3945,-4.3838 0.3975,-2.1916 2.1779,-1.5021 3.3679,-0.845 2.7043,0.0589 5.0522,3.6006 0.1929,2.3111 1.5938,2.0021 2.3729,0.3067 2.3544,0.9225 2.5465,-4.0127 -0.8224,-2.6091 -3.266,-0.8055 -2.1742,-1.0682 -2.0764,-3.9027 -0.4983,-2.3561 1.7776,-2.4226 2.3405,-1.3878 2.1361,-0.8632 3.2639,-0.5623 3.6081,-2.1696 3.4282,-1.6102 0.9737,-4.599 -1.1183,-2.1517 -3.1674,0.43 -1.2815,2.1796 -3.181,0.8122 -3.0525,-0.849 -2.4122,-2.0588 -2.1063,-3.3046 -1.1731,-4.0826 -0.2639,-4.0992 1.4179,-2.8969 5.1379,-2.8716 2.1008,-1.2918 2.9998,1.8744 1.9288,2.3815 4.8354,-3.453 4.3273,-0.2705 2.1025,-1.7772 1.8242,-3.3175 0.1201,-2.0076 2.497,-2.468 2.591,-0.8334 3.6491,0.7375 3.212,-0.6849 3.2054,-2.0474 0.5268,-2.0364 -4.6691,-3.5018 -3.0196,-0.9532 -2.721,-1.1576 -1.5272,-2.2898 0.802,-3.3127 4.3083,-3.9504 4.5613,0.0802 4.4171,1.8383 2.1514,2.4862 3.9874,-1.2811 0.9984,-2.6687 -1.3685,-3.6099 -5.5688,-4.9598 -2.1341,-1.2543 -2.4221,-1.7729 -0.7587,-4.5337 -2.2957,-2.8916 4.3126,-0.0737 2.3893,-3.8587 1.7293,-10.2424 0.5151,-2.4307 2.0148,-2.2066 3.8864,-1.545 2.4256,-0.6389 4.5831,-2.6999 1.4619,-4.2725 -0.4558,-2.6327 -3.0636,-4.0548 -3.9414,-2.5643 -2.964,-2.4858 -4.0669,-2.842 -3.3179,-2.9465 0.1828,-3.9069 2.0339,0.2142 5.5564,-0.2342 6.8201,2.257 3.9262,-0.0421 4.1406,-2.2577 2.8785,0.6768 1.5188,-4.5565 -3.0923,-1.4248 -3.9895,-2.0881 -5.4934,-4.1047 -1.3906,-2.7505 0.7276,-2.5847 2.5215,-1.3635 3.1167,0.1241 3.494,0.9112 2.5439,0.1852 2.1732,-0.4816 2.1135,-1.8486 0.9597,-2.2325 0.5696,-2.7131 -2.5666,-5.3001 -2.8095,-3.8846 -0.449,-2.9271 3.2755,-3.7698 0.9016,-2.5713 -0.152,-2.3054 -2.2882,-2.5224 8.1458,-1.2371 -1.3633,3.702 0.4597,2.5673 3.0812,1.6616 3.7799,-1.447 3.1141,-3.4028 1.5507,-2.3434 4.8825,-1.0118 9.4068,-1.0572 5.5538,-0.5372 28.8819,0.6783 23.9391,0.2693 42.6869,-0.0474 3.0954,0.3818 3.4242,-0.3881 21.175,0.0768 46.9875,0.4117 35.3723,0.5974 2.0301,-2.3027 0.5054,-2.4182 0.8794,-3.8819 -0.517,-4.1646 -0.6595,-2.1833 -0.9069,-5.9594 -1.7491,-5.4416 -1.4279,-4.0273 -1.0106,-5.3879 9.6824,0.216 19.4942,2.0784 7.2429,0.5571 -0.5962,6.0159 38.2851,-1.0318 30.4577,-0.481 49.693,-0.2427 20.2624,-0.3272 69.4805,-1.7114 4.3576,3.7298 2.1155,-0.8969 7.1498,-2.8549 28.9919,0.7542 20.8068,1.7896 21.1619,1.1565 9.1088,0.7588 31.2943,1.5717 5.0304,-0.0747 20.3675,0.8381 29.3323,0.6557 27.3374,-1.5991 5.5591,-0.2935 9.9224,-0.3751 20.0906,0.5917 15.3077,0.7768 30.0597,2.8224 35.9602,1.0972 13.4818,0.6518 16.534,0.0391 28.2957,0.8294 42.8329,0.3363 36.6438,1.2446 16.2043,0.2571 1.2851,-2.0352 6.1532,-1.4075 3.8811,0.3996 10.7338,0.1176 46.2563,-0.1585 2.5058,0.8498 2.0053,0.0118 96.5015,0.0362 29.0526,-0.4302 3.4059,0.265 35.0945,-0.2164 z"
         id="path4339"
         style="fill:#fefee9;stroke:#000000;stroke-width:2;stroke-miterlimit:10;stroke-opacity:1;stroke-dasharray:none" />
    </clipPath>
    <clipPath
       clipPathUnits="userSpaceOnUse"
       id="clipPath3241">
      <path
         transform="matrix(0.3715679,0,0,0.764403,2193.8787,231.14963)"
         clip-path="url(#clipPath1)"
         d="m 56.6199,315.8858 0,0 z m 1302.6654,-255.7256 52.669,0.2691 1.8956,-4.3476 30.6105,0.7577 14.8418,0.0911 -5.4912,5.1359 0.5815,2.7509 -2.1742,0.6586 -0.2497,2.5171 -0.9824,2.2301 -1.8291,2.6851 1.7465,4.4741 0.085,2.406 0.2465,3.1793 -0.033,2.021 -2.2146,2.0622 -0.6931,2.3957 -0.146,2.03 -0.7281,2.2846 -2.424,2.148 -1.2749,2.2453 2.1183,2.3859 -0.9957,2.3066 1.4079,2.1094 0.6049,2.0445 0.8233,2.1286 2.0054,1.2381 -2.1971,1.0659 -2.083,-1.0319 -2.3965,0.7507 -2.5529,-0.5401 -2.0984,-0.6847 -2.5963,-0.9055 -0.6488,-2.1932 -2.4077,1.0474 -4.12,1.3351 -3.262,2.1355 -2.0494,1.4258 -2.2369,3.0354 -2.5592,1.344 -2.2364,1.0217 -5.0705,9.0798 -3.4951,5.5207 -10.9681,19.3487 -2.8518,0.9488 -2.8683,2.4307 -3.033,1.3045 -3.0992,0.1583 -2.7529,0.2175 -2.2583,0.1188 -1.4881,-3.0747 -0.4737,-3.2882 -1.1704,-2.6284 -2.0439,0.5336 -2.72,0.9092 -2.5879,-1.3238 -3.5116,-2.0155 -2.54,2.8805 -2.026,1.4673 -2.1264,0.2176 -2.0277,1.7983 -2.2417,-0.3755 -3.8078,-0.4347 -2.4233,1.9959 -2.9505,1.1662 -2.209,-0.3953 -2.0962,1.5934 -2.2062,0.6595 -2.3736,1.7193 -2.39,1.8378 -9.2803,15.7898 -2.5247,1.8835 -4.0926,3.1657 -2.0382,1.3663 -2.3587,0.5429 -2.4537,0.89 -2.5403,2.7851 -2.851,-0.8857 -2.7703,-1.5808 -2.602,0.0713 -0.022,-2.6919 0.1567,-2.4756 -1.2229,-2.2402 1.0055,-2.3321 2.8351,-3.2012 -2.489,-1.8774 -1.8298,-2.6084 -2.4397,-1.9762 -2.9836,1.2648 -2.7362,0.9683 -2.0604,0.8893 -2.9011,2.4507 -2.9669,1.423 -1.6816,2.0946 -2.2746,0.6324 -2.1924,1.7588 -3.3625,1.1068 -2.1658,2.3078 0.024,2.1798 1.2869,2.1507 -1.6012,2.9146 -2.1373,1.5826 -0.3852,2.7718 -2.0373,0.8843 -2.2757,-1.4382 -2.0317,-1.7369 -3.2085,-1.1282 -2.2146,-1.0411 -2.4681,0.8616 -2.0738,2.0997 -0.063,2.1535 -2.9337,-0.3921 1.3516,2.3807 0.5404,2.308 1.2046,2.3948 -0.4042,2.4856 -1.1811,2.3276 -1.5748,2.485 0.6605,2.8501 -2.9212,0.982 -0.3234,2.1886 -2.074,1.1197 -1.6359,3.125 -0.5236,2.5741 -3.6808,2.5778 -2.8381,0.864 -2.4755,-1.6458 -3.2972,-1.0748 -2.7145,-0.4235 -3.2216,0.2446 -2.1401,0.4972 -2.0891,1.993 -2.079,0.9478 -2.8378,0.5573 -2.2104,0.4259 -2.9821,0.2067 -0.9167,2.0303 -2.0983,2.1155 -1.3492,2.7712 -2.074,0.8688 -2.676,0.2094 -4.3134,-0.4596 -2.4429,2.3291 0.06,2.6641 -0.6651,2.2365 -2.0138,1.7193 -2.932,1.3768 -0.7435,2.488 -2.4628,1.1598 -2.0578,-1.3369 -2.2853,-0.5249 -2.7354,1.1093 -1.1045,2.2447 -1.9959,2.0345 -3.0252,0.913 -1.3028,2.147 -3.0254,1.6017 -2.8546,0.9236 -2.226,-0.3679 -1.6351,2.7188 -2.5781,1.5298 -1.1846,2.1882 -1.1023,2.1339 -2.1592,1.0776 -3.1696,0.0216 -2.7371,-0.3552 -2.9667,0.0637 -2.2951,-0.3255 -2.6224,0.6539 -2.3896,-2.3839 -2.0426,-0.9296 -2.2669,1.4569 -2.3968,0.9847 -3.1864,-0.5697 -2.7331,0.1986 -2.5869,0.2338 -3.0349,-0.1467 -2.6803,1.316 -2.0126,-0.7077 -2.0443,1.1081 -2.4463,-0.5959 -2.838,2.4655 -2.3262,0.9994 -2.3854,1.7618 -2.7819,2.4872 -3.7767,0.9031 -3.3295,-0.2189 -2.2849,0.6294 -1.5678,2.785 -1.5582,2.3839 -1.689,2.9639 -2.0915,0.3225 -2.0692,0.5701 -2.2483,2.1205 -2.0537,0.4429 -1.5404,2.1979 -2.5535,1.2734 -1.6954,2.0284 -2.715,3.7006 -0.6759,2.4112 1.2528,3.0433 0.4131,2.3552 -1.8936,2.9568 -2.3324,1.2956 -0.254,2.0092 0.5719,2.5091 -0.511,2.0355 1.533,2.2726 0.445,2.075 -2.0606,1.4031 -1.5659,2.4902 -5.8692,2.9517 -2.7941,2.7542 -2.645,-0.3502 -2.0935,0.494 -2.1263,0.0595 -3.1651,0.0593 -3.2308,1.0278 -2.4067,-0.8102 -1.5989,-2.154 -1.9452,-2.1144 -2.1759,-0.2964 -2.4562,2.9248 -2.4725,1.3637 -2.9177,2.2529 -2.1587,2.0525 -1.0233,7.667 -2.017,15.6973 -2.4575,23.2704 -22.4406,0.0624 -58.1357,0.1435 -13.3214,-0.1733 -56.7243,0.4761 -23.7147,0.5531 -14.3738,0.0124 -58.8973,-1.0195 -90.8186,-0.7134 -15.3504,0.2492 -33.2058,-0.3674 -31.7445,0.0755 -91.7659,-2.1167 -42.1213,-0.1796 -87.1258,-0.8796 0.4772,2.4493 -107.3032,0.1085 -7.0655,-0.165 -5.7397,0.217 -83.4449,0.211 -34.5046,-0.3041 -34.1377,0.2184 -75.4788,-0.2977 -0.0969,-2.7777 1.5131,-3.7633 0.8409,-2.2331 4.995,-0.0397 5.7168,1.7735 2.6751,1.0918 2.3632,-1.4027 0.4655,-3.0607 0.2222,-2.3373 2.3878,-6.1643 0.749,-4.0881 2.7668,-3.3086 2.8457,-1.2373 5.5057,3.2015 3.0961,0.1193 3.2007,-2.6291 0.6979,-4.0014 -4.225,-1.1853 -2.4956,-2.2708 -1.0688,-2.4432 -0.3244,-3.3214 3.2499,0.7213 1.2971,-3.4638 2.3415,0.3531 -0.8165,-3.6064 -3.0662,-4.1786 -3.0571,-1.1472 -3.9397,0.6915 -3.0447,-2.0331 -1.274,-2.3736 0.4586,-4.2542 2.3675,-1.4203 3.3332,0.3532 2.1616,-0.3749 1.5313,-4.1907 -0.5718,-3.5908 2.22,-2.8512 3.5989,-5.3231 -2.1018,-1.3212 -2.8186,-2.1045 -4.0633,-2.4252 -2.4185,1.6215 0.1138,3.5477 1.3129,2.1607 -5.0664,0.38 -2.146,-2.0649 1.4118,-4.915 0.2799,-2.3295 6.5201,-3.9676 0.938,-3.3957 2.6241,-3.5024 3.2831,-0.4395 2.2715,1.2879 1.139,2.2906 -1.1265,4.2174 0.4251,3.1038 0.3028,3.3208 2.5261,3.5223 2.1031,-1.4511 -2.5086,-1.4313 2.3311,-3.4334 1.9152,-2.3353 0.7281,-2.9118 0.9559,-3.1808 -2.1404,-3.0685 -1.5928,-2.554 -0.8351,-2.3758 -0.3135,-2.1593 1.3945,-4.3838 0.3975,-2.1916 2.1779,-1.5021 3.3679,-0.845 2.7043,0.0589 5.0522,3.6006 0.1929,2.3111 1.5938,2.0021 2.3729,0.3067 2.3544,0.9225 2.5465,-4.0127 -0.8224,-2.6091 -3.266,-0.8055 -2.1742,-1.0682 -2.0764,-3.9027 -0.4983,-2.3561 1.7776,-2.4226 2.3405,-1.3878 2.1361,-0.8632 3.2639,-0.5623 3.6081,-2.1696 3.4282,-1.6102 0.9737,-4.599 -1.1183,-2.1517 -3.1674,0.43 -1.2815,2.1796 -3.181,0.8122 -3.0525,-0.849 -2.4122,-2.0588 -2.1063,-3.3046 -1.1731,-4.0826 -0.2639,-4.0992 1.4179,-2.8969 5.1379,-2.8716 2.1008,-1.2918 2.9998,1.8744 1.9288,2.3815 4.8354,-3.453 4.3273,-0.2705 2.1025,-1.7772 1.8242,-3.3175 0.1201,-2.0076 2.497,-2.468 2.591,-0.8334 3.6491,0.7375 3.212,-0.6849 3.2054,-2.0474 0.5268,-2.0364 -4.6691,-3.5018 -3.0196,-0.9532 -2.721,-1.1576 -1.5272,-2.2898 0.802,-3.3127 4.3083,-3.9504 4.5613,0.0802 4.4171,1.8383 2.1514,2.4862 3.9874,-1.2811 0.9984,-2.6687 -1.3685,-3.6099 -5.5688,-4.9598 -2.1341,-1.2543 -2.4221,-1.7729 -0.7587,-4.5337 -2.2957,-2.8916 4.3126,-0.0737 2.3893,-3.8587 1.7293,-10.2424 0.5151,-2.4307 2.0148,-2.2066 3.8864,-1.545 2.4256,-0.6389 4.5831,-2.6999 1.4619,-4.2725 -0.4558,-2.6327 -3.0636,-4.0548 -3.9414,-2.5643 -2.964,-2.4858 -4.0669,-2.842 -3.3179,-2.9465 0.1828,-3.9069 2.0339,0.2142 5.5564,-0.2342 6.8201,2.257 3.9262,-0.0421 4.1406,-2.2577 2.8785,0.6768 1.5188,-4.5565 -3.0923,-1.4248 -3.9895,-2.0881 -5.4934,-4.1047 -1.3906,-2.7505 0.7276,-2.5847 2.5215,-1.3635 3.1167,0.1241 3.494,0.9112 2.5439,0.1852 2.1732,-0.4816 2.1135,-1.8486 0.9597,-2.2325 0.5696,-2.7131 -2.5666,-5.3001 -2.8095,-3.8846 -0.449,-2.9271 3.2755,-3.7698 0.9016,-2.5713 -0.152,-2.3054 -2.2882,-2.5224 8.1458,-1.2371 -1.3633,3.702 0.4597,2.5673 3.0812,1.6616 3.7799,-1.447 3.1141,-3.4028 1.5507,-2.3434 4.8825,-1.0118 9.4068,-1.0572 5.5538,-0.5372 28.8819,0.6783 23.9391,0.2693 42.6869,-0.0474 3.0954,0.3818 3.4242,-0.3881 21.175,0.0768 46.9875,0.4117 35.3723,0.5974 2.0301,-2.3027 0.5054,-2.4182 0.8794,-3.8819 -0.517,-4.1646 -0.6595,-2.1833 -0.9069,-5.9594 -1.7491,-5.4416 -1.4279,-4.0273 -1.0106,-5.3879 9.6824,0.216 19.4942,2.0784 7.2429,0.5571 -0.5962,6.0159 38.2851,-1.0318 30.4577,-0.481 49.693,-0.2427 20.2624,-0.3272 69.4805,-1.7114 4.3576,3.7298 2.1155,-0.8969 7.1498,-2.8549 28.9919,0.7542 20.8068,1.7896 21.1619,1.1565 9.1088,0.7588 31.2943,1.5717 5.0304,-0.0747 20.3675,0.8381 29.3323,0.6557 27.3374,-1.5991 5.5591,-0.2935 9.9224,-0.3751 20.0906,0.5917 15.3077,0.7768 30.0597,2.8224 35.9602,1.0972 13.4818,0.6518 16.534,0.0391 28.2957,0.8294 42.8329,0.3363 36.6438,1.2446 16.2043,0.2571 1.2851,-2.0352 6.1532,-1.4075 3.8811,0.3996 10.7338,0.1176 46.2563,-0.1585 2.5058,0.8498 2.0053,0.0118 96.5015,0.0362 29.0526,-0.4302 3.4059,0.265 35.0945,-0.2164 z"
         id="path3243"
         style="fill:#e72121;fill-opacity:1;stroke:#000000;stroke-width:2;stroke-miterlimit:10;stroke-opacity:1;stroke-dasharray:none" />
    </clipPath>
  </defs>
  <g
     style="fill:#e0e0e0;stroke:#e0e0e0"
     id="g11"
     text-rendering="geometricPrecision"
     shape-rendering="crispEdges"
     transform="translate(-301.52109,-150.27749)">
    <path
       style="fill:#cc0001;fill-opacity:1;stroke:#cc0001;stroke-width:1.71464443;stroke-miterlimit:10;stroke-opacity:1;stroke-dasharray:none"
       id="path31"
       d="m 56.6199,315.8858 0,0 z m 1302.6654,-255.7256 52.669,0.2691 1.8956,-4.3476 30.6105,0.7577 14.8418,0.0911 -5.4912,5.1359 0.5815,2.7509 -2.1742,0.6586 -0.2497,2.5171 -0.9824,2.2301 -1.8291,2.6851 1.7465,4.4741 0.085,2.406 0.2465,3.1793 -0.033,2.021 -2.2146,2.0622 -0.6931,2.3957 -0.146,2.03 -0.7281,2.2846 -2.424,2.148 -1.2749,2.2453 2.1183,2.3859 -0.9957,2.3066 1.4079,2.1094 0.6049,2.0445 0.8233,2.1286 2.0054,1.2381 -2.1971,1.0659 -2.083,-1.0319 -2.3965,0.7507 -2.5529,-0.5401 -2.0984,-0.6847 -2.5963,-0.9055 -0.6488,-2.1932 -2.4077,1.0474 -4.12,1.3351 -3.262,2.1355 -2.0494,1.4258 -2.2369,3.0354 -2.5592,1.344 -2.2364,1.0217 -5.0705,9.0798 -3.4951,5.5207 -10.9681,19.3487 -2.8518,0.9488 -2.8683,2.4307 -3.033,1.3045 -3.0992,0.1583 -2.7529,0.2175 -2.2583,0.1188 -1.4881,-3.0747 -0.4737,-3.2882 -1.1704,-2.6284 -2.0439,0.5336 -2.72,0.9092 -2.5879,-1.3238 -3.5116,-2.0155 -2.54,2.8805 -2.026,1.4673 -2.1264,0.2176 -2.0277,1.7983 -2.2417,-0.3755 -3.8078,-0.4347 -2.4233,1.9959 -2.9505,1.1662 -2.209,-0.3953 -2.0962,1.5934 -2.2062,0.6595 -2.3736,1.7193 -2.39,1.8378 -9.2803,15.7898 -2.5247,1.8835 -4.0926,3.1657 -2.0382,1.3663 -2.3587,0.5429 -2.4537,0.89 -2.5403,2.7851 -2.851,-0.8857 -2.7703,-1.5808 -2.602,0.0713 -0.022,-2.6919 0.1567,-2.4756 -1.2229,-2.2402 1.0055,-2.3321 2.8351,-3.2012 -2.489,-1.8774 -1.8298,-2.6084 -2.4397,-1.9762 -2.9836,1.2648 -2.7362,0.9683 -2.0604,0.8893 -2.9011,2.4507 -2.9669,1.423 -1.6816,2.0946 -2.2746,0.6324 -2.1924,1.7588 -3.3625,1.1068 -2.1658,2.3078 0.024,2.1798 1.2869,2.1507 -1.6012,2.9146 -2.1373,1.5826 -0.3852,2.7718 -2.0373,0.8843 -2.2757,-1.4382 -2.0317,-1.7369 -3.2085,-1.1282 -2.2146,-1.0411 -2.4681,0.8616 -2.0738,2.0997 -0.063,2.1535 -2.9337,-0.3921 1.3516,2.3807 0.5404,2.308 1.2046,2.3948 -0.4042,2.4856 -1.1811,2.3276 -1.5748,2.485 0.6605,2.8501 -2.9212,0.982 -0.3234,2.1886 -2.074,1.1197 -1.6359,3.125 -0.5236,2.5741 -3.6808,2.5778 -2.8381,0.864 -2.4755,-1.6458 -3.2972,-1.0748 -2.7145,-0.4235 -3.2216,0.2446 -2.1401,0.4972 -2.0891,1.993 -2.079,0.9478 -2.8378,0.5573 -2.2104,0.4259 -2.9821,0.2067 -0.9167,2.0303 -2.0983,2.1155 -1.3492,2.7712 -2.074,0.8688 -2.676,0.2094 -4.3134,-0.4596 -2.4429,2.3291 0.06,2.6641 -0.6651,2.2365 -2.0138,1.7193 -2.932,1.3768 -0.7435,2.488 -2.4628,1.1598 -2.0578,-1.3369 -2.2853,-0.5249 -2.7354,1.1093 -1.1045,2.2447 -1.9959,2.0345 -3.0252,0.913 -1.3028,2.147 -3.0254,1.6017 -2.8546,0.9236 -2.226,-0.3679 -1.6351,2.7188 -2.5781,1.5298 -1.1846,2.1882 -1.1023,2.1339 -2.1592,1.0776 -3.1696,0.0216 -2.7371,-0.3552 -2.9667,0.0637 -2.2951,-0.3255 -2.6224,0.6539 -2.3896,-2.3839 -2.0426,-0.9296 -2.2669,1.4569 -2.3968,0.9847 -3.1864,-0.5697 -2.7331,0.1986 -2.5869,0.2338 -3.0349,-0.1467 -2.6803,1.316 -2.0126,-0.7077 -2.0443,1.1081 -2.4463,-0.5959 -2.838,2.4655 -2.3262,0.9994 -2.3854,1.7618 -2.7819,2.4872 -3.7767,0.9031 -3.3295,-0.2189 -2.2849,0.6294 -1.5678,2.785 -1.5582,2.3839 -1.689,2.9639 -2.0915,0.3225 -2.0692,0.5701 -2.2483,2.1205 -2.0537,0.4429 -1.5404,2.1979 -2.5535,1.2734 -1.6954,2.0284 -2.715,3.7006 -0.6759,2.4112 1.2528,3.0433 0.4131,2.3552 -1.8936,2.9568 -2.3324,1.2956 -0.254,2.0092 0.5719,2.5091 -0.511,2.0355 1.533,2.2726 0.445,2.075 -2.0606,1.4031 -1.5659,2.4902 -5.8692,2.9517 -2.7941,2.7542 -2.645,-0.3502 -2.0935,0.494 -2.1263,0.0595 -3.1651,0.0593 -3.2308,1.0278 -2.4067,-0.8102 -1.5989,-2.154 -1.9452,-2.1144 -2.1759,-0.2964 -2.4562,2.9248 -2.4725,1.3637 -2.9177,2.2529 -2.1587,2.0525 -1.0233,7.667 -2.017,15.6973 -2.4575,23.2704 -22.4406,0.0624 -58.1357,0.1435 -13.3214,-0.1733 -56.7243,0.4761 -23.7147,0.5531 -14.3738,0.0124 -58.8973,-1.0195 -90.8186,-0.7134 -15.3504,0.2492 -33.2058,-0.3674 -31.7445,0.0755 -91.7659,-2.1167 -42.1213,-0.1796 -87.1258,-0.8796 0.4772,2.4493 -107.3032,0.1085 -7.0655,-0.165 -5.7397,0.217 -83.4449,0.211 -34.5046,-0.3041 -34.1377,0.2184 -75.4788,-0.2977 -0.0969,-2.7777 1.5131,-3.7633 0.8409,-2.2331 4.995,-0.0397 5.7168,1.7735 2.6751,1.0918 2.3632,-1.4027 0.4655,-3.0607 0.2222,-2.3373 2.3878,-6.1643 0.749,-4.0881 2.7668,-3.3086 2.8457,-1.2373 5.5057,3.2015 3.0961,0.1193 3.2007,-2.6291 0.6979,-4.0014 -4.225,-1.1853 -2.4956,-2.2708 -1.0688,-2.4432 -0.3244,-3.3214 3.2499,0.7213 1.2971,-3.4638 2.3415,0.3531 -0.8165,-3.6064 -3.0662,-4.1786 -3.0571,-1.1472 -3.9397,0.6915 -3.0447,-2.0331 -1.274,-2.3736 0.4586,-4.2542 2.3675,-1.4203 3.3332,0.3532 2.1616,-0.3749 1.5313,-4.1907 -0.5718,-3.5908 2.22,-2.8512 3.5989,-5.3231 -2.1018,-1.3212 -2.8186,-2.1045 -4.0633,-2.4252 -2.4185,1.6215 0.1138,3.5477 1.3129,2.1607 -5.0664,0.38 -2.146,-2.0649 1.4118,-4.915 0.2799,-2.3295 6.5201,-3.9676 0.938,-3.3957 2.6241,-3.5024 3.2831,-0.4395 2.2715,1.2879 1.139,2.2906 -1.1265,4.2174 0.4251,3.1038 0.3028,3.3208 2.5261,3.5223 2.1031,-1.4511 -2.5086,-1.4313 2.3311,-3.4334 1.9152,-2.3353 0.7281,-2.9118 0.9559,-3.1808 -2.1404,-3.0685 -1.5928,-2.554 -0.8351,-2.3758 -0.3135,-2.1593 1.3945,-4.3838 0.3975,-2.1916 2.1779,-1.5021 3.3679,-0.845 2.7043,0.0589 5.0522,3.6006 0.1929,2.3111 1.5938,2.0021 2.3729,0.3067 2.3544,0.9225 2.5465,-4.0127 -0.8224,-2.6091 -3.266,-0.8055 -2.1742,-1.0682 -2.0764,-3.9027 -0.4983,-2.3561 1.7776,-2.4226 2.3405,-1.3878 2.1361,-0.8632 3.2639,-0.5623 3.6081,-2.1696 3.4282,-1.6102 0.9737,-4.599 -1.1183,-2.1517 -3.1674,0.43 -1.2815,2.1796 -3.181,0.8122 -3.0525,-0.849 -2.4122,-2.0588 -2.1063,-3.3046 -1.1731,-4.0826 -0.2639,-4.0992 1.4179,-2.8969 5.1379,-2.8716 2.1008,-1.2918 2.9998,1.8744 1.9288,2.3815 4.8354,-3.453 4.3273,-0.2705 2.1025,-1.7772 1.8242,-3.3175 0.1201,-2.0076 2.497,-2.468 2.591,-0.8334 3.6491,0.7375 3.212,-0.6849 3.2054,-2.0474 0.5268,-2.0364 -4.6691,-3.5018 -3.0196,-0.9532 -2.721,-1.1576 -1.5272,-2.2898 0.802,-3.3127 4.3083,-3.9504 4.5613,0.0802 4.4171,1.8383 2.1514,2.4862 3.9874,-1.2811 0.9984,-2.6687 -1.3685,-3.6099 -5.5688,-4.9598 -2.1341,-1.2543 -2.4221,-1.7729 -0.7587,-4.5337 -2.2957,-2.8916 4.3126,-0.0737 2.3893,-3.8587 1.7293,-10.2424 0.5151,-2.4307 2.0148,-2.2066 3.8864,-1.545 2.4256,-0.6389 4.5831,-2.6999 1.4619,-4.2725 -0.4558,-2.6327 -3.0636,-4.0548 -3.9414,-2.5643 -2.964,-2.4858 -4.0669,-2.842 -3.3179,-2.9465 0.1828,-3.9069 2.0339,0.2142 5.5564,-0.2342 6.8201,2.257 3.9262,-0.0421 4.1406,-2.2577 2.8785,0.6768 1.5188,-4.5565 -3.0923,-1.4248 -3.9895,-2.0881 -5.4934,-4.1047 -1.3906,-2.7505 0.7276,-2.5847 2.5215,-1.3635 3.1167,0.1241 3.494,0.9112 2.5439,0.1852 2.1732,-0.4816 2.1135,-1.8486 0.9597,-2.2325 0.5696,-2.7131 -2.5666,-5.3001 -2.8095,-3.8846 -0.449,-2.9271 3.2755,-3.7698 0.9016,-2.5713 -0.152,-2.3054 -2.2882,-2.5224 8.1458,-1.2371 -1.3633,3.702 0.4597,2.5673 3.0812,1.6616 3.7799,-1.447 3.1141,-3.4028 1.5507,-2.3434 4.8825,-1.0118 9.4068,-1.0572 5.5538,-0.5372 28.8819,0.6783 23.9391,0.2693 42.6869,-0.0474 3.0954,0.3818 3.4242,-0.3881 21.175,0.0768 46.9875,0.4117 35.3723,0.5974 2.0301,-2.3027 0.5054,-2.4182 0.8794,-3.8819 -0.517,-4.1646 -0.6595,-2.1833 -0.9069,-5.9594 -1.7491,-5.4416 -1.4279,-4.0273 -1.0106,-5.3879 9.6824,0.216 19.4942,2.0784 7.2429,0.5571 -0.5962,6.0159 38.2851,-1.0318 30.4577,-0.481 49.693,-0.2427 20.2624,-0.3272 69.4805,-1.7114 4.3576,3.7298 2.1155,-0.8969 7.1498,-2.8549 28.9919,0.7542 20.8068,1.7896 21.1619,1.1565 9.1088,0.7588 31.2943,1.5717 5.0304,-0.0747 20.3675,0.8381 29.3323,0.6557 27.3374,-1.5991 5.5591,-0.2935 9.9224,-0.3751 20.0906,0.5917 15.3077,0.7768 30.0597,2.8224 35.9602,1.0972 13.4818,0.6518 16.534,0.0391 28.2957,0.8294 42.8329,0.3363 36.6438,1.2446 16.2043,0.2571 1.2851,-2.0352 6.1532,-1.4075 3.8811,0.3996 10.7338,0.1176 46.2563,-0.1585 2.5058,0.8498 2.0053,0.0118 96.5015,0.0362 29.0526,-0.4302 3.4059,0.265 35.0945,-0.2164 z"
       clip-path="url(#clipPath1)"
       transform="matrix(0.8164958,0,0,0.8164958,276.63317,115.1757)" />
    <g
       id="g3231"
       transform="matrix(2.1974336,0,0,1.0681483,-4544.2695,-131.72638)"
       clip-path="url(#clipPath3241)">
      <rect
         y="269.25125"
         x="2661.0588"
         width="76.482628"
         style="font-size:12px;fill:#002d65;fill-opacity:1;fill-rule:evenodd;stroke-width:0.50139303pt"
         id="rect4315"
         height="110.93464" />
      <rect
         y="273.4946"
         x="2644.9636"
         width="17.214733"
         style="font-size:12px;fill:#ffffff;fill-opacity:1;fill-rule:evenodd;stroke-width:0.58038898pt"
         id="rect4317"
         height="133.74519" />
    </g>
    <g
       id="g4319"
       transform="matrix(0.9268991,0,0,0.9268991,509.88968,-109.54281)">
      <g
         id="g4321">
        <path
           transform="matrix(1.36986,0,0,1.36986,8.34103,-94.5856)"
           style="fill:#ffffff;fill-opacity:1;fill-rule:evenodd;stroke:none"
           sodipodi:type="arc"
           sodipodi:ry="105.16328"
           sodipodi:rx="105.1633"
           sodipodi:cy="382.96661"
           sodipodi:cx="209.84641"
           id="path4323"
           d="m 315.0097,382.96661 c 0,58.08008 -47.08321,105.16328 -105.16329,105.16328 -58.08009,0 -105.1633,-47.0832 -105.1633,-105.16328 0,-58.08007 47.08321,-105.16327 105.1633,-105.16327 58.08008,0 105.16329,47.0832 105.16329,105.16327 z" />
        <path
           transform="matrix(1.27853,0,0,1.27853,27.505,-59.6117)"
           style="fill:#002d65;fill-opacity:1;fill-rule:evenodd;stroke:none"
           sodipodi:type="arc"
           sodipodi:ry="105.16328"
           sodipodi:rx="105.1633"
           sodipodi:cy="382.96661"
           sodipodi:cx="209.84641"
           id="path4325"
           d="m 315.0097,382.96661 c 0,58.08008 -47.08321,105.16328 -105.16329,105.16328 -58.08009,0 -105.1633,-47.0832 -105.1633,-105.16328 0,-58.08007 47.08321,-105.16327 105.1633,-105.16327 58.08008,0 105.16329,47.0832 105.16329,105.16327 z" />
        <g
           transform="translate(1.513596,1.891983)"
           id="g4327">
          <polygon
             transform="matrix(0.90357,-0.42841,0.42841,0.90357,-147.388,58.37178)"
             style="font-size:12px;fill:#ffffff;fill-opacity:1;fill-rule:evenodd;stroke-width:1pt"
             sodipodi:type="star"
             sodipodi:sides="5"
             sodipodi:r2="24.646839"
             sodipodi:r1="61.617096"
             sodipodi:cy="455.9566"
             sodipodi:cx="222.81174"
             sodipodi:arg2="1.939015"
             sodipodi:arg1="1.310696"
             points="238.658,515.501 213.94,478.951 171.078,489.428 198.201,454.625 174.992,417.098 216.473,432.139 244.991,398.47 243.505,442.568 284.339,459.286 241.94,471.5 238.658,515.501 "
             id="polygon4329"
             inkscape:flatsided="false"
             inkscape:rounded="0"
             inkscape:randomized="0"
             d="m 238.65827,515.50116 -24.71826,-36.54979 -42.86166,10.47646 27.12255,-34.80297 -23.20869,-37.52646 41.48093,15.04038 28.5179,-33.66909 -1.48594,44.09843 40.83372,16.71782 -42.39928,12.21395 -3.28127,44.00127 z" />
          <polygon
             transform="matrix(0.92139,0.38863,-0.38863,0.92139,333.767,-92.1123)"
             style="font-size:12px;fill:#ffffff;fill-opacity:1;fill-rule:evenodd;stroke-width:1pt"
             sodipodi:type="star"
             sodipodi:sides="5"
             sodipodi:r2="24.646839"
             sodipodi:r1="61.617096"
             sodipodi:cy="455.9566"
             sodipodi:cx="222.81174"
             sodipodi:arg2="1.939015"
             sodipodi:arg1="1.310696"
             points="238.658,515.501 213.94,478.951 171.078,489.428 198.201,454.625 174.992,417.098 216.473,432.139 244.991,398.47 243.505,442.568 284.339,459.286 241.94,471.5 238.658,515.501 "
             id="polygon4331"
             inkscape:flatsided="false"
             inkscape:rounded="0"
             inkscape:randomized="0"
             d="m 238.65827,515.50116 -24.71826,-36.54979 -42.86166,10.47646 27.12255,-34.80297 -23.20869,-37.52646 41.48093,15.04038 28.5179,-33.66909 -1.48594,44.09843 40.83372,16.71782 -42.39928,12.21395 -3.28127,44.00127 z" />
          <polygon
             transform="matrix(0.99969,-0.0246549,0.0246549,0.99969,37.2931,42.786)"
             style="font-size:12px;fill:#ffffff;fill-opacity:1;fill-rule:evenodd;stroke-width:1pt"
             sodipodi:type="star"
             sodipodi:sides="5"
             sodipodi:r2="24.646839"
             sodipodi:r1="61.617096"
             sodipodi:cy="455.9566"
             sodipodi:cx="222.81174"
             sodipodi:arg2="1.939015"
             sodipodi:arg1="1.310696"
             points="238.658,515.501 213.94,478.951 171.078,489.428 198.201,454.625 174.992,417.098 216.473,432.139 244.991,398.47 243.505,442.568 284.339,459.286 241.94,471.5 238.658,515.501 "
             id="polygon4333"
             inkscape:flatsided="false"
             inkscape:rounded="0"
             inkscape:randomized="0"
             d="m 238.65827,515.50116 -24.71826,-36.54979 -42.86166,10.47646 27.12255,-34.80297 -23.20869,-37.52646 41.48093,15.04038 28.5179,-33.66909 -1.48594,44.09843 40.83372,16.71782 -42.39928,12.21395 -3.28127,44.00127 z" />
        </g>
      </g>
    </g>
  </g>
</svg>
