<?xml version="1.0" encoding="UTF-8" standalone="no"?>
<svg width="249px" height="66px" viewBox="0 0 249 66" version="1.1" xmlns="http://www.w3.org/2000/svg" xmlns:xlink="http://www.w3.org/1999/xlink">
    <!-- Generator: Sketch 3.7 (28169) - http://www.bohemiancoding.com/sketch -->
    <title>IFTTT-blue</title>
    <desc>Created with Sketch.</desc>
    <defs></defs>
    <g id="Icons" stroke="none" stroke-width="1" fill="none" fill-rule="evenodd">
        <g id="WEB-DEV-svg" transform="translate(-5.000000, -460.000000)" fill="#33CCFF">
            <g id="IFTTT-blue" transform="translate(5.000000, 460.000000)">
                <g id="T" transform="translate(198.000000, 0.000000)">
                    <rect id="rect49" x="15" y="21" width="21" height="45"></rect>
                    <rect id="rect51" x="15" y="0" width="21" height="21"></rect>
                    <rect id="rect53" x="0" y="0" width="15" height="21"></rect>
                    <rect id="rect55" x="36" y="0" width="15" height="21"></rect>
                </g>
                <g id="T" transform="translate(141.000000, 0.000000)">
                    <rect id="rect37" x="15" y="21" width="21" height="45"></rect>
                    <rect id="rect39" x="15" y="0" width="21" height="21"></rect>
                    <rect id="rect41" x="0" y="0" width="15" height="21"></rect>
                    <rect id="rect43" x="36" y="0" width="15" height="21"></rect>
                </g>
                <g id="T" transform="translate(84.000000, 0.000000)">
                    <rect id="rect25" x="15" y="21" width="21" height="45"></rect>
                    <rect id="rect27" x="15" y="0" width="21" height="21"></rect>
                    <rect id="rect29" x="0" y="0" width="15" height="21"></rect>
                    <rect id="rect31" x="36" y="0" width="15" height="21"></rect>
                </g>
                <g id="F" transform="translate(30.000000, 0.000000)">
                    <rect id="rect57" x="0" y="27" width="21" height="21"></rect>
                    <rect id="rect59" x="21" y="27" width="18" height="21"></rect>
                    <rect id="rect11" x="0" y="48" width="21" height="18"></rect>
                    <rect id="rect15" x="0" y="21" width="21" height="6"></rect>
                    <rect id="rect17" x="0" y="0" width="21" height="21"></rect>
                    <rect id="rect19" x="21" y="0" width="27" height="21"></rect>
                </g>
                <rect id="I" x="0" y="0" width="21" height="66"></rect>
            </g>
        </g>
    </g>
</svg>