<?xml version="1.0" encoding="UTF-8" standalone="no"?>
<!-- Generator: Adobe Illustrator 13.0.0, SVG Export Plug-In . SVG Version: 6.00 Build 14948)  -->

<svg
   xmlns:dc="http://purl.org/dc/elements/1.1/"
   xmlns:cc="http://creativecommons.org/ns#"
   xmlns:rdf="http://www.w3.org/1999/02/22-rdf-syntax-ns#"
   xmlns:svg="http://www.w3.org/2000/svg"
   xmlns="http://www.w3.org/2000/svg"
   xmlns:sodipodi="http://sodipodi.sourceforge.net/DTD/sodipodi-0.dtd"
   xmlns:inkscape="http://www.inkscape.org/namespaces/inkscape"
   version="1.1"
   id="Layer_1"
   x="0px"
   y="0px"
   width="119.5px"
   height="573.666px"
   viewBox="0 0 119.5 573.666"
   enable-background="new 0 0 119.5 573.666"
   xml:space="preserve"
   inkscape:version="0.48.4 r9939"
   sodipodi:docname="10ml_vector_syringe_9ml.svgz"><metadata
   id="metadata91"><rdf:RDF><cc:Work
       rdf:about=""><dc:format>image/svg+xml</dc:format><dc:type
         rdf:resource="http://purl.org/dc/dcmitype/StillImage" /><dc:title></dc:title></cc:Work></rdf:RDF></metadata><defs
   id="defs89" /><sodipodi:namedview
   pagecolor="#ffffff"
   bordercolor="#666666"
   borderopacity="1"
   objecttolerance="10"
   gridtolerance="10"
   guidetolerance="10"
   inkscape:pageopacity="0"
   inkscape:pageshadow="2"
   inkscape:window-width="1920"
   inkscape:window-height="1018"
   id="namedview87"
   showgrid="false"
   inkscape:zoom="1.1635844"
   inkscape:cx="138.95442"
   inkscape:cy="288.44704"
   inkscape:window-x="-8"
   inkscape:window-y="-8"
   inkscape:window-maximized="1"
   inkscape:current-layer="Layer_1" />
<polygon
   fill-rule="evenodd"
   clip-rule="evenodd"
   fill="#8ED8F8"
   points="30.564,235.38 30.564,51.255 49.939,46.005 51.814,1.005   67.689,0.88 69.564,45.755 88.939,51.13 88.939,235.255 "
   id="polygon3" />
<g
   id="g5">
	<g
   id="g7">
		<polygon
   fill-rule="evenodd"
   clip-rule="evenodd"
   fill="#E7E8E9"
   stroke="#000000"
   stroke-width="0.5"
   points="24.718,573.416     24.718,567.661 51.085,565.322 36.857,526.31 36.857,257.895 82.384,257.895 82.384,526.31 68.157,565.322 94.398,567.661     94.398,573.416   "
   id="polygon9" />
		<polygon
   fill-rule="evenodd"
   clip-rule="evenodd"
   fill="#808285"
   stroke="#000000"
   stroke-width="0.216"
   points="30.69,235.019     88.742,235.019 88.742,240.128 85.485,240.128 85.485,252.134 88.806,252.134 88.806,257.882 30.563,257.882 30.563,252.134     33.756,252.134 33.563,240.128 30.69,240.128   "
   id="polygon11" />
	</g>
	
		<line
   fill-rule="evenodd"
   clip-rule="evenodd"
   fill="none"
   stroke="#000000"
   stroke-width="0.216"
   x1="59.621"
   y1="259.895"
   x2="59.559"
   y2="568.587"
   id="line13" />
</g>
<text
   transform="matrix(1 0 0 1 62.7656 75.1445)"
   font-family="'Arial-BoldMT'"
   font-size="14"
   id="text15">1</text>

<g
   id="g17">
	<text
   transform="matrix(1 0 0 1 45.5664 292.3828)"
   font-family="'Arial-BoldMT'"
   font-size="21.0557"
   id="text19">mL</text>

</g>
<g
   id="g21">
	<line
   fill-rule="evenodd"
   clip-rule="evenodd"
   fill="none"
   stroke="#000000"
   x1="55.092"
   y1="255.074"
   x2="30.305"
   y2="255.074"
   id="line23" />
	<line
   fill-rule="evenodd"
   clip-rule="evenodd"
   fill="none"
   stroke="#000000"
   x1="55.154"
   y1="193.926"
   x2="30.305"
   y2="193.926"
   id="line25" />
	<line
   fill-rule="evenodd"
   clip-rule="evenodd"
   fill="none"
   stroke="#000000"
   x1="55.092"
   y1="234.691"
   x2="30.305"
   y2="234.691"
   id="line27" />
	<line
   fill-rule="evenodd"
   clip-rule="evenodd"
   fill="none"
   stroke="#000000"
   x1="55.154"
   y1="214.309"
   x2="30.305"
   y2="214.309"
   id="line29" />
	<line
   fill-rule="evenodd"
   clip-rule="evenodd"
   fill="none"
   stroke="#000000"
   x1="42.128"
   y1="204.117"
   x2="30.305"
   y2="204.117"
   id="line31" />
	<line
   fill-rule="evenodd"
   clip-rule="evenodd"
   fill="none"
   stroke="#000000"
   x1="42.098"
   y1="244.883"
   x2="30.305"
   y2="244.883"
   id="line33" />
	<line
   fill-rule="evenodd"
   clip-rule="evenodd"
   fill="none"
   stroke="#000000"
   x1="42.128"
   y1="224.5"
   x2="30.305"
   y2="224.5"
   id="line35" />
	<line
   fill-rule="evenodd"
   clip-rule="evenodd"
   fill="none"
   stroke="#000000"
   x1="42.128"
   y1="183.734"
   x2="30.305"
   y2="183.734"
   id="line37" />
	<g
   id="g39">
		<line
   fill-rule="evenodd"
   clip-rule="evenodd"
   fill="none"
   stroke="#000000"
   x1="55.154"
   y1="71.629"
   x2="30.305"
   y2="71.629"
   id="line41" />
		<line
   fill-rule="evenodd"
   clip-rule="evenodd"
   fill="none"
   stroke="#000000"
   x1="55.092"
   y1="112.395"
   x2="30.305"
   y2="112.395"
   id="line43" />
		<line
   fill-rule="evenodd"
   clip-rule="evenodd"
   fill="none"
   stroke="#000000"
   x1="55.154"
   y1="51.247"
   x2="30.305"
   y2="51.247"
   id="line45" />
		<line
   fill-rule="evenodd"
   clip-rule="evenodd"
   fill="none"
   stroke="#000000"
   x1="55.092"
   y1="132.778"
   x2="30.305"
   y2="132.778"
   id="line47" />
		<line
   fill-rule="evenodd"
   clip-rule="evenodd"
   fill="none"
   stroke="#000000"
   x1="55.092"
   y1="153.16"
   x2="30.305"
   y2="153.16"
   id="line49" />
		<line
   fill-rule="evenodd"
   clip-rule="evenodd"
   fill="none"
   stroke="#000000"
   x1="55.154"
   y1="173.543"
   x2="30.305"
   y2="173.543"
   id="line51" />
		<line
   fill-rule="evenodd"
   clip-rule="evenodd"
   fill="none"
   stroke="#000000"
   x1="55.154"
   y1="92.012"
   x2="30.305"
   y2="92.012"
   id="line53" />
		<line
   fill-rule="evenodd"
   clip-rule="evenodd"
   fill="none"
   stroke="#000000"
   x1="42.128"
   y1="81.821"
   x2="30.305"
   y2="81.821"
   id="line55" />
		<line
   fill-rule="evenodd"
   clip-rule="evenodd"
   fill="none"
   stroke="#000000"
   x1="42.098"
   y1="122.586"
   x2="30.305"
   y2="122.586"
   id="line57" />
		<line
   fill-rule="evenodd"
   clip-rule="evenodd"
   fill="none"
   stroke="#000000"
   x1="42.128"
   y1="61.438"
   x2="30.305"
   y2="61.438"
   id="line59" />
		<line
   fill-rule="evenodd"
   clip-rule="evenodd"
   fill="none"
   stroke="#000000"
   x1="42.098"
   y1="142.969"
   x2="30.305"
   y2="142.969"
   id="line61" />
		<line
   fill-rule="evenodd"
   clip-rule="evenodd"
   fill="none"
   stroke="#000000"
   x1="42.098"
   y1="163.352"
   x2="30.305"
   y2="163.352"
   id="line63" />
		<line
   fill-rule="evenodd"
   clip-rule="evenodd"
   fill="none"
   stroke="#000000"
   x1="42.128"
   y1="102.204"
   x2="30.305"
   y2="102.204"
   id="line65" />
	</g>
</g>
<text
   transform="matrix(1 0 0 1 62.7656 97.1445)"
   font-family="'Arial-BoldMT'"
   font-size="14"
   id="text67">2</text>

<text
   transform="matrix(1 0 0 1 62.7656 118.1445)"
   font-family="'Arial-BoldMT'"
   font-size="14"
   id="text69">3</text>

<text
   transform="matrix(1 0 0 1 62.7656 139.1445)"
   font-family="'Arial-BoldMT'"
   font-size="14"
   id="text71">4</text>

<text
   transform="matrix(1 0 0 1 62.7656 158.1445)"
   font-family="'Arial-BoldMT'"
   font-size="14"
   id="text73">5</text>

<text
   transform="matrix(1 0 0 1 62.7656 177.1445)"
   font-family="'Arial-BoldMT'"
   font-size="14"
   id="text75">6</text>

<text
   transform="matrix(1 0 0 1 62.7656 198.1445)"
   font-family="'Arial-BoldMT'"
   font-size="14"
   id="text77">7</text>

<text
   transform="matrix(1 0 0 1 62.7656 219.1445)"
   font-family="'Arial-BoldMT'"
   font-size="14"
   id="text79">8</text>

<text
   transform="matrix(1 0 0 1 62.7656 239.1445)"
   font-family="'Arial-BoldMT'"
   font-size="14"
   id="text81">9</text>

<text
   transform="matrix(1 0 0 1 62.7656 259.1445)"
   font-family="'Arial-BoldMT'"
   font-size="14"
   id="text83">10</text>

<polygon
   fill-rule="evenodd"
   clip-rule="evenodd"
   fill="none"
   stroke="#000000"
   points="0.5,323.166 0.5,317.729 30.029,314.251   30.029,51.021 49.567,45.646 51.338,0.5 68.157,0.5 69.928,45.583 89.402,51.021 89.402,314.251 118.932,317.729 118.994,323.166   "
   id="polygon85" />
</svg>