<?xml version="1.0" encoding="UTF-8" standalone="no"?>
<svg width="78px" height="72px" viewBox="0 0 78 72" version="1.1" xmlns="http://www.w3.org/2000/svg" xmlns:xlink="http://www.w3.org/1999/xlink">
    <!-- Generator: Sketch 3.7 (28169) - http://www.bohemiancoding.com/sketch -->
    <title>XMLID_101_</title>
    <desc>Created with Sketch.</desc>
    <defs></defs>
    <g id="Icons" stroke="none" stroke-width="1" fill="none" fill-rule="evenodd">
        <g id="WEB-DEV-svg" transform="translate(-5.000000, -90.000000)" fill="#C3D367">
            <g id="menu" transform="translate(5.000000, 90.000000)">
                <path d="M71,13.5 L7,13.5 C3.4,13.5 0.5,10.6 0.5,7 C0.5,3.4 3.4,0.5 7,0.5 L71,0.5 C74.6,0.5 77.5,3.4 77.5,7 C77.5,10.6 74.6,13.5 71,13.5 L71,13.5 Z M77.5,36 C77.5,32.4 74.6,29.5 71,29.5 L7,29.5 C3.4,29.5 0.5,32.4 0.5,36 C0.5,39.6 3.4,42.5 7,42.5 L71,42.5 C74.6,42.5 77.5,39.6 77.5,36 L77.5,36 Z M77.5,65 C77.5,61.4 74.6,58.5 71,58.5 L7,58.5 C3.4,58.5 0.5,61.4 0.5,65 C0.5,68.6 3.4,71.5 7,71.5 L71,71.5 C74.6,71.5 77.5,68.6 77.5,65 L77.5,65 Z" id="XMLID_101_"></path>
            </g>
        </g>
    </g>
</svg>