<?xml version="1.0" encoding="UTF-8" standalone="no"?>
<!-- Created with Inkscape (http://www.inkscape.org/) -->

<svg
   xmlns:dc="http://purl.org/dc/elements/1.1/"
   xmlns:cc="http://creativecommons.org/ns#"
   xmlns:rdf="http://www.w3.org/1999/02/22-rdf-syntax-ns#"
   xmlns:svg="http://www.w3.org/2000/svg"
   xmlns="http://www.w3.org/2000/svg"
   xmlns:sodipodi="http://sodipodi.sourceforge.net/DTD/sodipodi-0.dtd"
   xmlns:inkscape="http://www.inkscape.org/namespaces/inkscape"
   width="744.09448819"
   height="1052.3622047"
   id="svg2"
   version="1.1"
   inkscape:version="0.46+devel 22040"
   sodipodi:docname="rx medicine symbol.svg">
  <defs
     id="defs4">
    <inkscape:perspective
       sodipodi:type="inkscape:persp3d"
       inkscape:vp_x="0 : 526.18109 : 1"
       inkscape:vp_y="0 : 1000 : 0"
       inkscape:vp_z="744.09448 : 526.18109 : 1"
       inkscape:persp3d-origin="372.04724 : 350.78739 : 1"
       id="perspective10" />
    <inkscape:perspective
       id="perspective3600"
       inkscape:persp3d-origin="0.5 : 0.33333333 : 1"
       inkscape:vp_z="1 : 0.5 : 1"
       inkscape:vp_y="0 : 1000 : 0"
       inkscape:vp_x="0 : 0.5 : 1"
       sodipodi:type="inkscape:persp3d" />
    <inkscape:perspective
       id="perspective3638"
       inkscape:persp3d-origin="0.5 : 0.33333333 : 1"
       inkscape:vp_z="1 : 0.5 : 1"
       inkscape:vp_y="0 : 1000 : 0"
       inkscape:vp_x="0 : 0.5 : 1"
       sodipodi:type="inkscape:persp3d" />
    <inkscape:perspective
       id="perspective3667"
       inkscape:persp3d-origin="0.5 : 0.33333333 : 1"
       inkscape:vp_z="1 : 0.5 : 1"
       inkscape:vp_y="0 : 1000 : 0"
       inkscape:vp_x="0 : 0.5 : 1"
       sodipodi:type="inkscape:persp3d" />
    <inkscape:perspective
       id="perspective3689"
       inkscape:persp3d-origin="0.5 : 0.33333333 : 1"
       inkscape:vp_z="1 : 0.5 : 1"
       inkscape:vp_y="0 : 1000 : 0"
       inkscape:vp_x="0 : 0.5 : 1"
       sodipodi:type="inkscape:persp3d" />
  </defs>
  <sodipodi:namedview
     id="base"
     pagecolor="#ffffff"
     bordercolor="#666666"
     borderopacity="1.0"
     inkscape:pageopacity="0.0"
     inkscape:pageshadow="2"
     inkscape:zoom="0.49497475"
     inkscape:cx="-53.282508"
     inkscape:cy="678.42056"
     inkscape:document-units="px"
     inkscape:current-layer="layer1"
     showgrid="false"
     inkscape:window-width="1280"
     inkscape:window-height="744"
     inkscape:window-x="-4"
     inkscape:window-y="-4"
     inkscape:window-maximized="1" />
  <metadata
     id="metadata7">
    <rdf:RDF>
      <cc:Work
         rdf:about="">
        <dc:format>image/svg+xml</dc:format>
        <dc:type
           rdf:resource="http://purl.org/dc/dcmitype/StillImage" />
        <dc:title></dc:title>
      </cc:Work>
    </rdf:RDF>
  </metadata>
  <g
     inkscape:label="Layer 1"
     inkscape:groupmode="layer"
     id="layer1">
    <path
       style="font-size:322.82284546000000000px;font-style:normal;font-variant:normal;font-weight:900;font-stretch:normal;fill:#ffffff;stroke:#000000;stroke-width:8;stroke-linecap:butt;stroke-linejoin:miter;stroke-miterlimit:4;stroke-opacity:1;font-family:Arial Black;-inkscape-font-specification:Arial Black Heavy;stroke-dasharray:none"
       d="m 41.6875,328.15625 0,231.09375 71.71875,0 0,-93.8125 6.3125,0 c 6.5152,10e-5 13.95135,0.18768 17.46875,5.375 l 67.5157,99.56963 -60.84375,87.625 69.5,0 36.4375,-53.90625 30.875,53.90625 74.875,0 -61.15625,-87.625 57.0625,-79.78125 -70.78125,0 -30.875,46.6875 c -26.84406,-34.64846 -28.95636,-45.20921 -55.3907,-80.03838 10.61345,-2.41686 18.96735,-5.47814 25.0625,-9.15625 9.56258,-5.77958 17.09783,-13.29356 22.5625,-22.59375 5.46422,-9.29993 8.18727,-20.36691 8.1875,-33.1875 -2.3e-4,-14.7118 -3.57316,-27.19146 -10.71875,-37.4375 -7.14603,-10.24563 -16.55446,-17.2792 -28.21875,-21.0625 -11.66468,-3.78285 -28.52595,-5.65602 -50.59375,-5.65625 l -119,0 z m 71.71875,46.65625 31.375,0 c 13.03047,1.8e-4 21.896,2.00693 26.625,6 4.72869,3.99343 7.09359,9.69535 7.09375,17.15625 -1.6e-4,5.04427 -1.50522,9.51824 -4.5,13.40625 -2.9951,3.88831 -6.86505,6.30438 -11.59375,7.25 -9.35275,2.10185 -15.64872,3.15639 -18.90625,3.15625 l -30.09375,0 0,-46.96875 z"
       id="path3621"
       sodipodi:nodetypes="cccccsccccccccccccssssccccssscccc" />
  </g>
</svg>
